G04 MADE WITH FRITZING*
G04 WWW.FRITZING.ORG*
G04 DOUBLE SIDED*
G04 HOLES PLATED*
G04 CONTOUR ON CENTER OF CONTOUR VECTOR*
%ASAXBY*%
%FSLAX23Y23*%
%MOIN*%
%OFA0B0*%
%SFA1.0B1.0*%
%ADD10R,0.001000X0.001000*%
%LNSILK0*%
G90*
G70*
G54D10*
X7Y1001D02*
X15Y1001D01*
X7Y1000D02*
X14Y1000D01*
X7Y999D02*
X14Y999D01*
X7Y998D02*
X14Y998D01*
X7Y997D02*
X14Y997D01*
X7Y996D02*
X14Y996D01*
X7Y995D02*
X14Y995D01*
X7Y994D02*
X14Y994D01*
X7Y993D02*
X14Y993D01*
X7Y992D02*
X14Y992D01*
X7Y991D02*
X14Y991D01*
X7Y990D02*
X14Y990D01*
X7Y989D02*
X14Y989D01*
X7Y988D02*
X14Y988D01*
X7Y987D02*
X14Y987D01*
X7Y986D02*
X14Y986D01*
X7Y985D02*
X14Y985D01*
X7Y984D02*
X14Y984D01*
X7Y983D02*
X14Y983D01*
X7Y982D02*
X14Y982D01*
X7Y981D02*
X14Y981D01*
X7Y980D02*
X14Y980D01*
X7Y979D02*
X14Y979D01*
X7Y978D02*
X14Y978D01*
X7Y977D02*
X14Y977D01*
X7Y976D02*
X14Y976D01*
X7Y975D02*
X14Y975D01*
X7Y974D02*
X14Y974D01*
X7Y973D02*
X14Y973D01*
X7Y972D02*
X14Y972D01*
X7Y971D02*
X14Y971D01*
X7Y970D02*
X14Y970D01*
X7Y969D02*
X14Y969D01*
X7Y968D02*
X14Y968D01*
X7Y967D02*
X14Y967D01*
X7Y966D02*
X14Y966D01*
X7Y965D02*
X14Y965D01*
X7Y964D02*
X14Y964D01*
X7Y963D02*
X14Y963D01*
X7Y962D02*
X14Y962D01*
X7Y961D02*
X14Y961D01*
X7Y960D02*
X14Y960D01*
X7Y959D02*
X14Y959D01*
X7Y958D02*
X14Y958D01*
X7Y957D02*
X14Y957D01*
X7Y956D02*
X14Y956D01*
X7Y955D02*
X14Y955D01*
X7Y954D02*
X14Y954D01*
X7Y953D02*
X14Y953D01*
X7Y952D02*
X14Y952D01*
X7Y951D02*
X14Y951D01*
X7Y950D02*
X14Y950D01*
X7Y949D02*
X14Y949D01*
X7Y948D02*
X14Y948D01*
X7Y947D02*
X14Y947D01*
X7Y946D02*
X14Y946D01*
X7Y945D02*
X14Y945D01*
X7Y944D02*
X14Y944D01*
X7Y943D02*
X14Y943D01*
X7Y942D02*
X14Y942D01*
X7Y941D02*
X14Y941D01*
X7Y940D02*
X14Y940D01*
X7Y939D02*
X14Y939D01*
X7Y938D02*
X14Y938D01*
X7Y937D02*
X14Y937D01*
X7Y936D02*
X14Y936D01*
X7Y935D02*
X14Y935D01*
X7Y934D02*
X14Y934D01*
X7Y933D02*
X14Y933D01*
X7Y932D02*
X14Y932D01*
X7Y931D02*
X14Y931D01*
X7Y930D02*
X14Y930D01*
X7Y929D02*
X14Y929D01*
X7Y928D02*
X14Y928D01*
X7Y927D02*
X14Y927D01*
X7Y926D02*
X14Y926D01*
X7Y925D02*
X14Y925D01*
X7Y924D02*
X14Y924D01*
X7Y923D02*
X14Y923D01*
X7Y922D02*
X14Y922D01*
X7Y921D02*
X14Y921D01*
X7Y920D02*
X14Y920D01*
X7Y919D02*
X14Y919D01*
X7Y918D02*
X14Y918D01*
X7Y917D02*
X14Y917D01*
X7Y916D02*
X14Y916D01*
X7Y915D02*
X14Y915D01*
X7Y914D02*
X14Y914D01*
X7Y913D02*
X14Y913D01*
X7Y912D02*
X14Y912D01*
X7Y911D02*
X14Y911D01*
X7Y910D02*
X14Y910D01*
X7Y909D02*
X14Y909D01*
X7Y908D02*
X14Y908D01*
X7Y907D02*
X14Y907D01*
X7Y906D02*
X14Y906D01*
X7Y905D02*
X14Y905D01*
X7Y904D02*
X14Y904D01*
X7Y903D02*
X14Y903D01*
X7Y902D02*
X14Y902D01*
X7Y901D02*
X14Y901D01*
X7Y900D02*
X14Y900D01*
X7Y899D02*
X14Y899D01*
X7Y898D02*
X14Y898D01*
X7Y897D02*
X14Y897D01*
X7Y896D02*
X14Y896D01*
X7Y895D02*
X14Y895D01*
X7Y894D02*
X14Y894D01*
X7Y893D02*
X14Y893D01*
X7Y892D02*
X14Y892D01*
X7Y891D02*
X14Y891D01*
X7Y890D02*
X14Y890D01*
X7Y889D02*
X14Y889D01*
X7Y888D02*
X14Y888D01*
X7Y887D02*
X14Y887D01*
X7Y886D02*
X14Y886D01*
X7Y885D02*
X14Y885D01*
X7Y884D02*
X14Y884D01*
X7Y883D02*
X14Y883D01*
X7Y882D02*
X14Y882D01*
X7Y881D02*
X14Y881D01*
X7Y880D02*
X14Y880D01*
X7Y879D02*
X14Y879D01*
X7Y878D02*
X14Y878D01*
X7Y877D02*
X14Y877D01*
X7Y876D02*
X14Y876D01*
X7Y875D02*
X14Y875D01*
X7Y874D02*
X14Y874D01*
X7Y873D02*
X14Y873D01*
X7Y872D02*
X14Y872D01*
X7Y871D02*
X14Y871D01*
X7Y870D02*
X14Y870D01*
X7Y869D02*
X14Y869D01*
X7Y868D02*
X14Y868D01*
X7Y867D02*
X14Y867D01*
X7Y866D02*
X14Y866D01*
X7Y865D02*
X14Y865D01*
X7Y864D02*
X14Y864D01*
X7Y863D02*
X14Y863D01*
X7Y862D02*
X14Y862D01*
X7Y861D02*
X14Y861D01*
X7Y860D02*
X14Y860D01*
X7Y859D02*
X14Y859D01*
X7Y858D02*
X14Y858D01*
X7Y857D02*
X14Y857D01*
X7Y856D02*
X14Y856D01*
X7Y855D02*
X14Y855D01*
X7Y854D02*
X14Y854D01*
X7Y853D02*
X14Y853D01*
X7Y852D02*
X14Y852D01*
X7Y851D02*
X14Y851D01*
X7Y850D02*
X14Y850D01*
X7Y849D02*
X14Y849D01*
X7Y848D02*
X14Y848D01*
X7Y847D02*
X14Y847D01*
X7Y846D02*
X14Y846D01*
X7Y845D02*
X14Y845D01*
X7Y844D02*
X14Y844D01*
X7Y843D02*
X14Y843D01*
X7Y842D02*
X14Y842D01*
X7Y841D02*
X14Y841D01*
X7Y840D02*
X14Y840D01*
X7Y839D02*
X14Y839D01*
X7Y838D02*
X14Y838D01*
X7Y837D02*
X14Y837D01*
X7Y836D02*
X14Y836D01*
X7Y835D02*
X14Y835D01*
X7Y834D02*
X14Y834D01*
X7Y833D02*
X14Y833D01*
X7Y832D02*
X14Y832D01*
X7Y831D02*
X14Y831D01*
X7Y830D02*
X14Y830D01*
X7Y829D02*
X14Y829D01*
X7Y828D02*
X14Y828D01*
X7Y827D02*
X14Y827D01*
X7Y826D02*
X14Y826D01*
X7Y825D02*
X14Y825D01*
X7Y824D02*
X14Y824D01*
X7Y823D02*
X14Y823D01*
X7Y822D02*
X14Y822D01*
X7Y821D02*
X14Y821D01*
X7Y820D02*
X14Y820D01*
X7Y819D02*
X14Y819D01*
X7Y818D02*
X14Y818D01*
X7Y817D02*
X14Y817D01*
X7Y816D02*
X14Y816D01*
X7Y815D02*
X14Y815D01*
X7Y814D02*
X14Y814D01*
X7Y813D02*
X14Y813D01*
X7Y812D02*
X14Y812D01*
X7Y811D02*
X14Y811D01*
X7Y810D02*
X14Y810D01*
X7Y809D02*
X14Y809D01*
X7Y808D02*
X14Y808D01*
X7Y807D02*
X14Y807D01*
X7Y806D02*
X14Y806D01*
X7Y805D02*
X14Y805D01*
X7Y804D02*
X14Y804D01*
X7Y803D02*
X14Y803D01*
X7Y802D02*
X14Y802D01*
X7Y801D02*
X14Y801D01*
X7Y800D02*
X14Y800D01*
X7Y799D02*
X14Y799D01*
X7Y798D02*
X14Y798D01*
X7Y797D02*
X14Y797D01*
X7Y796D02*
X14Y796D01*
X7Y795D02*
X14Y795D01*
X7Y794D02*
X14Y794D01*
X7Y793D02*
X14Y793D01*
X7Y792D02*
X14Y792D01*
X7Y791D02*
X14Y791D01*
X7Y790D02*
X14Y790D01*
X7Y789D02*
X14Y789D01*
X7Y788D02*
X14Y788D01*
X7Y787D02*
X14Y787D01*
X7Y786D02*
X14Y786D01*
X7Y785D02*
X14Y785D01*
X7Y784D02*
X14Y784D01*
X7Y783D02*
X14Y783D01*
X7Y782D02*
X14Y782D01*
X7Y781D02*
X14Y781D01*
X7Y780D02*
X14Y780D01*
X7Y779D02*
X14Y779D01*
X7Y778D02*
X14Y778D01*
X7Y777D02*
X14Y777D01*
X7Y776D02*
X14Y776D01*
X7Y775D02*
X14Y775D01*
X7Y774D02*
X14Y774D01*
X7Y773D02*
X14Y773D01*
X7Y772D02*
X14Y772D01*
X7Y771D02*
X14Y771D01*
X7Y770D02*
X14Y770D01*
X7Y769D02*
X14Y769D01*
X7Y768D02*
X14Y768D01*
X7Y767D02*
X14Y767D01*
X7Y766D02*
X14Y766D01*
X7Y765D02*
X14Y765D01*
X7Y764D02*
X14Y764D01*
X7Y763D02*
X14Y763D01*
X7Y762D02*
X14Y762D01*
X7Y761D02*
X14Y761D01*
X7Y760D02*
X14Y760D01*
X7Y759D02*
X14Y759D01*
X7Y758D02*
X14Y758D01*
X7Y757D02*
X14Y757D01*
X7Y756D02*
X14Y756D01*
X7Y755D02*
X14Y755D01*
X7Y754D02*
X14Y754D01*
X7Y753D02*
X14Y753D01*
X7Y752D02*
X14Y752D01*
X7Y751D02*
X14Y751D01*
X7Y750D02*
X14Y750D01*
X7Y749D02*
X14Y749D01*
X7Y748D02*
X14Y748D01*
X7Y747D02*
X14Y747D01*
X7Y746D02*
X14Y746D01*
X7Y745D02*
X14Y745D01*
X7Y744D02*
X14Y744D01*
X7Y743D02*
X14Y743D01*
X7Y742D02*
X14Y742D01*
X7Y741D02*
X14Y741D01*
X7Y740D02*
X14Y740D01*
X7Y739D02*
X14Y739D01*
X7Y738D02*
X14Y738D01*
X7Y737D02*
X14Y737D01*
X7Y736D02*
X14Y736D01*
X7Y735D02*
X14Y735D01*
X7Y734D02*
X14Y734D01*
X7Y733D02*
X14Y733D01*
X7Y732D02*
X14Y732D01*
X7Y731D02*
X14Y731D01*
X7Y730D02*
X14Y730D01*
X7Y729D02*
X14Y729D01*
X7Y728D02*
X14Y728D01*
X7Y727D02*
X14Y727D01*
X7Y726D02*
X14Y726D01*
X7Y725D02*
X14Y725D01*
X7Y724D02*
X14Y724D01*
X7Y723D02*
X14Y723D01*
X7Y722D02*
X14Y722D01*
X7Y721D02*
X14Y721D01*
X7Y720D02*
X14Y720D01*
X7Y719D02*
X14Y719D01*
X7Y718D02*
X14Y718D01*
X7Y717D02*
X14Y717D01*
X7Y716D02*
X14Y716D01*
X7Y715D02*
X14Y715D01*
X7Y714D02*
X14Y714D01*
X7Y713D02*
X14Y713D01*
X7Y712D02*
X14Y712D01*
X7Y711D02*
X14Y711D01*
X7Y710D02*
X14Y710D01*
X7Y709D02*
X14Y709D01*
X7Y708D02*
X14Y708D01*
X7Y707D02*
X14Y707D01*
X7Y706D02*
X14Y706D01*
X7Y705D02*
X14Y705D01*
X7Y704D02*
X14Y704D01*
X7Y703D02*
X14Y703D01*
X7Y702D02*
X14Y702D01*
X7Y701D02*
X14Y701D01*
X7Y700D02*
X14Y700D01*
X7Y699D02*
X14Y699D01*
X7Y698D02*
X14Y698D01*
X7Y697D02*
X14Y697D01*
X7Y696D02*
X14Y696D01*
X7Y695D02*
X14Y695D01*
X7Y694D02*
X14Y694D01*
X7Y693D02*
X14Y693D01*
X7Y692D02*
X14Y692D01*
X7Y691D02*
X14Y691D01*
X7Y690D02*
X14Y690D01*
X7Y689D02*
X14Y689D01*
X7Y688D02*
X14Y688D01*
X7Y687D02*
X14Y687D01*
X7Y686D02*
X14Y686D01*
X7Y685D02*
X14Y685D01*
X7Y684D02*
X14Y684D01*
X7Y683D02*
X14Y683D01*
X7Y682D02*
X14Y682D01*
X7Y681D02*
X14Y681D01*
X7Y680D02*
X14Y680D01*
X7Y679D02*
X14Y679D01*
X7Y678D02*
X14Y678D01*
X7Y677D02*
X14Y677D01*
X7Y676D02*
X14Y676D01*
X7Y675D02*
X14Y675D01*
X7Y674D02*
X14Y674D01*
X7Y673D02*
X14Y673D01*
X7Y672D02*
X14Y672D01*
X7Y671D02*
X14Y671D01*
X7Y670D02*
X14Y670D01*
X7Y669D02*
X14Y669D01*
X7Y668D02*
X14Y668D01*
X7Y667D02*
X14Y667D01*
X7Y666D02*
X14Y666D01*
X7Y665D02*
X14Y665D01*
X7Y664D02*
X14Y664D01*
X7Y663D02*
X14Y663D01*
X7Y662D02*
X14Y662D01*
X7Y661D02*
X14Y661D01*
X7Y660D02*
X14Y660D01*
X7Y659D02*
X14Y659D01*
X7Y658D02*
X14Y658D01*
X7Y657D02*
X14Y657D01*
X7Y656D02*
X14Y656D01*
X7Y655D02*
X14Y655D01*
X7Y654D02*
X14Y654D01*
X7Y653D02*
X14Y653D01*
X7Y652D02*
X14Y652D01*
X7Y651D02*
X14Y651D01*
X7Y650D02*
X14Y650D01*
X7Y649D02*
X14Y649D01*
X7Y648D02*
X14Y648D01*
X7Y647D02*
X14Y647D01*
X7Y646D02*
X14Y646D01*
X7Y645D02*
X14Y645D01*
X7Y644D02*
X14Y644D01*
X7Y643D02*
X14Y643D01*
X7Y642D02*
X14Y642D01*
X7Y641D02*
X14Y641D01*
X7Y640D02*
X14Y640D01*
X7Y639D02*
X14Y639D01*
X7Y638D02*
X14Y638D01*
X7Y637D02*
X14Y637D01*
X7Y636D02*
X14Y636D01*
X7Y635D02*
X14Y635D01*
X7Y634D02*
X14Y634D01*
X7Y633D02*
X14Y633D01*
X7Y632D02*
X14Y632D01*
X7Y631D02*
X14Y631D01*
X7Y630D02*
X14Y630D01*
X7Y629D02*
X14Y629D01*
X7Y628D02*
X14Y628D01*
X7Y627D02*
X14Y627D01*
X7Y626D02*
X14Y626D01*
X7Y625D02*
X14Y625D01*
X7Y624D02*
X14Y624D01*
X7Y623D02*
X14Y623D01*
X7Y622D02*
X14Y622D01*
X7Y621D02*
X14Y621D01*
X7Y620D02*
X14Y620D01*
X7Y619D02*
X14Y619D01*
X7Y618D02*
X14Y618D01*
X7Y617D02*
X14Y617D01*
X7Y616D02*
X14Y616D01*
X7Y615D02*
X14Y615D01*
X7Y614D02*
X14Y614D01*
X7Y613D02*
X14Y613D01*
X7Y612D02*
X14Y612D01*
X7Y611D02*
X14Y611D01*
X7Y610D02*
X14Y610D01*
X7Y609D02*
X14Y609D01*
X7Y608D02*
X14Y608D01*
X7Y607D02*
X14Y607D01*
X7Y606D02*
X14Y606D01*
X7Y605D02*
X14Y605D01*
X7Y604D02*
X14Y604D01*
X7Y603D02*
X14Y603D01*
X7Y602D02*
X14Y602D01*
X7Y601D02*
X14Y601D01*
X7Y600D02*
X14Y600D01*
X7Y599D02*
X14Y599D01*
X7Y598D02*
X14Y598D01*
X7Y597D02*
X14Y597D01*
X7Y596D02*
X14Y596D01*
X7Y595D02*
X14Y595D01*
X7Y594D02*
X14Y594D01*
X7Y593D02*
X14Y593D01*
X7Y592D02*
X14Y592D01*
X7Y591D02*
X14Y591D01*
X7Y590D02*
X14Y590D01*
X7Y589D02*
X14Y589D01*
X7Y588D02*
X14Y588D01*
X7Y587D02*
X14Y587D01*
X7Y586D02*
X14Y586D01*
X7Y585D02*
X14Y585D01*
X7Y584D02*
X14Y584D01*
X7Y583D02*
X14Y583D01*
X7Y582D02*
X14Y582D01*
X7Y581D02*
X14Y581D01*
X7Y580D02*
X14Y580D01*
X7Y579D02*
X14Y579D01*
X7Y578D02*
X14Y578D01*
X7Y577D02*
X14Y577D01*
X7Y576D02*
X14Y576D01*
X7Y575D02*
X14Y575D01*
X7Y574D02*
X14Y574D01*
X7Y573D02*
X14Y573D01*
X7Y572D02*
X14Y572D01*
X7Y571D02*
X14Y571D01*
X7Y570D02*
X14Y570D01*
X7Y569D02*
X14Y569D01*
X7Y568D02*
X14Y568D01*
X7Y567D02*
X14Y567D01*
X7Y566D02*
X14Y566D01*
X7Y565D02*
X14Y565D01*
X7Y564D02*
X14Y564D01*
X7Y563D02*
X14Y563D01*
X7Y562D02*
X14Y562D01*
X7Y561D02*
X14Y561D01*
X7Y560D02*
X14Y560D01*
X7Y559D02*
X14Y559D01*
X7Y558D02*
X14Y558D01*
X7Y557D02*
X14Y557D01*
X7Y556D02*
X14Y556D01*
X7Y555D02*
X14Y555D01*
X7Y554D02*
X14Y554D01*
X7Y553D02*
X14Y553D01*
X7Y552D02*
X14Y552D01*
X7Y551D02*
X14Y551D01*
X7Y550D02*
X14Y550D01*
X7Y549D02*
X14Y549D01*
X7Y548D02*
X14Y548D01*
X7Y547D02*
X14Y547D01*
X7Y546D02*
X14Y546D01*
X7Y545D02*
X14Y545D01*
X7Y544D02*
X14Y544D01*
X7Y543D02*
X14Y543D01*
X7Y542D02*
X14Y542D01*
X7Y541D02*
X14Y541D01*
X7Y540D02*
X14Y540D01*
X7Y539D02*
X14Y539D01*
X7Y538D02*
X14Y538D01*
X7Y537D02*
X14Y537D01*
X7Y536D02*
X14Y536D01*
X7Y535D02*
X14Y535D01*
X7Y534D02*
X14Y534D01*
X7Y533D02*
X14Y533D01*
X7Y532D02*
X14Y532D01*
X7Y531D02*
X14Y531D01*
X7Y530D02*
X14Y530D01*
X7Y529D02*
X14Y529D01*
X7Y528D02*
X14Y528D01*
X7Y527D02*
X14Y527D01*
X7Y526D02*
X14Y526D01*
X7Y525D02*
X14Y525D01*
X7Y524D02*
X14Y524D01*
X7Y523D02*
X14Y523D01*
X7Y522D02*
X14Y522D01*
X7Y521D02*
X14Y521D01*
X7Y520D02*
X14Y520D01*
X7Y519D02*
X14Y519D01*
X7Y518D02*
X14Y518D01*
X7Y517D02*
X14Y517D01*
X7Y516D02*
X14Y516D01*
X7Y515D02*
X14Y515D01*
X7Y514D02*
X14Y514D01*
X7Y513D02*
X14Y513D01*
X7Y512D02*
X14Y512D01*
X7Y511D02*
X14Y511D01*
X7Y510D02*
X14Y510D01*
X7Y509D02*
X14Y509D01*
X7Y508D02*
X14Y508D01*
X7Y507D02*
X14Y507D01*
X7Y506D02*
X14Y506D01*
X7Y505D02*
X14Y505D01*
X7Y504D02*
X14Y504D01*
X7Y503D02*
X14Y503D01*
X7Y502D02*
X14Y502D01*
X7Y501D02*
X14Y501D01*
X7Y500D02*
X14Y500D01*
X7Y499D02*
X14Y499D01*
X7Y498D02*
X14Y498D01*
X7Y497D02*
X14Y497D01*
X7Y496D02*
X14Y496D01*
X7Y495D02*
X14Y495D01*
X7Y494D02*
X14Y494D01*
X7Y493D02*
X14Y493D01*
X7Y492D02*
X14Y492D01*
X7Y491D02*
X14Y491D01*
X7Y490D02*
X14Y490D01*
X7Y489D02*
X14Y489D01*
X7Y488D02*
X14Y488D01*
X7Y487D02*
X14Y487D01*
X7Y486D02*
X14Y486D01*
X7Y485D02*
X14Y485D01*
X7Y484D02*
X14Y484D01*
X7Y483D02*
X14Y483D01*
X7Y482D02*
X14Y482D01*
X7Y481D02*
X14Y481D01*
X7Y480D02*
X14Y480D01*
X7Y479D02*
X14Y479D01*
X7Y478D02*
X14Y478D01*
X7Y477D02*
X14Y477D01*
X7Y476D02*
X14Y476D01*
X7Y475D02*
X14Y475D01*
X7Y474D02*
X14Y474D01*
X7Y473D02*
X14Y473D01*
X7Y472D02*
X14Y472D01*
X7Y471D02*
X14Y471D01*
X7Y470D02*
X14Y470D01*
X7Y469D02*
X14Y469D01*
X7Y468D02*
X14Y468D01*
X7Y467D02*
X14Y467D01*
X7Y466D02*
X14Y466D01*
X7Y465D02*
X14Y465D01*
X7Y464D02*
X14Y464D01*
X7Y463D02*
X14Y463D01*
X7Y462D02*
X14Y462D01*
X7Y461D02*
X14Y461D01*
X7Y460D02*
X14Y460D01*
X7Y459D02*
X14Y459D01*
X7Y458D02*
X14Y458D01*
X7Y457D02*
X14Y457D01*
X7Y456D02*
X14Y456D01*
X7Y455D02*
X14Y455D01*
X7Y454D02*
X14Y454D01*
X7Y453D02*
X14Y453D01*
X7Y452D02*
X14Y452D01*
X7Y451D02*
X14Y451D01*
X7Y450D02*
X14Y450D01*
X7Y449D02*
X14Y449D01*
X7Y448D02*
X14Y448D01*
X7Y447D02*
X14Y447D01*
X7Y446D02*
X14Y446D01*
X7Y445D02*
X14Y445D01*
X7Y444D02*
X14Y444D01*
X7Y443D02*
X14Y443D01*
X7Y442D02*
X14Y442D01*
X7Y441D02*
X14Y441D01*
X7Y440D02*
X14Y440D01*
X7Y439D02*
X14Y439D01*
X7Y438D02*
X14Y438D01*
X7Y437D02*
X14Y437D01*
X7Y436D02*
X14Y436D01*
X7Y435D02*
X14Y435D01*
X7Y434D02*
X14Y434D01*
X7Y433D02*
X14Y433D01*
X7Y432D02*
X14Y432D01*
X7Y431D02*
X14Y431D01*
X7Y430D02*
X14Y430D01*
X7Y429D02*
X14Y429D01*
X7Y428D02*
X14Y428D01*
X7Y427D02*
X14Y427D01*
X7Y426D02*
X14Y426D01*
X7Y425D02*
X14Y425D01*
X7Y424D02*
X14Y424D01*
X7Y423D02*
X14Y423D01*
X7Y422D02*
X14Y422D01*
X7Y421D02*
X14Y421D01*
X7Y420D02*
X14Y420D01*
X7Y419D02*
X14Y419D01*
X7Y418D02*
X14Y418D01*
X7Y417D02*
X14Y417D01*
X7Y416D02*
X14Y416D01*
X7Y415D02*
X14Y415D01*
X7Y414D02*
X14Y414D01*
X7Y413D02*
X14Y413D01*
X7Y412D02*
X14Y412D01*
X7Y411D02*
X14Y411D01*
X7Y410D02*
X14Y410D01*
X7Y409D02*
X14Y409D01*
X7Y408D02*
X14Y408D01*
X7Y407D02*
X14Y407D01*
X7Y406D02*
X14Y406D01*
X7Y405D02*
X14Y405D01*
X7Y404D02*
X14Y404D01*
X7Y403D02*
X14Y403D01*
X7Y402D02*
X14Y402D01*
X7Y401D02*
X14Y401D01*
X7Y400D02*
X14Y400D01*
X7Y399D02*
X14Y399D01*
X7Y398D02*
X14Y398D01*
X7Y397D02*
X14Y397D01*
X7Y396D02*
X14Y396D01*
X7Y395D02*
X14Y395D01*
X7Y394D02*
X14Y394D01*
X7Y393D02*
X14Y393D01*
X7Y392D02*
X14Y392D01*
X7Y391D02*
X14Y391D01*
X7Y390D02*
X14Y390D01*
X7Y389D02*
X14Y389D01*
X7Y388D02*
X14Y388D01*
X7Y387D02*
X14Y387D01*
X7Y386D02*
X14Y386D01*
X7Y385D02*
X14Y385D01*
X7Y384D02*
X14Y384D01*
X7Y383D02*
X14Y383D01*
X7Y382D02*
X14Y382D01*
X7Y381D02*
X14Y381D01*
X7Y380D02*
X14Y380D01*
X7Y379D02*
X14Y379D01*
X7Y378D02*
X14Y378D01*
X7Y377D02*
X14Y377D01*
X7Y376D02*
X14Y376D01*
X7Y375D02*
X14Y375D01*
X7Y374D02*
X14Y374D01*
X7Y373D02*
X14Y373D01*
X7Y372D02*
X14Y372D01*
X7Y371D02*
X14Y371D01*
X7Y370D02*
X14Y370D01*
X7Y369D02*
X14Y369D01*
X7Y368D02*
X14Y368D01*
X7Y367D02*
X14Y367D01*
X7Y366D02*
X14Y366D01*
X7Y365D02*
X14Y365D01*
X7Y364D02*
X14Y364D01*
X7Y363D02*
X14Y363D01*
X7Y362D02*
X14Y362D01*
X7Y361D02*
X14Y361D01*
X7Y360D02*
X14Y360D01*
X7Y359D02*
X14Y359D01*
X7Y358D02*
X14Y358D01*
X7Y357D02*
X14Y357D01*
X7Y356D02*
X14Y356D01*
X7Y355D02*
X14Y355D01*
X7Y354D02*
X14Y354D01*
X7Y353D02*
X14Y353D01*
X7Y352D02*
X14Y352D01*
X7Y351D02*
X14Y351D01*
X7Y350D02*
X14Y350D01*
X7Y349D02*
X14Y349D01*
X7Y348D02*
X14Y348D01*
X7Y347D02*
X14Y347D01*
X7Y346D02*
X14Y346D01*
X7Y345D02*
X14Y345D01*
X7Y344D02*
X14Y344D01*
X7Y343D02*
X14Y343D01*
X7Y342D02*
X14Y342D01*
X7Y341D02*
X14Y341D01*
X7Y340D02*
X14Y340D01*
X7Y339D02*
X14Y339D01*
X7Y338D02*
X14Y338D01*
X7Y337D02*
X14Y337D01*
X7Y336D02*
X14Y336D01*
X7Y335D02*
X14Y335D01*
X7Y334D02*
X14Y334D01*
X7Y333D02*
X14Y333D01*
X7Y332D02*
X14Y332D01*
X7Y331D02*
X14Y331D01*
X7Y330D02*
X14Y330D01*
X7Y329D02*
X14Y329D01*
X7Y328D02*
X14Y328D01*
X7Y327D02*
X14Y327D01*
X7Y326D02*
X14Y326D01*
X7Y325D02*
X14Y325D01*
X7Y324D02*
X14Y324D01*
X7Y323D02*
X14Y323D01*
X7Y322D02*
X14Y322D01*
X7Y321D02*
X14Y321D01*
X7Y320D02*
X14Y320D01*
X7Y319D02*
X14Y319D01*
X7Y318D02*
X14Y318D01*
X7Y317D02*
X14Y317D01*
X7Y316D02*
X14Y316D01*
X7Y315D02*
X14Y315D01*
X7Y314D02*
X14Y314D01*
X7Y313D02*
X14Y313D01*
X7Y312D02*
X14Y312D01*
X7Y311D02*
X14Y311D01*
X7Y310D02*
X14Y310D01*
X7Y309D02*
X14Y309D01*
X7Y308D02*
X14Y308D01*
X7Y307D02*
X14Y307D01*
X7Y306D02*
X14Y306D01*
X7Y305D02*
X14Y305D01*
X7Y304D02*
X14Y304D01*
X7Y303D02*
X14Y303D01*
X7Y302D02*
X14Y302D01*
X7Y301D02*
X14Y301D01*
X7Y300D02*
X14Y300D01*
X7Y299D02*
X14Y299D01*
X7Y298D02*
X14Y298D01*
X7Y297D02*
X14Y297D01*
X7Y296D02*
X14Y296D01*
X7Y295D02*
X14Y295D01*
X7Y294D02*
X14Y294D01*
X7Y293D02*
X14Y293D01*
X7Y292D02*
X14Y292D01*
X7Y291D02*
X14Y291D01*
X7Y290D02*
X14Y290D01*
X7Y289D02*
X14Y289D01*
X7Y288D02*
X14Y288D01*
X7Y287D02*
X14Y287D01*
X7Y286D02*
X14Y286D01*
X7Y285D02*
X14Y285D01*
X7Y284D02*
X14Y284D01*
X7Y283D02*
X14Y283D01*
X7Y282D02*
X14Y282D01*
X7Y281D02*
X14Y281D01*
X7Y280D02*
X14Y280D01*
X7Y279D02*
X14Y279D01*
X7Y278D02*
X14Y278D01*
X7Y277D02*
X14Y277D01*
X7Y276D02*
X14Y276D01*
X7Y275D02*
X14Y275D01*
X7Y274D02*
X14Y274D01*
X7Y273D02*
X14Y273D01*
X7Y272D02*
X14Y272D01*
X7Y271D02*
X14Y271D01*
X7Y270D02*
X14Y270D01*
X7Y269D02*
X14Y269D01*
X7Y268D02*
X14Y268D01*
X7Y267D02*
X14Y267D01*
X7Y266D02*
X14Y266D01*
X7Y265D02*
X14Y265D01*
X7Y264D02*
X14Y264D01*
X7Y263D02*
X14Y263D01*
X7Y262D02*
X14Y262D01*
X7Y261D02*
X14Y261D01*
X7Y260D02*
X14Y260D01*
X7Y259D02*
X14Y259D01*
X7Y258D02*
X14Y258D01*
X7Y257D02*
X14Y257D01*
X7Y256D02*
X14Y256D01*
X7Y255D02*
X14Y255D01*
X7Y254D02*
X14Y254D01*
X7Y253D02*
X14Y253D01*
X7Y252D02*
X14Y252D01*
X7Y251D02*
X14Y251D01*
X7Y250D02*
X14Y250D01*
X7Y249D02*
X14Y249D01*
X7Y248D02*
X14Y248D01*
X7Y247D02*
X14Y247D01*
X7Y246D02*
X14Y246D01*
X7Y245D02*
X14Y245D01*
X7Y244D02*
X14Y244D01*
X7Y243D02*
X14Y243D01*
X7Y242D02*
X14Y242D01*
X7Y241D02*
X14Y241D01*
X7Y240D02*
X14Y240D01*
X7Y239D02*
X14Y239D01*
X7Y238D02*
X14Y238D01*
X7Y237D02*
X14Y237D01*
X7Y236D02*
X14Y236D01*
X7Y235D02*
X14Y235D01*
X7Y234D02*
X14Y234D01*
X7Y233D02*
X14Y233D01*
X7Y232D02*
X14Y232D01*
X7Y231D02*
X14Y231D01*
X7Y230D02*
X14Y230D01*
X7Y229D02*
X14Y229D01*
X7Y228D02*
X14Y228D01*
X7Y227D02*
X14Y227D01*
X7Y226D02*
X14Y226D01*
X7Y225D02*
X14Y225D01*
X7Y224D02*
X14Y224D01*
X7Y223D02*
X14Y223D01*
X7Y222D02*
X14Y222D01*
X7Y221D02*
X14Y221D01*
X7Y220D02*
X14Y220D01*
X7Y219D02*
X14Y219D01*
X7Y218D02*
X14Y218D01*
X7Y217D02*
X14Y217D01*
X7Y216D02*
X14Y216D01*
X7Y215D02*
X14Y215D01*
X7Y214D02*
X14Y214D01*
X7Y213D02*
X14Y213D01*
X7Y212D02*
X14Y212D01*
X7Y211D02*
X14Y211D01*
X7Y210D02*
X14Y210D01*
X7Y209D02*
X14Y209D01*
X7Y208D02*
X14Y208D01*
X7Y207D02*
X14Y207D01*
X7Y206D02*
X14Y206D01*
X7Y205D02*
X14Y205D01*
X7Y204D02*
X14Y204D01*
X7Y203D02*
X14Y203D01*
X7Y202D02*
X14Y202D01*
X7Y201D02*
X14Y201D01*
X7Y200D02*
X14Y200D01*
X7Y199D02*
X14Y199D01*
X7Y198D02*
X14Y198D01*
X7Y197D02*
X14Y197D01*
X7Y196D02*
X14Y196D01*
X7Y195D02*
X14Y195D01*
X7Y194D02*
X14Y194D01*
X7Y193D02*
X14Y193D01*
X7Y192D02*
X14Y192D01*
X7Y191D02*
X14Y191D01*
X7Y190D02*
X14Y190D01*
X7Y189D02*
X14Y189D01*
X7Y188D02*
X14Y188D01*
X7Y187D02*
X14Y187D01*
X7Y186D02*
X14Y186D01*
X7Y185D02*
X14Y185D01*
X7Y184D02*
X14Y184D01*
X7Y183D02*
X14Y183D01*
X7Y182D02*
X14Y182D01*
X7Y181D02*
X14Y181D01*
X7Y180D02*
X14Y180D01*
X7Y179D02*
X14Y179D01*
X7Y178D02*
X14Y178D01*
X7Y177D02*
X14Y177D01*
X7Y176D02*
X14Y176D01*
X7Y175D02*
X14Y175D01*
X7Y174D02*
X14Y174D01*
X7Y173D02*
X14Y173D01*
X7Y172D02*
X14Y172D01*
X7Y171D02*
X14Y171D01*
X7Y170D02*
X14Y170D01*
X7Y169D02*
X14Y169D01*
X7Y168D02*
X14Y168D01*
X7Y167D02*
X14Y167D01*
X7Y166D02*
X14Y166D01*
X7Y165D02*
X14Y165D01*
X7Y164D02*
X14Y164D01*
X7Y163D02*
X14Y163D01*
X7Y162D02*
X14Y162D01*
X7Y161D02*
X14Y161D01*
X7Y160D02*
X14Y160D01*
X7Y159D02*
X14Y159D01*
X7Y158D02*
X14Y158D01*
X7Y157D02*
X14Y157D01*
X7Y156D02*
X14Y156D01*
X7Y155D02*
X14Y155D01*
X7Y154D02*
X14Y154D01*
X7Y153D02*
X14Y153D01*
X7Y152D02*
X14Y152D01*
X7Y151D02*
X14Y151D01*
X7Y150D02*
X14Y150D01*
X7Y149D02*
X14Y149D01*
X7Y148D02*
X14Y148D01*
X7Y147D02*
X14Y147D01*
X7Y146D02*
X14Y146D01*
X7Y145D02*
X14Y145D01*
X7Y144D02*
X14Y144D01*
X7Y143D02*
X14Y143D01*
X7Y142D02*
X14Y142D01*
X7Y141D02*
X14Y141D01*
X7Y140D02*
X14Y140D01*
X7Y139D02*
X14Y139D01*
X7Y138D02*
X14Y138D01*
X7Y137D02*
X14Y137D01*
X7Y136D02*
X14Y136D01*
X7Y135D02*
X14Y135D01*
X7Y134D02*
X14Y134D01*
X7Y133D02*
X14Y133D01*
X7Y132D02*
X14Y132D01*
X7Y131D02*
X14Y131D01*
X7Y130D02*
X14Y130D01*
X7Y129D02*
X14Y129D01*
X7Y128D02*
X14Y128D01*
X7Y127D02*
X14Y127D01*
X7Y126D02*
X14Y126D01*
X7Y125D02*
X14Y125D01*
X7Y124D02*
X14Y124D01*
X7Y123D02*
X14Y123D01*
X7Y122D02*
X14Y122D01*
X7Y121D02*
X14Y121D01*
X7Y120D02*
X14Y120D01*
X7Y119D02*
X14Y119D01*
X7Y118D02*
X14Y118D01*
X7Y117D02*
X14Y117D01*
X7Y116D02*
X14Y116D01*
X7Y115D02*
X14Y115D01*
X7Y114D02*
X14Y114D01*
X7Y113D02*
X14Y113D01*
X7Y112D02*
X14Y112D01*
X7Y111D02*
X14Y111D01*
X7Y110D02*
X14Y110D01*
X7Y109D02*
X14Y109D01*
X7Y108D02*
X14Y108D01*
X7Y107D02*
X14Y107D01*
X7Y106D02*
X14Y106D01*
X7Y105D02*
X14Y105D01*
X7Y104D02*
X14Y104D01*
X7Y103D02*
X14Y103D01*
X7Y102D02*
X14Y102D01*
X7Y101D02*
X14Y101D01*
X7Y100D02*
X14Y100D01*
X7Y99D02*
X14Y99D01*
X7Y98D02*
X14Y98D01*
X7Y97D02*
X14Y97D01*
X7Y96D02*
X14Y96D01*
X7Y95D02*
X14Y95D01*
X7Y94D02*
X14Y94D01*
X7Y93D02*
X14Y93D01*
X7Y92D02*
X14Y92D01*
X7Y91D02*
X14Y91D01*
X7Y90D02*
X14Y90D01*
X7Y89D02*
X14Y89D01*
X7Y88D02*
X14Y88D01*
X7Y87D02*
X14Y87D01*
X7Y86D02*
X14Y86D01*
X7Y85D02*
X14Y85D01*
X7Y84D02*
X14Y84D01*
X7Y83D02*
X14Y83D01*
X7Y82D02*
X14Y82D01*
X7Y81D02*
X14Y81D01*
X7Y80D02*
X14Y80D01*
X7Y79D02*
X14Y79D01*
X7Y78D02*
X14Y78D01*
X7Y77D02*
X14Y77D01*
X7Y76D02*
X14Y76D01*
X7Y75D02*
X14Y75D01*
X7Y74D02*
X14Y74D01*
X7Y73D02*
X14Y73D01*
X7Y72D02*
X14Y72D01*
X7Y71D02*
X14Y71D01*
X7Y70D02*
X14Y70D01*
X7Y69D02*
X14Y69D01*
X7Y68D02*
X14Y68D01*
X7Y67D02*
X14Y67D01*
X7Y66D02*
X14Y66D01*
X7Y65D02*
X14Y65D01*
X7Y64D02*
X14Y64D01*
X7Y63D02*
X14Y63D01*
X7Y62D02*
X14Y62D01*
X7Y61D02*
X14Y61D01*
X7Y60D02*
X14Y60D01*
X7Y59D02*
X14Y59D01*
X7Y58D02*
X14Y58D01*
X7Y57D02*
X14Y57D01*
X7Y56D02*
X14Y56D01*
X7Y55D02*
X14Y55D01*
X7Y54D02*
X14Y54D01*
X7Y53D02*
X14Y53D01*
X7Y52D02*
X14Y52D01*
X7Y51D02*
X14Y51D01*
X7Y50D02*
X14Y50D01*
X7Y49D02*
X14Y49D01*
X7Y48D02*
X14Y48D01*
X7Y47D02*
X14Y47D01*
X7Y46D02*
X14Y46D01*
X7Y45D02*
X14Y45D01*
X7Y44D02*
X14Y44D01*
X7Y43D02*
X14Y43D01*
X7Y42D02*
X14Y42D01*
X7Y41D02*
X14Y41D01*
X7Y40D02*
X14Y40D01*
X7Y39D02*
X14Y39D01*
X7Y38D02*
X14Y38D01*
X7Y37D02*
X14Y37D01*
X7Y36D02*
X14Y36D01*
X7Y35D02*
X14Y35D01*
X7Y34D02*
X14Y34D01*
X7Y33D02*
X14Y33D01*
X7Y32D02*
X14Y32D01*
X7Y31D02*
X14Y31D01*
X7Y30D02*
X14Y30D01*
X7Y29D02*
X14Y29D01*
X7Y28D02*
X14Y28D01*
X7Y27D02*
X14Y27D01*
X7Y26D02*
X14Y26D01*
X7Y25D02*
X14Y25D01*
X7Y24D02*
X14Y24D01*
X7Y23D02*
X14Y23D01*
X7Y22D02*
X14Y22D01*
X7Y21D02*
X14Y21D01*
X7Y20D02*
X14Y20D01*
X7Y19D02*
X14Y19D01*
X7Y18D02*
X14Y18D01*
X7Y17D02*
X14Y17D01*
X7Y16D02*
X14Y16D01*
X7Y15D02*
X14Y15D01*
X7Y14D02*
X14Y14D01*
X7Y13D02*
X14Y13D01*
X7Y12D02*
X14Y12D01*
X7Y11D02*
X14Y11D01*
X7Y10D02*
X14Y10D01*
X7Y9D02*
X14Y9D01*
X7Y8D02*
X14Y8D01*
X7Y7D02*
X14Y7D01*
X7Y6D02*
X14Y6D01*
X7Y5D02*
X14Y5D01*
X7Y4D02*
X14Y4D01*
X7Y3D02*
X14Y3D01*
D02*
G04 End of Silk0*
M02*