M48
INCH
T10C0.038000
T11C0.035000
%
T10
X013007Y003046
X013007Y004046
X013007Y005046
X013007Y006046
X013007Y007046
X013007Y008046
T11
X006111Y006794
X010111Y006794
X006111Y008239
X010111Y008239
X004111Y002127
X001111Y002127
X004111Y003127
X001111Y003127
X004111Y004127
X001111Y004127
X004111Y005127
X001111Y005127
X004111Y006127
X001111Y006127
X004111Y007127
X001111Y007127
X004111Y008127
X001111Y008127
T00
M30
