G04 MADE WITH FRITZING*
G04 WWW.FRITZING.ORG*
G04 DOUBLE SIDED*
G04 HOLES PLATED*
G04 CONTOUR ON CENTER OF CONTOUR VECTOR*
%ASAXBY*%
%FSLAX23Y23*%
%MOIN*%
%OFA0B0*%
%SFA1.0B1.0*%
%ADD10C,0.078000*%
%ADD11C,0.075000*%
%ADD12R,0.075000X0.075000*%
%ADD13C,0.024000*%
%LNCOPPER1*%
G90*
G70*
G54D10*
X1301Y805D03*
X1301Y705D03*
X1301Y605D03*
X1301Y505D03*
X1301Y405D03*
X1301Y305D03*
G54D11*
X111Y813D03*
X411Y813D03*
X111Y713D03*
X411Y713D03*
X111Y613D03*
X411Y613D03*
X111Y513D03*
X411Y513D03*
X111Y413D03*
X411Y413D03*
X111Y313D03*
X411Y313D03*
X111Y213D03*
X411Y213D03*
X1011Y824D03*
X611Y824D03*
X1011Y679D03*
X611Y679D03*
G54D12*
X111Y813D03*
G54D13*
X331Y711D02*
X331Y882D01*
D02*
X140Y713D02*
X331Y711D01*
D02*
X1040Y682D02*
X1271Y702D01*
D02*
X289Y213D02*
X287Y144D01*
D02*
X287Y144D02*
X469Y139D01*
D02*
X140Y213D02*
X289Y213D01*
D02*
X613Y877D02*
X612Y852D01*
D02*
X331Y882D02*
X613Y877D01*
D02*
X1376Y495D02*
X1331Y501D01*
D02*
X1364Y124D02*
X1376Y495D01*
D02*
X469Y139D02*
X1364Y124D01*
G04 End of Copper1*
M02*