G04 MADE WITH FRITZING*
G04 WWW.FRITZING.ORG*
G04 DOUBLE SIDED*
G04 HOLES PLATED*
G04 CONTOUR ON CENTER OF CONTOUR VECTOR*
%ASAXBY*%
%FSLAX23Y23*%
%MOIN*%
%OFA0B0*%
%SFA1.0B1.0*%
%ADD10C,0.010000*%
%ADD11R,0.001000X0.001000*%
%LNSILK1*%
G90*
G70*
G54D10*
X61Y863D02*
X61Y163D01*
D02*
X61Y163D02*
X461Y163D01*
D02*
X461Y163D02*
X461Y863D01*
D02*
X61Y863D02*
X211Y863D01*
D02*
X311Y863D02*
X461Y863D01*
D02*
X902Y791D02*
X702Y791D01*
D02*
X702Y791D02*
X702Y857D01*
D02*
X702Y857D02*
X902Y857D01*
D02*
X902Y857D02*
X902Y791D01*
D02*
X902Y646D02*
X702Y646D01*
D02*
X702Y646D02*
X702Y712D01*
D02*
X702Y712D02*
X902Y712D01*
D02*
X902Y712D02*
X902Y646D01*
G36*
X525Y537D02*
X525Y536D01*
X522Y536D01*
X522Y535D01*
X521Y535D01*
X521Y534D01*
X529Y534D01*
X529Y533D01*
X530Y533D01*
X530Y532D01*
X531Y532D01*
X531Y531D01*
X532Y531D01*
X532Y527D01*
X531Y527D01*
X531Y526D01*
X530Y526D01*
X530Y525D01*
X529Y525D01*
X529Y524D01*
X528Y524D01*
X528Y523D01*
X531Y523D01*
X531Y524D01*
X532Y524D01*
X532Y526D01*
X533Y526D01*
X533Y528D01*
X534Y528D01*
X534Y529D01*
X533Y529D01*
X533Y532D01*
X532Y532D01*
X532Y533D01*
X531Y533D01*
X531Y534D01*
X530Y534D01*
X530Y535D01*
X529Y535D01*
X529Y536D01*
X527Y536D01*
X527Y537D01*
X525Y537D01*
G37*
D02*
G36*
X520Y534D02*
X520Y533D01*
X519Y533D01*
X519Y531D01*
X518Y531D01*
X518Y527D01*
X519Y527D01*
X519Y525D01*
X520Y525D01*
X520Y523D01*
X524Y523D01*
X524Y524D01*
X523Y524D01*
X523Y525D01*
X522Y525D01*
X522Y526D01*
X521Y526D01*
X521Y531D01*
X522Y531D01*
X522Y533D01*
X524Y533D01*
X524Y534D01*
X520Y534D01*
G37*
D02*
G36*
X522Y523D02*
X522Y522D01*
X530Y522D01*
X530Y523D01*
X522Y523D01*
G37*
D02*
G36*
X522Y523D02*
X522Y522D01*
X530Y522D01*
X530Y523D01*
X522Y523D01*
G37*
D02*
G36*
X524Y522D02*
X524Y521D01*
X527Y521D01*
X527Y522D01*
X524Y522D01*
G37*
D02*
G36*
X1250Y523D02*
X1250Y522D01*
X1195Y522D01*
X1195Y519D01*
X1194Y519D01*
X1194Y512D01*
X1193Y512D01*
X1193Y504D01*
X1192Y504D01*
X1192Y503D01*
X1231Y503D01*
X1231Y502D01*
X1232Y502D01*
X1232Y499D01*
X1231Y499D01*
X1231Y492D01*
X1230Y492D01*
X1230Y485D01*
X1229Y485D01*
X1229Y478D01*
X1228Y478D01*
X1228Y471D01*
X1227Y471D01*
X1227Y464D01*
X1226Y464D01*
X1226Y456D01*
X1225Y456D01*
X1225Y448D01*
X1224Y448D01*
X1224Y441D01*
X1223Y441D01*
X1223Y434D01*
X1222Y434D01*
X1222Y427D01*
X1221Y427D01*
X1221Y420D01*
X1220Y420D01*
X1220Y413D01*
X1219Y413D01*
X1219Y405D01*
X1218Y405D01*
X1218Y398D01*
X1217Y398D01*
X1217Y391D01*
X1216Y391D01*
X1216Y384D01*
X1215Y384D01*
X1215Y377D01*
X1214Y377D01*
X1214Y369D01*
X1213Y369D01*
X1213Y362D01*
X1212Y362D01*
X1212Y357D01*
X1211Y357D01*
X1211Y354D01*
X1210Y354D01*
X1210Y347D01*
X1209Y347D01*
X1209Y343D01*
X1210Y343D01*
X1210Y340D01*
X1209Y340D01*
X1209Y333D01*
X1208Y333D01*
X1208Y326D01*
X1207Y326D01*
X1207Y319D01*
X1206Y319D01*
X1206Y312D01*
X1205Y312D01*
X1205Y304D01*
X1204Y304D01*
X1204Y297D01*
X1203Y297D01*
X1203Y289D01*
X1201Y289D01*
X1201Y282D01*
X1200Y282D01*
X1200Y275D01*
X1199Y275D01*
X1199Y268D01*
X1198Y268D01*
X1198Y267D01*
X1197Y267D01*
X1197Y266D01*
X1160Y266D01*
X1160Y264D01*
X1159Y264D01*
X1159Y255D01*
X1158Y255D01*
X1158Y247D01*
X1219Y247D01*
X1219Y249D01*
X1220Y249D01*
X1220Y257D01*
X1221Y257D01*
X1221Y264D01*
X1222Y264D01*
X1222Y271D01*
X1223Y271D01*
X1223Y278D01*
X1224Y278D01*
X1224Y286D01*
X1225Y286D01*
X1225Y293D01*
X1226Y293D01*
X1226Y300D01*
X1227Y300D01*
X1227Y308D01*
X1228Y308D01*
X1228Y315D01*
X1229Y315D01*
X1229Y322D01*
X1230Y322D01*
X1230Y329D01*
X1231Y329D01*
X1231Y336D01*
X1232Y336D01*
X1232Y343D01*
X1233Y343D01*
X1233Y349D01*
X1234Y349D01*
X1234Y356D01*
X1235Y356D01*
X1235Y364D01*
X1236Y364D01*
X1236Y371D01*
X1237Y371D01*
X1237Y380D01*
X1238Y380D01*
X1238Y387D01*
X1239Y387D01*
X1239Y394D01*
X1240Y394D01*
X1240Y401D01*
X1241Y401D01*
X1241Y408D01*
X1242Y408D01*
X1242Y416D01*
X1243Y416D01*
X1243Y423D01*
X1244Y423D01*
X1244Y430D01*
X1245Y430D01*
X1245Y438D01*
X1246Y438D01*
X1246Y445D01*
X1247Y445D01*
X1247Y452D01*
X1248Y452D01*
X1248Y459D01*
X1249Y459D01*
X1249Y467D01*
X1250Y467D01*
X1250Y474D01*
X1251Y474D01*
X1251Y481D01*
X1252Y481D01*
X1252Y488D01*
X1254Y488D01*
X1254Y495D01*
X1255Y495D01*
X1255Y502D01*
X1256Y502D01*
X1256Y510D01*
X1257Y510D01*
X1257Y518D01*
X1258Y518D01*
X1258Y523D01*
X1250Y523D01*
G37*
D02*
G36*
X797Y512D02*
X797Y510D01*
X798Y510D01*
X798Y512D01*
X797Y512D01*
G37*
D02*
G36*
X790Y505D02*
X790Y504D01*
X791Y504D01*
X791Y505D01*
X790Y505D01*
G37*
D02*
G36*
X761Y469D02*
X761Y468D01*
X762Y468D01*
X762Y469D01*
X761Y469D01*
G37*
D02*
G36*
X760Y468D02*
X760Y467D01*
X761Y467D01*
X761Y468D01*
X760Y468D01*
G37*
D02*
G36*
X749Y467D02*
X749Y466D01*
X738Y466D01*
X738Y465D01*
X757Y465D01*
X757Y463D01*
X758Y463D01*
X758Y465D01*
X759Y465D01*
X759Y466D01*
X760Y466D01*
X760Y467D01*
X749Y467D01*
G37*
D02*
G36*
X732Y465D02*
X732Y464D01*
X727Y464D01*
X727Y463D01*
X723Y463D01*
X723Y462D01*
X719Y462D01*
X719Y461D01*
X716Y461D01*
X716Y459D01*
X713Y459D01*
X713Y458D01*
X710Y458D01*
X710Y457D01*
X707Y457D01*
X707Y456D01*
X704Y456D01*
X704Y455D01*
X702Y455D01*
X702Y454D01*
X699Y454D01*
X699Y453D01*
X697Y453D01*
X697Y452D01*
X695Y452D01*
X695Y451D01*
X693Y451D01*
X693Y450D01*
X690Y450D01*
X690Y449D01*
X688Y449D01*
X688Y448D01*
X686Y448D01*
X686Y447D01*
X684Y447D01*
X684Y446D01*
X683Y446D01*
X683Y445D01*
X685Y445D01*
X685Y446D01*
X687Y446D01*
X687Y447D01*
X689Y447D01*
X689Y448D01*
X691Y448D01*
X691Y449D01*
X694Y449D01*
X694Y450D01*
X696Y450D01*
X696Y451D01*
X698Y451D01*
X698Y452D01*
X700Y452D01*
X700Y453D01*
X703Y453D01*
X703Y454D01*
X705Y454D01*
X705Y455D01*
X708Y455D01*
X708Y456D01*
X711Y456D01*
X711Y457D01*
X714Y457D01*
X714Y458D01*
X718Y458D01*
X718Y459D01*
X722Y459D01*
X722Y461D01*
X726Y461D01*
X726Y462D01*
X732Y462D01*
X732Y463D01*
X739Y463D01*
X739Y464D01*
X754Y464D01*
X754Y465D01*
X732Y465D01*
G37*
D02*
G36*
X765Y464D02*
X765Y463D01*
X766Y463D01*
X766Y464D01*
X765Y464D01*
G37*
D02*
G36*
X772Y446D02*
X772Y445D01*
X773Y445D01*
X773Y446D01*
X772Y446D01*
G37*
D02*
G36*
X681Y445D02*
X681Y444D01*
X679Y444D01*
X679Y443D01*
X678Y443D01*
X678Y442D01*
X680Y442D01*
X680Y443D01*
X682Y443D01*
X682Y444D01*
X683Y444D01*
X683Y445D01*
X681Y445D01*
G37*
D02*
G36*
X676Y442D02*
X676Y441D01*
X675Y441D01*
X675Y440D01*
X677Y440D01*
X677Y441D01*
X678Y441D01*
X678Y442D01*
X676Y442D01*
G37*
D02*
G36*
X673Y440D02*
X673Y439D01*
X672Y439D01*
X672Y438D01*
X674Y438D01*
X674Y439D01*
X675Y439D01*
X675Y440D01*
X673Y440D01*
G37*
D02*
G36*
X670Y438D02*
X670Y437D01*
X669Y437D01*
X669Y436D01*
X668Y436D01*
X668Y435D01*
X670Y435D01*
X670Y436D01*
X671Y436D01*
X671Y437D01*
X672Y437D01*
X672Y438D01*
X670Y438D01*
G37*
D02*
G36*
X493Y435D02*
X493Y434D01*
X492Y434D01*
X492Y427D01*
X491Y427D01*
X491Y420D01*
X490Y420D01*
X490Y413D01*
X489Y413D01*
X489Y405D01*
X488Y405D01*
X488Y398D01*
X486Y398D01*
X486Y391D01*
X485Y391D01*
X485Y384D01*
X484Y384D01*
X484Y376D01*
X483Y376D01*
X483Y369D01*
X482Y369D01*
X482Y362D01*
X481Y362D01*
X481Y354D01*
X480Y354D01*
X480Y347D01*
X479Y347D01*
X479Y340D01*
X478Y340D01*
X478Y333D01*
X477Y333D01*
X477Y326D01*
X476Y326D01*
X476Y319D01*
X475Y319D01*
X475Y311D01*
X474Y311D01*
X474Y303D01*
X473Y303D01*
X473Y296D01*
X472Y296D01*
X472Y289D01*
X471Y289D01*
X471Y282D01*
X470Y282D01*
X470Y275D01*
X469Y275D01*
X469Y268D01*
X468Y268D01*
X468Y261D01*
X467Y261D01*
X467Y252D01*
X507Y252D01*
X507Y253D01*
X508Y253D01*
X508Y261D01*
X509Y261D01*
X509Y265D01*
X483Y265D01*
X483Y273D01*
X484Y273D01*
X484Y281D01*
X485Y281D01*
X485Y288D01*
X486Y288D01*
X486Y295D01*
X488Y295D01*
X488Y302D01*
X489Y302D01*
X489Y310D01*
X490Y310D01*
X490Y317D01*
X491Y317D01*
X491Y324D01*
X492Y324D01*
X492Y331D01*
X493Y331D01*
X493Y338D01*
X494Y338D01*
X494Y346D01*
X495Y346D01*
X495Y353D01*
X496Y353D01*
X496Y361D01*
X497Y361D01*
X497Y368D01*
X498Y368D01*
X498Y375D01*
X499Y375D01*
X499Y382D01*
X500Y382D01*
X500Y389D01*
X501Y389D01*
X501Y396D01*
X502Y396D01*
X502Y404D01*
X503Y404D01*
X503Y412D01*
X504Y412D01*
X504Y419D01*
X505Y419D01*
X505Y424D01*
X531Y424D01*
X531Y427D01*
X532Y427D01*
X532Y434D01*
X533Y434D01*
X533Y435D01*
X493Y435D01*
G37*
D02*
G36*
X666Y435D02*
X666Y434D01*
X665Y434D01*
X665Y433D01*
X664Y433D01*
X664Y432D01*
X666Y432D01*
X666Y433D01*
X667Y433D01*
X667Y434D01*
X668Y434D01*
X668Y435D01*
X666Y435D01*
G37*
D02*
G36*
X663Y432D02*
X663Y431D01*
X664Y431D01*
X664Y432D01*
X663Y432D01*
G37*
D02*
G36*
X661Y431D02*
X661Y430D01*
X660Y430D01*
X660Y429D01*
X659Y429D01*
X659Y428D01*
X658Y428D01*
X658Y427D01*
X657Y427D01*
X657Y426D01*
X656Y426D01*
X656Y425D01*
X655Y425D01*
X655Y424D01*
X654Y424D01*
X654Y423D01*
X653Y423D01*
X653Y422D01*
X652Y422D01*
X652Y421D01*
X651Y421D01*
X651Y420D01*
X650Y420D01*
X650Y419D01*
X649Y419D01*
X649Y418D01*
X648Y418D01*
X648Y417D01*
X647Y417D01*
X647Y415D01*
X648Y415D01*
X648Y416D01*
X649Y416D01*
X649Y417D01*
X650Y417D01*
X650Y418D01*
X651Y418D01*
X651Y419D01*
X652Y419D01*
X652Y420D01*
X653Y420D01*
X653Y421D01*
X654Y421D01*
X654Y422D01*
X655Y422D01*
X655Y423D01*
X656Y423D01*
X656Y424D01*
X657Y424D01*
X657Y425D01*
X658Y425D01*
X658Y426D01*
X659Y426D01*
X659Y427D01*
X660Y427D01*
X660Y428D01*
X661Y428D01*
X661Y429D01*
X662Y429D01*
X662Y430D01*
X663Y430D01*
X663Y431D01*
X661Y431D01*
G37*
D02*
G36*
X646Y415D02*
X646Y414D01*
X647Y414D01*
X647Y415D01*
X646Y415D01*
G37*
D02*
G36*
X645Y414D02*
X645Y413D01*
X644Y413D01*
X644Y412D01*
X643Y412D01*
X643Y410D01*
X644Y410D01*
X644Y411D01*
X645Y411D01*
X645Y412D01*
X646Y412D01*
X646Y414D01*
X645Y414D01*
G37*
D02*
G36*
X642Y410D02*
X642Y408D01*
X643Y408D01*
X643Y410D01*
X642Y410D01*
G37*
D02*
G36*
X640Y408D02*
X640Y407D01*
X639Y407D01*
X639Y405D01*
X640Y405D01*
X640Y406D01*
X642Y406D01*
X642Y408D01*
X640Y408D01*
G37*
D02*
G36*
X638Y405D02*
X638Y404D01*
X637Y404D01*
X637Y402D01*
X638Y402D01*
X638Y403D01*
X639Y403D01*
X639Y405D01*
X638Y405D01*
G37*
D02*
G36*
X636Y402D02*
X636Y401D01*
X635Y401D01*
X635Y399D01*
X636Y399D01*
X636Y400D01*
X637Y400D01*
X637Y402D01*
X636Y402D01*
G37*
D02*
G36*
X634Y399D02*
X634Y398D01*
X633Y398D01*
X633Y396D01*
X632Y396D01*
X632Y394D01*
X633Y394D01*
X633Y395D01*
X634Y395D01*
X634Y397D01*
X635Y397D01*
X635Y399D01*
X634Y399D01*
G37*
D02*
G36*
X714Y618D02*
X714Y617D01*
X705Y617D01*
X705Y616D01*
X699Y616D01*
X699Y615D01*
X694Y615D01*
X694Y614D01*
X689Y614D01*
X689Y612D01*
X685Y612D01*
X685Y611D01*
X681Y611D01*
X681Y610D01*
X678Y610D01*
X678Y609D01*
X675Y609D01*
X675Y608D01*
X746Y608D01*
X746Y607D01*
X755Y607D01*
X755Y606D01*
X761Y606D01*
X761Y605D01*
X767Y605D01*
X767Y604D01*
X771Y604D01*
X771Y603D01*
X775Y603D01*
X775Y602D01*
X778Y602D01*
X778Y601D01*
X782Y601D01*
X782Y600D01*
X785Y600D01*
X785Y599D01*
X787Y599D01*
X787Y598D01*
X790Y598D01*
X790Y597D01*
X793Y597D01*
X793Y596D01*
X796Y596D01*
X796Y595D01*
X798Y595D01*
X798Y594D01*
X801Y594D01*
X801Y593D01*
X803Y593D01*
X803Y592D01*
X805Y592D01*
X805Y591D01*
X807Y591D01*
X807Y590D01*
X809Y590D01*
X809Y589D01*
X810Y589D01*
X810Y588D01*
X812Y588D01*
X812Y587D01*
X814Y587D01*
X814Y586D01*
X816Y586D01*
X816Y585D01*
X817Y585D01*
X817Y584D01*
X819Y584D01*
X819Y583D01*
X820Y583D01*
X820Y582D01*
X822Y582D01*
X822Y581D01*
X823Y581D01*
X823Y580D01*
X825Y580D01*
X825Y579D01*
X826Y579D01*
X826Y578D01*
X828Y578D01*
X828Y577D01*
X829Y577D01*
X829Y576D01*
X830Y576D01*
X830Y575D01*
X832Y575D01*
X832Y574D01*
X833Y574D01*
X833Y573D01*
X834Y573D01*
X834Y572D01*
X835Y572D01*
X835Y571D01*
X836Y571D01*
X836Y570D01*
X838Y570D01*
X838Y569D01*
X839Y569D01*
X839Y568D01*
X840Y568D01*
X840Y567D01*
X841Y567D01*
X841Y566D01*
X842Y566D01*
X842Y565D01*
X843Y565D01*
X843Y564D01*
X844Y564D01*
X844Y563D01*
X846Y563D01*
X846Y561D01*
X847Y561D01*
X847Y560D01*
X848Y560D01*
X848Y559D01*
X849Y559D01*
X849Y558D01*
X850Y558D01*
X850Y557D01*
X851Y557D01*
X851Y556D01*
X852Y556D01*
X852Y555D01*
X853Y555D01*
X853Y554D01*
X854Y554D01*
X854Y553D01*
X855Y553D01*
X855Y552D01*
X856Y552D01*
X856Y550D01*
X857Y550D01*
X857Y549D01*
X858Y549D01*
X858Y548D01*
X872Y548D01*
X872Y549D01*
X871Y549D01*
X871Y550D01*
X870Y550D01*
X870Y551D01*
X869Y551D01*
X869Y553D01*
X868Y553D01*
X868Y554D01*
X867Y554D01*
X867Y555D01*
X866Y555D01*
X866Y556D01*
X865Y556D01*
X865Y557D01*
X864Y557D01*
X864Y558D01*
X863Y558D01*
X863Y559D01*
X862Y559D01*
X862Y561D01*
X861Y561D01*
X861Y563D01*
X860Y563D01*
X860Y564D01*
X859Y564D01*
X859Y565D01*
X858Y565D01*
X858Y566D01*
X857Y566D01*
X857Y567D01*
X856Y567D01*
X856Y568D01*
X855Y568D01*
X855Y569D01*
X854Y569D01*
X854Y570D01*
X853Y570D01*
X853Y571D01*
X852Y571D01*
X852Y572D01*
X850Y572D01*
X850Y573D01*
X849Y573D01*
X849Y574D01*
X848Y574D01*
X848Y575D01*
X847Y575D01*
X847Y576D01*
X846Y576D01*
X846Y577D01*
X844Y577D01*
X844Y578D01*
X842Y578D01*
X842Y579D01*
X841Y579D01*
X841Y580D01*
X840Y580D01*
X840Y581D01*
X838Y581D01*
X838Y582D01*
X837Y582D01*
X837Y583D01*
X836Y583D01*
X836Y584D01*
X834Y584D01*
X834Y585D01*
X833Y585D01*
X833Y586D01*
X831Y586D01*
X831Y587D01*
X830Y587D01*
X830Y588D01*
X828Y588D01*
X828Y589D01*
X827Y589D01*
X827Y590D01*
X825Y590D01*
X825Y591D01*
X824Y591D01*
X824Y592D01*
X822Y592D01*
X822Y593D01*
X820Y593D01*
X820Y594D01*
X818Y594D01*
X818Y595D01*
X817Y595D01*
X817Y596D01*
X815Y596D01*
X815Y597D01*
X813Y597D01*
X813Y598D01*
X811Y598D01*
X811Y599D01*
X809Y599D01*
X809Y600D01*
X807Y600D01*
X807Y601D01*
X805Y601D01*
X805Y602D01*
X802Y602D01*
X802Y603D01*
X800Y603D01*
X800Y604D01*
X797Y604D01*
X797Y605D01*
X795Y605D01*
X795Y606D01*
X791Y606D01*
X791Y607D01*
X789Y607D01*
X789Y608D01*
X786Y608D01*
X786Y609D01*
X782Y609D01*
X782Y610D01*
X779Y610D01*
X779Y611D01*
X775Y611D01*
X775Y612D01*
X771Y612D01*
X771Y614D01*
X767Y614D01*
X767Y615D01*
X762Y615D01*
X762Y616D01*
X756Y616D01*
X756Y617D01*
X748Y617D01*
X748Y618D01*
X714Y618D01*
G37*
D02*
G36*
X672Y608D02*
X672Y607D01*
X669Y607D01*
X669Y606D01*
X667Y606D01*
X667Y605D01*
X664Y605D01*
X664Y604D01*
X662Y604D01*
X662Y603D01*
X660Y603D01*
X660Y602D01*
X657Y602D01*
X657Y601D01*
X655Y601D01*
X655Y600D01*
X653Y600D01*
X653Y599D01*
X651Y599D01*
X651Y598D01*
X649Y598D01*
X649Y597D01*
X647Y597D01*
X647Y596D01*
X645Y596D01*
X645Y595D01*
X644Y595D01*
X644Y594D01*
X642Y594D01*
X642Y593D01*
X639Y593D01*
X639Y592D01*
X638Y592D01*
X638Y591D01*
X636Y591D01*
X636Y590D01*
X635Y590D01*
X635Y589D01*
X633Y589D01*
X633Y588D01*
X632Y588D01*
X632Y587D01*
X630Y587D01*
X630Y586D01*
X629Y586D01*
X629Y585D01*
X627Y585D01*
X627Y584D01*
X626Y584D01*
X626Y583D01*
X625Y583D01*
X625Y582D01*
X623Y582D01*
X623Y581D01*
X622Y581D01*
X622Y580D01*
X621Y580D01*
X621Y579D01*
X620Y579D01*
X620Y578D01*
X618Y578D01*
X618Y577D01*
X617Y577D01*
X617Y576D01*
X616Y576D01*
X616Y575D01*
X615Y575D01*
X615Y574D01*
X614Y574D01*
X614Y573D01*
X613Y573D01*
X613Y572D01*
X612Y572D01*
X612Y571D01*
X611Y571D01*
X611Y570D01*
X610Y570D01*
X610Y569D01*
X609Y569D01*
X609Y568D01*
X608Y568D01*
X608Y567D01*
X607Y567D01*
X607Y566D01*
X606Y566D01*
X606Y565D01*
X605Y565D01*
X605Y564D01*
X604Y564D01*
X604Y563D01*
X603Y563D01*
X603Y561D01*
X602Y561D01*
X602Y560D01*
X601Y560D01*
X601Y559D01*
X600Y559D01*
X600Y558D01*
X599Y558D01*
X599Y557D01*
X598Y557D01*
X598Y555D01*
X597Y555D01*
X597Y554D01*
X596Y554D01*
X596Y553D01*
X595Y553D01*
X595Y552D01*
X594Y552D01*
X594Y550D01*
X593Y550D01*
X593Y549D01*
X592Y549D01*
X592Y547D01*
X591Y547D01*
X591Y546D01*
X589Y546D01*
X589Y545D01*
X588Y545D01*
X588Y543D01*
X587Y543D01*
X587Y542D01*
X586Y542D01*
X586Y540D01*
X585Y540D01*
X585Y539D01*
X584Y539D01*
X584Y537D01*
X583Y537D01*
X583Y535D01*
X582Y535D01*
X582Y534D01*
X581Y534D01*
X581Y532D01*
X580Y532D01*
X580Y530D01*
X579Y530D01*
X579Y528D01*
X578Y528D01*
X578Y526D01*
X577Y526D01*
X577Y524D01*
X576Y524D01*
X576Y522D01*
X575Y522D01*
X575Y520D01*
X574Y520D01*
X574Y518D01*
X573Y518D01*
X573Y516D01*
X572Y516D01*
X572Y513D01*
X571Y513D01*
X571Y510D01*
X570Y510D01*
X570Y507D01*
X569Y507D01*
X569Y504D01*
X568Y504D01*
X568Y502D01*
X567Y502D01*
X567Y499D01*
X566Y499D01*
X566Y495D01*
X565Y495D01*
X565Y492D01*
X564Y492D01*
X564Y487D01*
X563Y487D01*
X563Y483D01*
X562Y483D01*
X562Y478D01*
X561Y478D01*
X561Y471D01*
X560Y471D01*
X560Y461D01*
X559Y461D01*
X559Y437D01*
X560Y437D01*
X560Y427D01*
X561Y427D01*
X561Y420D01*
X562Y420D01*
X562Y415D01*
X563Y415D01*
X563Y411D01*
X564Y411D01*
X564Y406D01*
X565Y406D01*
X565Y402D01*
X566Y402D01*
X566Y399D01*
X567Y399D01*
X567Y395D01*
X568Y395D01*
X568Y392D01*
X569Y392D01*
X569Y390D01*
X570Y390D01*
X570Y387D01*
X571Y387D01*
X571Y385D01*
X572Y385D01*
X572Y382D01*
X573Y382D01*
X573Y380D01*
X574Y380D01*
X574Y378D01*
X575Y378D01*
X575Y376D01*
X576Y376D01*
X576Y374D01*
X577Y374D01*
X577Y372D01*
X578Y372D01*
X578Y370D01*
X579Y370D01*
X579Y368D01*
X580Y368D01*
X580Y366D01*
X581Y366D01*
X581Y365D01*
X593Y365D01*
X593Y366D01*
X592Y366D01*
X592Y367D01*
X591Y367D01*
X591Y369D01*
X589Y369D01*
X589Y371D01*
X588Y371D01*
X588Y372D01*
X587Y372D01*
X587Y374D01*
X586Y374D01*
X586Y376D01*
X585Y376D01*
X585Y378D01*
X584Y378D01*
X584Y380D01*
X583Y380D01*
X583Y383D01*
X582Y383D01*
X582Y385D01*
X581Y385D01*
X581Y387D01*
X580Y387D01*
X580Y389D01*
X579Y389D01*
X579Y392D01*
X578Y392D01*
X578Y395D01*
X577Y395D01*
X577Y398D01*
X576Y398D01*
X576Y401D01*
X575Y401D01*
X575Y404D01*
X574Y404D01*
X574Y408D01*
X573Y408D01*
X573Y412D01*
X572Y412D01*
X572Y417D01*
X571Y417D01*
X571Y422D01*
X570Y422D01*
X570Y429D01*
X569Y429D01*
X569Y444D01*
X568Y444D01*
X568Y453D01*
X569Y453D01*
X569Y469D01*
X570Y469D01*
X570Y476D01*
X571Y476D01*
X571Y481D01*
X572Y481D01*
X572Y486D01*
X573Y486D01*
X573Y490D01*
X574Y490D01*
X574Y493D01*
X575Y493D01*
X575Y497D01*
X576Y497D01*
X576Y500D01*
X577Y500D01*
X577Y502D01*
X578Y502D01*
X578Y505D01*
X579Y505D01*
X579Y508D01*
X580Y508D01*
X580Y510D01*
X581Y510D01*
X581Y513D01*
X582Y513D01*
X582Y516D01*
X583Y516D01*
X583Y518D01*
X584Y518D01*
X584Y520D01*
X585Y520D01*
X585Y522D01*
X586Y522D01*
X586Y524D01*
X587Y524D01*
X587Y526D01*
X588Y526D01*
X588Y527D01*
X589Y527D01*
X589Y529D01*
X591Y529D01*
X591Y531D01*
X592Y531D01*
X592Y532D01*
X593Y532D01*
X593Y534D01*
X594Y534D01*
X594Y535D01*
X595Y535D01*
X595Y537D01*
X596Y537D01*
X596Y538D01*
X597Y538D01*
X597Y540D01*
X598Y540D01*
X598Y541D01*
X599Y541D01*
X599Y543D01*
X600Y543D01*
X600Y544D01*
X601Y544D01*
X601Y545D01*
X602Y545D01*
X602Y547D01*
X603Y547D01*
X603Y548D01*
X604Y548D01*
X604Y549D01*
X605Y549D01*
X605Y550D01*
X606Y550D01*
X606Y551D01*
X607Y551D01*
X607Y553D01*
X608Y553D01*
X608Y554D01*
X609Y554D01*
X609Y555D01*
X610Y555D01*
X610Y556D01*
X611Y556D01*
X611Y557D01*
X612Y557D01*
X612Y558D01*
X613Y558D01*
X613Y559D01*
X614Y559D01*
X614Y560D01*
X615Y560D01*
X615Y561D01*
X616Y561D01*
X616Y563D01*
X617Y563D01*
X617Y564D01*
X618Y564D01*
X618Y565D01*
X619Y565D01*
X619Y566D01*
X620Y566D01*
X620Y567D01*
X621Y567D01*
X621Y568D01*
X622Y568D01*
X622Y569D01*
X623Y569D01*
X623Y570D01*
X625Y570D01*
X625Y571D01*
X626Y571D01*
X626Y572D01*
X627Y572D01*
X627Y573D01*
X628Y573D01*
X628Y574D01*
X630Y574D01*
X630Y575D01*
X631Y575D01*
X631Y576D01*
X632Y576D01*
X632Y577D01*
X634Y577D01*
X634Y578D01*
X635Y578D01*
X635Y579D01*
X636Y579D01*
X636Y580D01*
X638Y580D01*
X638Y581D01*
X639Y581D01*
X639Y582D01*
X642Y582D01*
X642Y583D01*
X643Y583D01*
X643Y584D01*
X645Y584D01*
X645Y585D01*
X646Y585D01*
X646Y586D01*
X648Y586D01*
X648Y587D01*
X650Y587D01*
X650Y588D01*
X652Y588D01*
X652Y589D01*
X654Y589D01*
X654Y590D01*
X656Y590D01*
X656Y591D01*
X658Y591D01*
X658Y592D01*
X659Y592D01*
X659Y593D01*
X662Y593D01*
X662Y594D01*
X664Y594D01*
X664Y595D01*
X666Y595D01*
X666Y596D01*
X669Y596D01*
X669Y597D01*
X671Y597D01*
X671Y598D01*
X674Y598D01*
X674Y599D01*
X677Y599D01*
X677Y600D01*
X680Y600D01*
X680Y601D01*
X683Y601D01*
X683Y602D01*
X686Y602D01*
X686Y603D01*
X690Y603D01*
X690Y604D01*
X696Y604D01*
X696Y605D01*
X701Y605D01*
X701Y606D01*
X707Y606D01*
X707Y607D01*
X716Y607D01*
X716Y608D01*
X672Y608D01*
G37*
D02*
G36*
X888Y549D02*
X888Y548D01*
X905Y548D01*
X905Y549D01*
X888Y549D01*
G37*
D02*
G36*
X859Y548D02*
X859Y547D01*
X920Y547D01*
X920Y548D01*
X859Y548D01*
G37*
D02*
G36*
X859Y548D02*
X859Y547D01*
X920Y547D01*
X920Y548D01*
X859Y548D01*
G37*
D02*
G36*
X859Y547D02*
X859Y546D01*
X858Y546D01*
X858Y543D01*
X857Y543D01*
X857Y540D01*
X856Y540D01*
X856Y539D01*
X918Y539D01*
X918Y538D01*
X928Y538D01*
X928Y537D01*
X935Y537D01*
X935Y536D01*
X940Y536D01*
X940Y535D01*
X945Y535D01*
X945Y534D01*
X951Y534D01*
X951Y533D01*
X955Y533D01*
X955Y532D01*
X959Y532D01*
X959Y531D01*
X962Y531D01*
X962Y530D01*
X966Y530D01*
X966Y529D01*
X969Y529D01*
X969Y528D01*
X972Y528D01*
X972Y527D01*
X975Y527D01*
X975Y526D01*
X978Y526D01*
X978Y525D01*
X981Y525D01*
X981Y524D01*
X983Y524D01*
X983Y523D01*
X986Y523D01*
X986Y522D01*
X988Y522D01*
X988Y521D01*
X990Y521D01*
X990Y520D01*
X993Y520D01*
X993Y519D01*
X995Y519D01*
X995Y518D01*
X997Y518D01*
X997Y517D01*
X1000Y517D01*
X1000Y516D01*
X1002Y516D01*
X1002Y515D01*
X1004Y515D01*
X1004Y514D01*
X1006Y514D01*
X1006Y513D01*
X1008Y513D01*
X1008Y512D01*
X1010Y512D01*
X1010Y510D01*
X1012Y510D01*
X1012Y509D01*
X1013Y509D01*
X1013Y508D01*
X1015Y508D01*
X1015Y507D01*
X1017Y507D01*
X1017Y506D01*
X1018Y506D01*
X1018Y505D01*
X1020Y505D01*
X1020Y504D01*
X1022Y504D01*
X1022Y503D01*
X1023Y503D01*
X1023Y502D01*
X1025Y502D01*
X1025Y501D01*
X1026Y501D01*
X1026Y500D01*
X1028Y500D01*
X1028Y499D01*
X1029Y499D01*
X1029Y498D01*
X1031Y498D01*
X1031Y497D01*
X1032Y497D01*
X1032Y496D01*
X1034Y496D01*
X1034Y495D01*
X1035Y495D01*
X1035Y494D01*
X1036Y494D01*
X1036Y493D01*
X1038Y493D01*
X1038Y492D01*
X1039Y492D01*
X1039Y491D01*
X1040Y491D01*
X1040Y490D01*
X1042Y490D01*
X1042Y489D01*
X1043Y489D01*
X1043Y488D01*
X1044Y488D01*
X1044Y487D01*
X1045Y487D01*
X1045Y486D01*
X1046Y486D01*
X1046Y485D01*
X1048Y485D01*
X1048Y484D01*
X1050Y484D01*
X1050Y483D01*
X1051Y483D01*
X1051Y482D01*
X1052Y482D01*
X1052Y481D01*
X1053Y481D01*
X1053Y480D01*
X1054Y480D01*
X1054Y479D01*
X1055Y479D01*
X1055Y478D01*
X1056Y478D01*
X1056Y477D01*
X1058Y477D01*
X1058Y476D01*
X1059Y476D01*
X1059Y475D01*
X1060Y475D01*
X1060Y474D01*
X1061Y474D01*
X1061Y473D01*
X1062Y473D01*
X1062Y472D01*
X1063Y472D01*
X1063Y471D01*
X1064Y471D01*
X1064Y470D01*
X1065Y470D01*
X1065Y469D01*
X1066Y469D01*
X1066Y467D01*
X1067Y467D01*
X1067Y466D01*
X1068Y466D01*
X1068Y465D01*
X1069Y465D01*
X1069Y464D01*
X1070Y464D01*
X1070Y463D01*
X1071Y463D01*
X1071Y462D01*
X1072Y462D01*
X1072Y461D01*
X1073Y461D01*
X1073Y459D01*
X1074Y459D01*
X1074Y457D01*
X1075Y457D01*
X1075Y456D01*
X1076Y456D01*
X1076Y455D01*
X1077Y455D01*
X1077Y454D01*
X1078Y454D01*
X1078Y453D01*
X1079Y453D01*
X1079Y451D01*
X1080Y451D01*
X1080Y450D01*
X1081Y450D01*
X1081Y449D01*
X1082Y449D01*
X1082Y447D01*
X1083Y447D01*
X1083Y446D01*
X1084Y446D01*
X1084Y445D01*
X1085Y445D01*
X1085Y444D01*
X1096Y444D01*
X1096Y445D01*
X1095Y445D01*
X1095Y447D01*
X1094Y447D01*
X1094Y448D01*
X1093Y448D01*
X1093Y449D01*
X1092Y449D01*
X1092Y451D01*
X1091Y451D01*
X1091Y452D01*
X1090Y452D01*
X1090Y454D01*
X1089Y454D01*
X1089Y455D01*
X1088Y455D01*
X1088Y456D01*
X1087Y456D01*
X1087Y458D01*
X1086Y458D01*
X1086Y459D01*
X1085Y459D01*
X1085Y461D01*
X1084Y461D01*
X1084Y462D01*
X1083Y462D01*
X1083Y463D01*
X1082Y463D01*
X1082Y465D01*
X1081Y465D01*
X1081Y466D01*
X1080Y466D01*
X1080Y467D01*
X1079Y467D01*
X1079Y468D01*
X1078Y468D01*
X1078Y469D01*
X1077Y469D01*
X1077Y470D01*
X1076Y470D01*
X1076Y472D01*
X1075Y472D01*
X1075Y473D01*
X1074Y473D01*
X1074Y474D01*
X1073Y474D01*
X1073Y475D01*
X1072Y475D01*
X1072Y476D01*
X1071Y476D01*
X1071Y477D01*
X1070Y477D01*
X1070Y478D01*
X1069Y478D01*
X1069Y479D01*
X1068Y479D01*
X1068Y480D01*
X1067Y480D01*
X1067Y481D01*
X1066Y481D01*
X1066Y482D01*
X1065Y482D01*
X1065Y483D01*
X1064Y483D01*
X1064Y484D01*
X1063Y484D01*
X1063Y485D01*
X1062Y485D01*
X1062Y486D01*
X1061Y486D01*
X1061Y487D01*
X1059Y487D01*
X1059Y488D01*
X1058Y488D01*
X1058Y489D01*
X1057Y489D01*
X1057Y490D01*
X1056Y490D01*
X1056Y491D01*
X1055Y491D01*
X1055Y492D01*
X1054Y492D01*
X1054Y493D01*
X1052Y493D01*
X1052Y494D01*
X1051Y494D01*
X1051Y495D01*
X1050Y495D01*
X1050Y496D01*
X1048Y496D01*
X1048Y497D01*
X1046Y497D01*
X1046Y498D01*
X1045Y498D01*
X1045Y499D01*
X1044Y499D01*
X1044Y500D01*
X1042Y500D01*
X1042Y501D01*
X1041Y501D01*
X1041Y502D01*
X1040Y502D01*
X1040Y503D01*
X1038Y503D01*
X1038Y504D01*
X1037Y504D01*
X1037Y505D01*
X1035Y505D01*
X1035Y506D01*
X1034Y506D01*
X1034Y507D01*
X1033Y507D01*
X1033Y508D01*
X1031Y508D01*
X1031Y509D01*
X1029Y509D01*
X1029Y510D01*
X1028Y510D01*
X1028Y512D01*
X1026Y512D01*
X1026Y513D01*
X1025Y513D01*
X1025Y514D01*
X1023Y514D01*
X1023Y515D01*
X1021Y515D01*
X1021Y516D01*
X1020Y516D01*
X1020Y517D01*
X1018Y517D01*
X1018Y518D01*
X1016Y518D01*
X1016Y519D01*
X1014Y519D01*
X1014Y520D01*
X1012Y520D01*
X1012Y521D01*
X1011Y521D01*
X1011Y522D01*
X1009Y522D01*
X1009Y523D01*
X1007Y523D01*
X1007Y524D01*
X1005Y524D01*
X1005Y525D01*
X1002Y525D01*
X1002Y526D01*
X1000Y526D01*
X1000Y527D01*
X997Y527D01*
X997Y528D01*
X995Y528D01*
X995Y529D01*
X993Y529D01*
X993Y530D01*
X990Y530D01*
X990Y531D01*
X988Y531D01*
X988Y532D01*
X985Y532D01*
X985Y533D01*
X983Y533D01*
X983Y534D01*
X980Y534D01*
X980Y535D01*
X977Y535D01*
X977Y536D01*
X974Y536D01*
X974Y537D01*
X971Y537D01*
X971Y538D01*
X967Y538D01*
X967Y539D01*
X964Y539D01*
X964Y540D01*
X960Y540D01*
X960Y541D01*
X957Y541D01*
X957Y542D01*
X952Y542D01*
X952Y543D01*
X948Y543D01*
X948Y544D01*
X942Y544D01*
X942Y545D01*
X936Y545D01*
X936Y546D01*
X929Y546D01*
X929Y547D01*
X859Y547D01*
G37*
D02*
G36*
X855Y539D02*
X855Y537D01*
X854Y537D01*
X854Y536D01*
X853Y536D01*
X853Y535D01*
X852Y535D01*
X852Y533D01*
X851Y533D01*
X851Y532D01*
X850Y532D01*
X850Y530D01*
X849Y530D01*
X849Y529D01*
X848Y529D01*
X848Y528D01*
X847Y528D01*
X847Y526D01*
X846Y526D01*
X846Y525D01*
X859Y525D01*
X859Y522D01*
X858Y522D01*
X858Y521D01*
X859Y521D01*
X859Y518D01*
X858Y518D01*
X858Y514D01*
X857Y514D01*
X857Y513D01*
X856Y513D01*
X856Y512D01*
X859Y512D01*
X859Y516D01*
X860Y516D01*
X860Y520D01*
X861Y520D01*
X861Y525D01*
X862Y525D01*
X862Y529D01*
X863Y529D01*
X863Y533D01*
X864Y533D01*
X864Y534D01*
X865Y534D01*
X865Y536D01*
X866Y536D01*
X866Y537D01*
X867Y537D01*
X867Y538D01*
X874Y538D01*
X874Y539D01*
X855Y539D01*
G37*
D02*
G36*
X844Y525D02*
X844Y523D01*
X843Y523D01*
X843Y522D01*
X842Y522D01*
X842Y521D01*
X841Y521D01*
X841Y519D01*
X840Y519D01*
X840Y518D01*
X839Y518D01*
X839Y516D01*
X838Y516D01*
X838Y515D01*
X837Y515D01*
X837Y514D01*
X824Y514D01*
X824Y513D01*
X834Y513D01*
X834Y512D01*
X853Y512D01*
X853Y513D01*
X852Y513D01*
X852Y514D01*
X851Y514D01*
X851Y517D01*
X852Y517D01*
X852Y518D01*
X853Y518D01*
X853Y519D01*
X854Y519D01*
X854Y521D01*
X855Y521D01*
X855Y522D01*
X856Y522D01*
X856Y523D01*
X857Y523D01*
X857Y524D01*
X858Y524D01*
X858Y525D01*
X844Y525D01*
G37*
D02*
G36*
X650Y519D02*
X650Y518D01*
X644Y518D01*
X644Y517D01*
X639Y517D01*
X639Y516D01*
X636Y516D01*
X636Y515D01*
X634Y515D01*
X634Y514D01*
X632Y514D01*
X632Y513D01*
X631Y513D01*
X631Y512D01*
X629Y512D01*
X629Y510D01*
X628Y510D01*
X628Y509D01*
X627Y509D01*
X627Y508D01*
X626Y508D01*
X626Y507D01*
X625Y507D01*
X625Y506D01*
X624Y506D01*
X624Y505D01*
X623Y505D01*
X623Y503D01*
X622Y503D01*
X622Y501D01*
X621Y501D01*
X621Y499D01*
X620Y499D01*
X620Y497D01*
X619Y497D01*
X619Y495D01*
X666Y495D01*
X666Y494D01*
X672Y494D01*
X672Y493D01*
X678Y493D01*
X678Y492D01*
X681Y492D01*
X681Y494D01*
X682Y494D01*
X682Y499D01*
X683Y499D01*
X683Y503D01*
X684Y503D01*
X684Y508D01*
X685Y508D01*
X685Y513D01*
X684Y513D01*
X684Y514D01*
X680Y514D01*
X680Y515D01*
X675Y515D01*
X675Y516D01*
X671Y516D01*
X671Y517D01*
X667Y517D01*
X667Y518D01*
X661Y518D01*
X661Y519D01*
X650Y519D01*
G37*
D02*
G36*
X818Y513D02*
X818Y512D01*
X812Y512D01*
X812Y510D01*
X807Y510D01*
X807Y509D01*
X802Y509D01*
X802Y508D01*
X810Y508D01*
X810Y509D01*
X815Y509D01*
X815Y510D01*
X821Y510D01*
X821Y512D01*
X830Y512D01*
X830Y513D01*
X818Y513D01*
G37*
D02*
G36*
X834Y512D02*
X834Y510D01*
X859Y510D01*
X859Y512D01*
X834Y512D01*
G37*
D02*
G36*
X834Y512D02*
X834Y510D01*
X859Y510D01*
X859Y512D01*
X834Y512D01*
G37*
D02*
G36*
X834Y510D02*
X834Y508D01*
X833Y508D01*
X833Y507D01*
X832Y507D01*
X832Y506D01*
X831Y506D01*
X831Y504D01*
X830Y504D01*
X830Y503D01*
X829Y503D01*
X829Y501D01*
X828Y501D01*
X828Y500D01*
X827Y500D01*
X827Y499D01*
X826Y499D01*
X826Y497D01*
X825Y497D01*
X825Y496D01*
X824Y496D01*
X824Y494D01*
X823Y494D01*
X823Y493D01*
X822Y493D01*
X822Y492D01*
X821Y492D01*
X821Y490D01*
X820Y490D01*
X820Y489D01*
X819Y489D01*
X819Y487D01*
X818Y487D01*
X818Y486D01*
X817Y486D01*
X817Y485D01*
X816Y485D01*
X816Y483D01*
X815Y483D01*
X815Y482D01*
X814Y482D01*
X814Y480D01*
X813Y480D01*
X813Y479D01*
X812Y479D01*
X812Y478D01*
X811Y478D01*
X811Y476D01*
X810Y476D01*
X810Y475D01*
X809Y475D01*
X809Y473D01*
X808Y473D01*
X808Y472D01*
X807Y472D01*
X807Y471D01*
X806Y471D01*
X806Y469D01*
X805Y469D01*
X805Y468D01*
X804Y468D01*
X804Y466D01*
X803Y466D01*
X803Y465D01*
X802Y465D01*
X802Y464D01*
X801Y464D01*
X801Y462D01*
X800Y462D01*
X800Y461D01*
X799Y461D01*
X799Y458D01*
X798Y458D01*
X798Y457D01*
X797Y457D01*
X797Y456D01*
X796Y456D01*
X796Y454D01*
X795Y454D01*
X795Y453D01*
X793Y453D01*
X793Y451D01*
X792Y451D01*
X792Y450D01*
X791Y450D01*
X791Y449D01*
X790Y449D01*
X790Y447D01*
X789Y447D01*
X789Y446D01*
X788Y446D01*
X788Y445D01*
X787Y445D01*
X787Y444D01*
X786Y444D01*
X786Y442D01*
X785Y442D01*
X785Y440D01*
X784Y440D01*
X784Y439D01*
X783Y439D01*
X783Y437D01*
X782Y437D01*
X782Y436D01*
X781Y436D01*
X781Y435D01*
X780Y435D01*
X780Y434D01*
X791Y434D01*
X791Y436D01*
X795Y436D01*
X795Y440D01*
X796Y440D01*
X796Y441D01*
X797Y441D01*
X797Y442D01*
X798Y442D01*
X798Y444D01*
X799Y444D01*
X799Y445D01*
X800Y445D01*
X800Y447D01*
X801Y447D01*
X801Y448D01*
X802Y448D01*
X802Y449D01*
X803Y449D01*
X803Y451D01*
X804Y451D01*
X804Y452D01*
X805Y452D01*
X805Y453D01*
X806Y453D01*
X806Y455D01*
X807Y455D01*
X807Y456D01*
X808Y456D01*
X808Y457D01*
X809Y457D01*
X809Y459D01*
X810Y459D01*
X810Y461D01*
X811Y461D01*
X811Y463D01*
X812Y463D01*
X812Y464D01*
X813Y464D01*
X813Y465D01*
X814Y465D01*
X814Y467D01*
X815Y467D01*
X815Y468D01*
X816Y468D01*
X816Y469D01*
X817Y469D01*
X817Y471D01*
X818Y471D01*
X818Y472D01*
X819Y472D01*
X819Y473D01*
X820Y473D01*
X820Y475D01*
X821Y475D01*
X821Y476D01*
X822Y476D01*
X822Y477D01*
X823Y477D01*
X823Y479D01*
X824Y479D01*
X824Y480D01*
X825Y480D01*
X825Y482D01*
X826Y482D01*
X826Y483D01*
X827Y483D01*
X827Y484D01*
X828Y484D01*
X828Y486D01*
X829Y486D01*
X829Y487D01*
X830Y487D01*
X830Y488D01*
X831Y488D01*
X831Y490D01*
X832Y490D01*
X832Y491D01*
X833Y491D01*
X833Y492D01*
X834Y492D01*
X834Y494D01*
X835Y494D01*
X835Y495D01*
X836Y495D01*
X836Y497D01*
X837Y497D01*
X837Y498D01*
X838Y498D01*
X838Y499D01*
X839Y499D01*
X839Y501D01*
X840Y501D01*
X840Y502D01*
X841Y502D01*
X841Y503D01*
X842Y503D01*
X842Y505D01*
X843Y505D01*
X843Y506D01*
X844Y506D01*
X844Y507D01*
X846Y507D01*
X846Y509D01*
X847Y509D01*
X847Y510D01*
X834Y510D01*
G37*
D02*
G36*
X855Y510D02*
X855Y508D01*
X862Y508D01*
X862Y507D01*
X865Y507D01*
X865Y506D01*
X868Y506D01*
X868Y505D01*
X871Y505D01*
X871Y504D01*
X873Y504D01*
X873Y503D01*
X876Y503D01*
X876Y502D01*
X878Y502D01*
X878Y501D01*
X880Y501D01*
X880Y500D01*
X882Y500D01*
X882Y499D01*
X884Y499D01*
X884Y498D01*
X886Y498D01*
X886Y497D01*
X887Y497D01*
X887Y496D01*
X889Y496D01*
X889Y495D01*
X890Y495D01*
X890Y494D01*
X892Y494D01*
X892Y493D01*
X893Y493D01*
X893Y492D01*
X894Y492D01*
X894Y491D01*
X897Y491D01*
X897Y490D01*
X898Y490D01*
X898Y489D01*
X899Y489D01*
X899Y488D01*
X900Y488D01*
X900Y487D01*
X901Y487D01*
X901Y486D01*
X902Y486D01*
X902Y485D01*
X903Y485D01*
X903Y484D01*
X904Y484D01*
X904Y483D01*
X905Y483D01*
X905Y482D01*
X906Y482D01*
X906Y481D01*
X907Y481D01*
X907Y480D01*
X908Y480D01*
X908Y478D01*
X909Y478D01*
X909Y477D01*
X910Y477D01*
X910Y476D01*
X911Y476D01*
X911Y474D01*
X912Y474D01*
X912Y473D01*
X913Y473D01*
X913Y471D01*
X914Y471D01*
X914Y469D01*
X915Y469D01*
X915Y467D01*
X916Y467D01*
X916Y465D01*
X917Y465D01*
X917Y463D01*
X918Y463D01*
X918Y459D01*
X919Y459D01*
X919Y454D01*
X918Y454D01*
X918Y453D01*
X888Y453D01*
X888Y452D01*
X881Y452D01*
X881Y451D01*
X876Y451D01*
X876Y450D01*
X872Y450D01*
X872Y449D01*
X869Y449D01*
X869Y448D01*
X866Y448D01*
X866Y447D01*
X863Y447D01*
X863Y446D01*
X861Y446D01*
X861Y445D01*
X859Y445D01*
X859Y444D01*
X857Y444D01*
X857Y443D01*
X855Y443D01*
X855Y442D01*
X853Y442D01*
X853Y441D01*
X851Y441D01*
X851Y440D01*
X850Y440D01*
X850Y439D01*
X848Y439D01*
X848Y438D01*
X847Y438D01*
X847Y437D01*
X844Y437D01*
X844Y436D01*
X843Y436D01*
X843Y435D01*
X842Y435D01*
X842Y434D01*
X908Y434D01*
X908Y433D01*
X909Y433D01*
X909Y432D01*
X910Y432D01*
X910Y429D01*
X909Y429D01*
X909Y422D01*
X908Y422D01*
X908Y415D01*
X907Y415D01*
X907Y407D01*
X906Y407D01*
X906Y405D01*
X932Y405D01*
X932Y404D01*
X933Y404D01*
X933Y403D01*
X934Y403D01*
X934Y402D01*
X935Y402D01*
X935Y401D01*
X936Y401D01*
X936Y400D01*
X937Y400D01*
X937Y399D01*
X938Y399D01*
X938Y398D01*
X939Y398D01*
X939Y397D01*
X940Y397D01*
X940Y396D01*
X941Y396D01*
X941Y394D01*
X942Y394D01*
X942Y393D01*
X943Y393D01*
X943Y392D01*
X944Y392D01*
X944Y391D01*
X945Y391D01*
X945Y389D01*
X946Y389D01*
X946Y388D01*
X948Y388D01*
X948Y387D01*
X949Y387D01*
X949Y385D01*
X950Y385D01*
X950Y384D01*
X951Y384D01*
X951Y382D01*
X952Y382D01*
X952Y380D01*
X953Y380D01*
X953Y379D01*
X954Y379D01*
X954Y377D01*
X955Y377D01*
X955Y375D01*
X956Y375D01*
X956Y373D01*
X958Y373D01*
X958Y374D01*
X957Y374D01*
X957Y376D01*
X956Y376D01*
X956Y378D01*
X955Y378D01*
X955Y380D01*
X954Y380D01*
X954Y382D01*
X953Y382D01*
X953Y383D01*
X952Y383D01*
X952Y385D01*
X951Y385D01*
X951Y387D01*
X950Y387D01*
X950Y388D01*
X949Y388D01*
X949Y390D01*
X948Y390D01*
X948Y391D01*
X946Y391D01*
X946Y392D01*
X945Y392D01*
X945Y394D01*
X944Y394D01*
X944Y395D01*
X943Y395D01*
X943Y396D01*
X942Y396D01*
X942Y397D01*
X941Y397D01*
X941Y398D01*
X940Y398D01*
X940Y399D01*
X939Y399D01*
X939Y401D01*
X938Y401D01*
X938Y402D01*
X937Y402D01*
X937Y403D01*
X936Y403D01*
X936Y404D01*
X935Y404D01*
X935Y405D01*
X934Y405D01*
X934Y406D01*
X932Y406D01*
X932Y407D01*
X931Y407D01*
X931Y408D01*
X930Y408D01*
X930Y414D01*
X931Y414D01*
X931Y421D01*
X932Y421D01*
X932Y428D01*
X933Y428D01*
X933Y436D01*
X934Y436D01*
X934Y443D01*
X935Y443D01*
X935Y450D01*
X932Y450D01*
X932Y451D01*
X927Y451D01*
X927Y452D01*
X923Y452D01*
X923Y453D01*
X922Y453D01*
X922Y454D01*
X921Y454D01*
X921Y457D01*
X920Y457D01*
X920Y461D01*
X919Y461D01*
X919Y464D01*
X918Y464D01*
X918Y466D01*
X917Y466D01*
X917Y468D01*
X916Y468D01*
X916Y470D01*
X915Y470D01*
X915Y472D01*
X914Y472D01*
X914Y474D01*
X913Y474D01*
X913Y475D01*
X912Y475D01*
X912Y477D01*
X911Y477D01*
X911Y478D01*
X910Y478D01*
X910Y480D01*
X909Y480D01*
X909Y481D01*
X908Y481D01*
X908Y482D01*
X907Y482D01*
X907Y483D01*
X906Y483D01*
X906Y484D01*
X905Y484D01*
X905Y485D01*
X904Y485D01*
X904Y486D01*
X903Y486D01*
X903Y487D01*
X902Y487D01*
X902Y488D01*
X901Y488D01*
X901Y489D01*
X900Y489D01*
X900Y490D01*
X899Y490D01*
X899Y491D01*
X898Y491D01*
X898Y492D01*
X897Y492D01*
X897Y493D01*
X894Y493D01*
X894Y494D01*
X893Y494D01*
X893Y495D01*
X892Y495D01*
X892Y496D01*
X890Y496D01*
X890Y497D01*
X888Y497D01*
X888Y498D01*
X887Y498D01*
X887Y499D01*
X885Y499D01*
X885Y500D01*
X883Y500D01*
X883Y501D01*
X881Y501D01*
X881Y502D01*
X879Y502D01*
X879Y503D01*
X877Y503D01*
X877Y504D01*
X875Y504D01*
X875Y505D01*
X871Y505D01*
X871Y506D01*
X870Y506D01*
X870Y507D01*
X867Y507D01*
X867Y508D01*
X864Y508D01*
X864Y509D01*
X860Y509D01*
X860Y510D01*
X855Y510D01*
G37*
D02*
G36*
X795Y509D02*
X795Y508D01*
X796Y508D01*
X796Y509D01*
X795Y509D01*
G37*
D02*
G36*
X798Y509D02*
X798Y508D01*
X799Y508D01*
X799Y509D01*
X798Y509D01*
G37*
D02*
G36*
X793Y508D02*
X793Y507D01*
X805Y507D01*
X805Y508D01*
X793Y508D01*
G37*
D02*
G36*
X793Y508D02*
X793Y507D01*
X805Y507D01*
X805Y508D01*
X793Y508D01*
G37*
D02*
G36*
X793Y508D02*
X793Y507D01*
X805Y507D01*
X805Y508D01*
X793Y508D01*
G37*
D02*
G36*
X856Y508D02*
X856Y506D01*
X855Y506D01*
X855Y502D01*
X854Y502D01*
X854Y499D01*
X853Y499D01*
X853Y495D01*
X852Y495D01*
X852Y492D01*
X851Y492D01*
X851Y489D01*
X850Y489D01*
X850Y486D01*
X849Y486D01*
X849Y483D01*
X848Y483D01*
X848Y480D01*
X847Y480D01*
X847Y477D01*
X846Y477D01*
X846Y475D01*
X844Y475D01*
X844Y472D01*
X843Y472D01*
X843Y470D01*
X842Y470D01*
X842Y467D01*
X841Y467D01*
X841Y465D01*
X840Y465D01*
X840Y463D01*
X839Y463D01*
X839Y459D01*
X838Y459D01*
X838Y457D01*
X837Y457D01*
X837Y455D01*
X836Y455D01*
X836Y453D01*
X835Y453D01*
X835Y451D01*
X834Y451D01*
X834Y449D01*
X833Y449D01*
X833Y447D01*
X832Y447D01*
X832Y445D01*
X831Y445D01*
X831Y443D01*
X830Y443D01*
X830Y441D01*
X829Y441D01*
X829Y440D01*
X828Y440D01*
X828Y438D01*
X827Y438D01*
X827Y436D01*
X826Y436D01*
X826Y435D01*
X825Y435D01*
X825Y433D01*
X824Y433D01*
X824Y431D01*
X823Y431D01*
X823Y430D01*
X822Y430D01*
X822Y428D01*
X821Y428D01*
X821Y427D01*
X820Y427D01*
X820Y425D01*
X819Y425D01*
X819Y424D01*
X818Y424D01*
X818Y422D01*
X817Y422D01*
X817Y421D01*
X816Y421D01*
X816Y420D01*
X815Y420D01*
X815Y418D01*
X814Y418D01*
X814Y417D01*
X813Y417D01*
X813Y416D01*
X812Y416D01*
X812Y414D01*
X811Y414D01*
X811Y413D01*
X810Y413D01*
X810Y412D01*
X809Y412D01*
X809Y410D01*
X808Y410D01*
X808Y408D01*
X807Y408D01*
X807Y407D01*
X806Y407D01*
X806Y406D01*
X805Y406D01*
X805Y405D01*
X804Y405D01*
X804Y404D01*
X803Y404D01*
X803Y403D01*
X802Y403D01*
X802Y401D01*
X801Y401D01*
X801Y400D01*
X800Y400D01*
X800Y399D01*
X799Y399D01*
X799Y398D01*
X798Y398D01*
X798Y397D01*
X797Y397D01*
X797Y396D01*
X796Y396D01*
X796Y395D01*
X795Y395D01*
X795Y394D01*
X793Y394D01*
X793Y393D01*
X792Y393D01*
X792Y392D01*
X796Y392D01*
X796Y393D01*
X797Y393D01*
X797Y394D01*
X798Y394D01*
X798Y395D01*
X799Y395D01*
X799Y397D01*
X800Y397D01*
X800Y398D01*
X801Y398D01*
X801Y399D01*
X802Y399D01*
X802Y400D01*
X803Y400D01*
X803Y401D01*
X805Y401D01*
X805Y403D01*
X806Y403D01*
X806Y405D01*
X807Y405D01*
X807Y406D01*
X808Y406D01*
X808Y407D01*
X809Y407D01*
X809Y408D01*
X810Y408D01*
X810Y411D01*
X811Y411D01*
X811Y412D01*
X812Y412D01*
X812Y413D01*
X814Y413D01*
X814Y416D01*
X815Y416D01*
X815Y417D01*
X816Y417D01*
X816Y419D01*
X817Y419D01*
X817Y420D01*
X818Y420D01*
X818Y421D01*
X819Y421D01*
X819Y423D01*
X820Y423D01*
X820Y424D01*
X821Y424D01*
X821Y426D01*
X822Y426D01*
X822Y427D01*
X823Y427D01*
X823Y429D01*
X824Y429D01*
X824Y430D01*
X825Y430D01*
X825Y432D01*
X826Y432D01*
X826Y434D01*
X827Y434D01*
X827Y435D01*
X828Y435D01*
X828Y437D01*
X829Y437D01*
X829Y439D01*
X830Y439D01*
X830Y440D01*
X831Y440D01*
X831Y442D01*
X832Y442D01*
X832Y444D01*
X833Y444D01*
X833Y446D01*
X834Y446D01*
X834Y448D01*
X835Y448D01*
X835Y450D01*
X836Y450D01*
X836Y452D01*
X837Y452D01*
X837Y454D01*
X838Y454D01*
X838Y456D01*
X839Y456D01*
X839Y458D01*
X840Y458D01*
X840Y461D01*
X841Y461D01*
X841Y464D01*
X842Y464D01*
X842Y466D01*
X843Y466D01*
X843Y469D01*
X844Y469D01*
X844Y471D01*
X846Y471D01*
X846Y474D01*
X847Y474D01*
X847Y476D01*
X848Y476D01*
X848Y479D01*
X849Y479D01*
X849Y482D01*
X850Y482D01*
X850Y485D01*
X851Y485D01*
X851Y487D01*
X852Y487D01*
X852Y491D01*
X853Y491D01*
X853Y494D01*
X854Y494D01*
X854Y497D01*
X855Y497D01*
X855Y500D01*
X856Y500D01*
X856Y504D01*
X857Y504D01*
X857Y508D01*
X856Y508D01*
G37*
D02*
G36*
X792Y507D02*
X792Y506D01*
X791Y506D01*
X791Y505D01*
X796Y505D01*
X796Y506D01*
X800Y506D01*
X800Y507D01*
X792Y507D01*
G37*
D02*
G36*
X619Y495D02*
X619Y494D01*
X618Y494D01*
X618Y491D01*
X617Y491D01*
X617Y487D01*
X616Y487D01*
X616Y483D01*
X615Y483D01*
X615Y477D01*
X614Y477D01*
X614Y471D01*
X613Y471D01*
X613Y466D01*
X612Y466D01*
X612Y459D01*
X611Y459D01*
X611Y455D01*
X610Y455D01*
X610Y454D01*
X609Y454D01*
X609Y453D01*
X580Y453D01*
X580Y451D01*
X579Y451D01*
X579Y445D01*
X578Y445D01*
X578Y439D01*
X577Y439D01*
X577Y435D01*
X606Y435D01*
X606Y434D01*
X607Y434D01*
X607Y430D01*
X606Y430D01*
X606Y424D01*
X605Y424D01*
X605Y419D01*
X604Y419D01*
X604Y413D01*
X603Y413D01*
X603Y406D01*
X602Y406D01*
X602Y400D01*
X601Y400D01*
X601Y395D01*
X600Y395D01*
X600Y389D01*
X599Y389D01*
X599Y383D01*
X598Y383D01*
X598Y379D01*
X622Y379D01*
X622Y381D01*
X623Y381D01*
X623Y388D01*
X624Y388D01*
X624Y394D01*
X625Y394D01*
X625Y399D01*
X626Y399D01*
X626Y405D01*
X627Y405D01*
X627Y412D01*
X628Y412D01*
X628Y417D01*
X629Y417D01*
X629Y423D01*
X630Y423D01*
X630Y429D01*
X631Y429D01*
X631Y434D01*
X632Y434D01*
X632Y435D01*
X662Y435D01*
X662Y436D01*
X663Y436D01*
X663Y441D01*
X664Y441D01*
X664Y446D01*
X665Y446D01*
X665Y452D01*
X666Y452D01*
X666Y453D01*
X636Y453D01*
X636Y454D01*
X635Y454D01*
X635Y457D01*
X636Y457D01*
X636Y464D01*
X637Y464D01*
X637Y469D01*
X638Y469D01*
X638Y475D01*
X639Y475D01*
X639Y479D01*
X640Y479D01*
X640Y483D01*
X642Y483D01*
X642Y486D01*
X643Y486D01*
X643Y488D01*
X644Y488D01*
X644Y490D01*
X645Y490D01*
X645Y491D01*
X646Y491D01*
X646Y492D01*
X647Y492D01*
X647Y493D01*
X649Y493D01*
X649Y494D01*
X652Y494D01*
X652Y495D01*
X619Y495D01*
G37*
D02*
G36*
X729Y453D02*
X729Y452D01*
X751Y452D01*
X751Y453D01*
X729Y453D01*
G37*
D02*
G36*
X752Y453D02*
X752Y452D01*
X754Y452D01*
X754Y453D01*
X752Y453D01*
G37*
D02*
G36*
X725Y452D02*
X725Y451D01*
X755Y451D01*
X755Y452D01*
X725Y452D01*
G37*
D02*
G36*
X725Y452D02*
X725Y451D01*
X755Y451D01*
X755Y452D01*
X725Y452D01*
G37*
D02*
G36*
X1034Y452D02*
X1034Y451D01*
X1029Y451D01*
X1029Y450D01*
X1026Y450D01*
X1026Y449D01*
X1023Y449D01*
X1023Y448D01*
X1021Y448D01*
X1021Y447D01*
X1018Y447D01*
X1018Y446D01*
X1017Y446D01*
X1017Y445D01*
X1015Y445D01*
X1015Y444D01*
X1013Y444D01*
X1013Y443D01*
X1012Y443D01*
X1012Y442D01*
X1010Y442D01*
X1010Y441D01*
X1009Y441D01*
X1009Y440D01*
X1007Y440D01*
X1007Y439D01*
X1006Y439D01*
X1006Y438D01*
X1005Y438D01*
X1005Y437D01*
X1004Y437D01*
X1004Y436D01*
X1002Y436D01*
X1002Y435D01*
X1001Y435D01*
X1001Y434D01*
X1034Y434D01*
X1034Y433D01*
X1038Y433D01*
X1038Y432D01*
X1040Y432D01*
X1040Y431D01*
X1041Y431D01*
X1041Y430D01*
X1042Y430D01*
X1042Y429D01*
X1043Y429D01*
X1043Y428D01*
X1044Y428D01*
X1044Y426D01*
X1045Y426D01*
X1045Y425D01*
X1046Y425D01*
X1046Y423D01*
X1071Y423D01*
X1071Y426D01*
X1070Y426D01*
X1070Y430D01*
X1069Y430D01*
X1069Y433D01*
X1068Y433D01*
X1068Y435D01*
X1067Y435D01*
X1067Y438D01*
X1066Y438D01*
X1066Y439D01*
X1065Y439D01*
X1065Y441D01*
X1064Y441D01*
X1064Y442D01*
X1063Y442D01*
X1063Y444D01*
X1062Y444D01*
X1062Y445D01*
X1061Y445D01*
X1061Y446D01*
X1059Y446D01*
X1059Y447D01*
X1058Y447D01*
X1058Y448D01*
X1056Y448D01*
X1056Y449D01*
X1054Y449D01*
X1054Y450D01*
X1051Y450D01*
X1051Y451D01*
X1046Y451D01*
X1046Y452D01*
X1034Y452D01*
G37*
D02*
G36*
X1117Y452D02*
X1117Y451D01*
X1112Y451D01*
X1112Y450D01*
X1109Y450D01*
X1109Y449D01*
X1106Y449D01*
X1106Y448D01*
X1104Y448D01*
X1104Y447D01*
X1102Y447D01*
X1102Y446D01*
X1099Y446D01*
X1099Y445D01*
X1097Y445D01*
X1097Y444D01*
X1144Y444D01*
X1144Y445D01*
X1143Y445D01*
X1143Y446D01*
X1141Y446D01*
X1141Y447D01*
X1140Y447D01*
X1140Y448D01*
X1138Y448D01*
X1138Y449D01*
X1136Y449D01*
X1136Y450D01*
X1133Y450D01*
X1133Y451D01*
X1128Y451D01*
X1128Y452D01*
X1117Y452D01*
G37*
D02*
G36*
X721Y451D02*
X721Y450D01*
X719Y450D01*
X719Y449D01*
X716Y449D01*
X716Y448D01*
X714Y448D01*
X714Y447D01*
X712Y447D01*
X712Y446D01*
X711Y446D01*
X711Y445D01*
X709Y445D01*
X709Y444D01*
X708Y444D01*
X708Y443D01*
X772Y443D01*
X772Y444D01*
X770Y444D01*
X770Y445D01*
X768Y445D01*
X768Y446D01*
X767Y446D01*
X767Y447D01*
X765Y447D01*
X765Y448D01*
X763Y448D01*
X763Y449D01*
X761Y449D01*
X761Y450D01*
X758Y450D01*
X758Y451D01*
X721Y451D01*
G37*
D02*
G36*
X971Y450D02*
X971Y444D01*
X970Y444D01*
X970Y437D01*
X969Y437D01*
X969Y430D01*
X968Y430D01*
X968Y427D01*
X992Y427D01*
X992Y436D01*
X993Y436D01*
X993Y443D01*
X994Y443D01*
X994Y450D01*
X971Y450D01*
G37*
D02*
G36*
X773Y444D02*
X773Y443D01*
X774Y443D01*
X774Y444D01*
X773Y444D01*
G37*
D02*
G36*
X1085Y444D02*
X1085Y443D01*
X1145Y443D01*
X1145Y444D01*
X1085Y444D01*
G37*
D02*
G36*
X1085Y444D02*
X1085Y443D01*
X1145Y443D01*
X1145Y444D01*
X1085Y444D01*
G37*
D02*
G36*
X706Y443D02*
X706Y442D01*
X774Y442D01*
X774Y443D01*
X706Y443D01*
G37*
D02*
G36*
X706Y443D02*
X706Y442D01*
X774Y442D01*
X774Y443D01*
X706Y443D01*
G37*
D02*
G36*
X1086Y443D02*
X1086Y442D01*
X1087Y442D01*
X1087Y440D01*
X1088Y440D01*
X1088Y438D01*
X1087Y438D01*
X1087Y437D01*
X1086Y437D01*
X1086Y436D01*
X1085Y436D01*
X1085Y435D01*
X1084Y435D01*
X1084Y434D01*
X1119Y434D01*
X1119Y433D01*
X1122Y433D01*
X1122Y432D01*
X1124Y432D01*
X1124Y431D01*
X1125Y431D01*
X1125Y430D01*
X1126Y430D01*
X1126Y429D01*
X1127Y429D01*
X1127Y428D01*
X1128Y428D01*
X1128Y426D01*
X1129Y426D01*
X1129Y424D01*
X1130Y424D01*
X1130Y420D01*
X1131Y420D01*
X1131Y406D01*
X1130Y406D01*
X1130Y399D01*
X1129Y399D01*
X1129Y392D01*
X1128Y392D01*
X1128Y385D01*
X1127Y385D01*
X1127Y378D01*
X1126Y378D01*
X1126Y371D01*
X1125Y371D01*
X1125Y364D01*
X1124Y364D01*
X1124Y356D01*
X1123Y356D01*
X1123Y349D01*
X1122Y349D01*
X1122Y342D01*
X1121Y342D01*
X1121Y335D01*
X1120Y335D01*
X1120Y327D01*
X1119Y327D01*
X1119Y320D01*
X1118Y320D01*
X1118Y315D01*
X1123Y315D01*
X1123Y314D01*
X1124Y314D01*
X1124Y301D01*
X1123Y301D01*
X1123Y293D01*
X1122Y293D01*
X1122Y287D01*
X1121Y287D01*
X1121Y281D01*
X1120Y281D01*
X1120Y277D01*
X1119Y277D01*
X1119Y272D01*
X1118Y272D01*
X1118Y269D01*
X1117Y269D01*
X1117Y265D01*
X1116Y265D01*
X1116Y261D01*
X1115Y261D01*
X1115Y258D01*
X1114Y258D01*
X1114Y254D01*
X1113Y254D01*
X1113Y251D01*
X1112Y251D01*
X1112Y249D01*
X1111Y249D01*
X1111Y246D01*
X1110Y246D01*
X1110Y243D01*
X1109Y243D01*
X1109Y241D01*
X1108Y241D01*
X1108Y239D01*
X1107Y239D01*
X1107Y236D01*
X1106Y236D01*
X1106Y234D01*
X1105Y234D01*
X1105Y232D01*
X1104Y232D01*
X1104Y230D01*
X1103Y230D01*
X1103Y228D01*
X1102Y228D01*
X1102Y226D01*
X1101Y226D01*
X1101Y224D01*
X1099Y224D01*
X1099Y222D01*
X1098Y222D01*
X1098Y220D01*
X1097Y220D01*
X1097Y218D01*
X1096Y218D01*
X1096Y216D01*
X1095Y216D01*
X1095Y215D01*
X1094Y215D01*
X1094Y213D01*
X1093Y213D01*
X1093Y211D01*
X1092Y211D01*
X1092Y210D01*
X1091Y210D01*
X1091Y208D01*
X1090Y208D01*
X1090Y207D01*
X1089Y207D01*
X1089Y204D01*
X1088Y204D01*
X1088Y203D01*
X1087Y203D01*
X1087Y201D01*
X1086Y201D01*
X1086Y200D01*
X1085Y200D01*
X1085Y198D01*
X1084Y198D01*
X1084Y197D01*
X1083Y197D01*
X1083Y195D01*
X1082Y195D01*
X1082Y194D01*
X1081Y194D01*
X1081Y193D01*
X1080Y193D01*
X1080Y191D01*
X1079Y191D01*
X1079Y190D01*
X1078Y190D01*
X1078Y189D01*
X1077Y189D01*
X1077Y188D01*
X1076Y188D01*
X1076Y186D01*
X1075Y186D01*
X1075Y185D01*
X1074Y185D01*
X1074Y184D01*
X1073Y184D01*
X1073Y183D01*
X1072Y183D01*
X1072Y182D01*
X1071Y182D01*
X1071Y180D01*
X1070Y180D01*
X1070Y179D01*
X1069Y179D01*
X1069Y178D01*
X1068Y178D01*
X1068Y177D01*
X1067Y177D01*
X1067Y176D01*
X1066Y176D01*
X1066Y175D01*
X1065Y175D01*
X1065Y174D01*
X1064Y174D01*
X1064Y173D01*
X1063Y173D01*
X1063Y172D01*
X1062Y172D01*
X1062Y171D01*
X1061Y171D01*
X1061Y170D01*
X1060Y170D01*
X1060Y169D01*
X1059Y169D01*
X1059Y168D01*
X1058Y168D01*
X1058Y167D01*
X1057Y167D01*
X1057Y166D01*
X1056Y166D01*
X1056Y165D01*
X1055Y165D01*
X1055Y164D01*
X1054Y164D01*
X1054Y163D01*
X1053Y163D01*
X1053Y162D01*
X1052Y162D01*
X1052Y161D01*
X1051Y161D01*
X1051Y160D01*
X1050Y160D01*
X1050Y159D01*
X1048Y159D01*
X1048Y158D01*
X1046Y158D01*
X1046Y157D01*
X1045Y157D01*
X1045Y156D01*
X1044Y156D01*
X1044Y155D01*
X1043Y155D01*
X1043Y153D01*
X1042Y153D01*
X1042Y152D01*
X1041Y152D01*
X1041Y151D01*
X1039Y151D01*
X1039Y150D01*
X1038Y150D01*
X1038Y149D01*
X1037Y149D01*
X1037Y148D01*
X1036Y148D01*
X1036Y147D01*
X1034Y147D01*
X1034Y146D01*
X1033Y146D01*
X1033Y145D01*
X1031Y145D01*
X1031Y144D01*
X1030Y144D01*
X1030Y143D01*
X1029Y143D01*
X1029Y142D01*
X1027Y142D01*
X1027Y141D01*
X1026Y141D01*
X1026Y140D01*
X1024Y140D01*
X1024Y139D01*
X1023Y139D01*
X1023Y138D01*
X1021Y138D01*
X1021Y137D01*
X1020Y137D01*
X1020Y136D01*
X1018Y136D01*
X1018Y135D01*
X1016Y135D01*
X1016Y134D01*
X1015Y134D01*
X1015Y133D01*
X1013Y133D01*
X1013Y132D01*
X1011Y132D01*
X1011Y131D01*
X1010Y131D01*
X1010Y130D01*
X1008Y130D01*
X1008Y129D01*
X1006Y129D01*
X1006Y128D01*
X1004Y128D01*
X1004Y127D01*
X1002Y127D01*
X1002Y126D01*
X1000Y126D01*
X1000Y125D01*
X997Y125D01*
X997Y124D01*
X994Y124D01*
X994Y123D01*
X992Y123D01*
X992Y122D01*
X990Y122D01*
X990Y121D01*
X988Y121D01*
X988Y120D01*
X985Y120D01*
X985Y119D01*
X983Y119D01*
X983Y118D01*
X980Y118D01*
X980Y117D01*
X977Y117D01*
X977Y116D01*
X974Y116D01*
X974Y115D01*
X971Y115D01*
X971Y114D01*
X968Y114D01*
X968Y113D01*
X964Y113D01*
X964Y112D01*
X961Y112D01*
X961Y111D01*
X956Y111D01*
X956Y110D01*
X951Y110D01*
X951Y109D01*
X945Y109D01*
X945Y108D01*
X939Y108D01*
X939Y107D01*
X931Y107D01*
X931Y106D01*
X915Y106D01*
X915Y105D01*
X973Y105D01*
X973Y106D01*
X976Y106D01*
X976Y107D01*
X979Y107D01*
X979Y108D01*
X982Y108D01*
X982Y109D01*
X985Y109D01*
X985Y110D01*
X987Y110D01*
X987Y111D01*
X990Y111D01*
X990Y112D01*
X992Y112D01*
X992Y113D01*
X994Y113D01*
X994Y114D01*
X997Y114D01*
X997Y115D01*
X1000Y115D01*
X1000Y116D01*
X1002Y116D01*
X1002Y117D01*
X1004Y117D01*
X1004Y118D01*
X1006Y118D01*
X1006Y119D01*
X1008Y119D01*
X1008Y120D01*
X1010Y120D01*
X1010Y121D01*
X1012Y121D01*
X1012Y122D01*
X1014Y122D01*
X1014Y123D01*
X1016Y123D01*
X1016Y124D01*
X1017Y124D01*
X1017Y125D01*
X1019Y125D01*
X1019Y126D01*
X1021Y126D01*
X1021Y127D01*
X1023Y127D01*
X1023Y128D01*
X1024Y128D01*
X1024Y129D01*
X1026Y129D01*
X1026Y130D01*
X1027Y130D01*
X1027Y131D01*
X1029Y131D01*
X1029Y132D01*
X1030Y132D01*
X1030Y133D01*
X1032Y133D01*
X1032Y134D01*
X1033Y134D01*
X1033Y135D01*
X1035Y135D01*
X1035Y136D01*
X1036Y136D01*
X1036Y137D01*
X1038Y137D01*
X1038Y138D01*
X1039Y138D01*
X1039Y139D01*
X1040Y139D01*
X1040Y140D01*
X1042Y140D01*
X1042Y141D01*
X1043Y141D01*
X1043Y142D01*
X1044Y142D01*
X1044Y143D01*
X1045Y143D01*
X1045Y144D01*
X1047Y144D01*
X1047Y145D01*
X1048Y145D01*
X1048Y146D01*
X1050Y146D01*
X1050Y147D01*
X1051Y147D01*
X1051Y148D01*
X1053Y148D01*
X1053Y149D01*
X1054Y149D01*
X1054Y150D01*
X1055Y150D01*
X1055Y151D01*
X1056Y151D01*
X1056Y152D01*
X1057Y152D01*
X1057Y153D01*
X1058Y153D01*
X1058Y155D01*
X1059Y155D01*
X1059Y156D01*
X1061Y156D01*
X1061Y157D01*
X1062Y157D01*
X1062Y158D01*
X1063Y158D01*
X1063Y159D01*
X1064Y159D01*
X1064Y160D01*
X1065Y160D01*
X1065Y161D01*
X1066Y161D01*
X1066Y162D01*
X1067Y162D01*
X1067Y163D01*
X1068Y163D01*
X1068Y164D01*
X1069Y164D01*
X1069Y165D01*
X1070Y165D01*
X1070Y166D01*
X1071Y166D01*
X1071Y168D01*
X1072Y168D01*
X1072Y169D01*
X1073Y169D01*
X1073Y170D01*
X1074Y170D01*
X1074Y171D01*
X1075Y171D01*
X1075Y172D01*
X1076Y172D01*
X1076Y173D01*
X1077Y173D01*
X1077Y174D01*
X1078Y174D01*
X1078Y175D01*
X1079Y175D01*
X1079Y177D01*
X1080Y177D01*
X1080Y178D01*
X1081Y178D01*
X1081Y179D01*
X1082Y179D01*
X1082Y180D01*
X1083Y180D01*
X1083Y181D01*
X1084Y181D01*
X1084Y183D01*
X1085Y183D01*
X1085Y184D01*
X1086Y184D01*
X1086Y185D01*
X1087Y185D01*
X1087Y187D01*
X1088Y187D01*
X1088Y188D01*
X1089Y188D01*
X1089Y189D01*
X1090Y189D01*
X1090Y191D01*
X1091Y191D01*
X1091Y192D01*
X1092Y192D01*
X1092Y194D01*
X1093Y194D01*
X1093Y195D01*
X1094Y195D01*
X1094Y197D01*
X1095Y197D01*
X1095Y198D01*
X1096Y198D01*
X1096Y199D01*
X1097Y199D01*
X1097Y201D01*
X1098Y201D01*
X1098Y203D01*
X1099Y203D01*
X1099Y204D01*
X1101Y204D01*
X1101Y207D01*
X1102Y207D01*
X1102Y209D01*
X1103Y209D01*
X1103Y210D01*
X1104Y210D01*
X1104Y212D01*
X1105Y212D01*
X1105Y214D01*
X1106Y214D01*
X1106Y216D01*
X1107Y216D01*
X1107Y218D01*
X1108Y218D01*
X1108Y219D01*
X1109Y219D01*
X1109Y221D01*
X1110Y221D01*
X1110Y223D01*
X1111Y223D01*
X1111Y225D01*
X1112Y225D01*
X1112Y227D01*
X1113Y227D01*
X1113Y230D01*
X1114Y230D01*
X1114Y232D01*
X1115Y232D01*
X1115Y234D01*
X1116Y234D01*
X1116Y236D01*
X1117Y236D01*
X1117Y239D01*
X1118Y239D01*
X1118Y241D01*
X1119Y241D01*
X1119Y244D01*
X1120Y244D01*
X1120Y247D01*
X1121Y247D01*
X1121Y249D01*
X1122Y249D01*
X1122Y252D01*
X1123Y252D01*
X1123Y257D01*
X1124Y257D01*
X1124Y260D01*
X1125Y260D01*
X1125Y263D01*
X1126Y263D01*
X1126Y267D01*
X1127Y267D01*
X1127Y271D01*
X1128Y271D01*
X1128Y275D01*
X1129Y275D01*
X1129Y280D01*
X1130Y280D01*
X1130Y285D01*
X1131Y285D01*
X1131Y291D01*
X1132Y291D01*
X1132Y299D01*
X1133Y299D01*
X1133Y312D01*
X1134Y312D01*
X1134Y315D01*
X1141Y315D01*
X1141Y319D01*
X1142Y319D01*
X1142Y326D01*
X1143Y326D01*
X1143Y333D01*
X1144Y333D01*
X1144Y340D01*
X1145Y340D01*
X1145Y347D01*
X1146Y347D01*
X1146Y354D01*
X1147Y354D01*
X1147Y362D01*
X1148Y362D01*
X1148Y369D01*
X1149Y369D01*
X1149Y376D01*
X1150Y376D01*
X1150Y383D01*
X1152Y383D01*
X1152Y390D01*
X1153Y390D01*
X1153Y397D01*
X1154Y397D01*
X1154Y405D01*
X1155Y405D01*
X1155Y425D01*
X1154Y425D01*
X1154Y429D01*
X1153Y429D01*
X1153Y432D01*
X1152Y432D01*
X1152Y435D01*
X1150Y435D01*
X1150Y437D01*
X1149Y437D01*
X1149Y439D01*
X1148Y439D01*
X1148Y440D01*
X1147Y440D01*
X1147Y441D01*
X1146Y441D01*
X1146Y443D01*
X1086Y443D01*
G37*
D02*
G36*
X705Y442D02*
X705Y441D01*
X704Y441D01*
X704Y440D01*
X703Y440D01*
X703Y439D01*
X701Y439D01*
X701Y438D01*
X700Y438D01*
X700Y437D01*
X699Y437D01*
X699Y435D01*
X747Y435D01*
X747Y434D01*
X779Y434D01*
X779Y435D01*
X778Y435D01*
X778Y437D01*
X777Y437D01*
X777Y438D01*
X776Y438D01*
X776Y440D01*
X775Y440D01*
X775Y442D01*
X705Y442D01*
G37*
D02*
G36*
X698Y435D02*
X698Y434D01*
X697Y434D01*
X697Y433D01*
X696Y433D01*
X696Y432D01*
X695Y432D01*
X695Y431D01*
X694Y431D01*
X694Y429D01*
X693Y429D01*
X693Y428D01*
X691Y428D01*
X691Y426D01*
X690Y426D01*
X690Y425D01*
X689Y425D01*
X689Y423D01*
X688Y423D01*
X688Y422D01*
X687Y422D01*
X687Y420D01*
X686Y420D01*
X686Y418D01*
X685Y418D01*
X685Y416D01*
X684Y416D01*
X684Y414D01*
X683Y414D01*
X683Y411D01*
X682Y411D01*
X682Y408D01*
X681Y408D01*
X681Y405D01*
X680Y405D01*
X680Y401D01*
X679Y401D01*
X679Y398D01*
X678Y398D01*
X678Y393D01*
X677Y393D01*
X677Y386D01*
X676Y386D01*
X676Y359D01*
X677Y359D01*
X677Y352D01*
X678Y352D01*
X678Y348D01*
X679Y348D01*
X679Y344D01*
X680Y344D01*
X680Y342D01*
X681Y342D01*
X681Y339D01*
X682Y339D01*
X682Y337D01*
X683Y337D01*
X683Y335D01*
X684Y335D01*
X684Y333D01*
X685Y333D01*
X685Y332D01*
X686Y332D01*
X686Y331D01*
X723Y331D01*
X723Y332D01*
X718Y332D01*
X718Y333D01*
X716Y333D01*
X716Y334D01*
X715Y334D01*
X715Y335D01*
X713Y335D01*
X713Y336D01*
X712Y336D01*
X712Y337D01*
X711Y337D01*
X711Y338D01*
X710Y338D01*
X710Y339D01*
X709Y339D01*
X709Y340D01*
X708Y340D01*
X708Y342D01*
X707Y342D01*
X707Y343D01*
X706Y343D01*
X706Y345D01*
X705Y345D01*
X705Y347D01*
X704Y347D01*
X704Y349D01*
X703Y349D01*
X703Y352D01*
X702Y352D01*
X702Y356D01*
X701Y356D01*
X701Y384D01*
X702Y384D01*
X702Y390D01*
X703Y390D01*
X703Y395D01*
X704Y395D01*
X704Y399D01*
X705Y399D01*
X705Y402D01*
X706Y402D01*
X706Y404D01*
X707Y404D01*
X707Y407D01*
X708Y407D01*
X708Y410D01*
X709Y410D01*
X709Y412D01*
X710Y412D01*
X710Y414D01*
X711Y414D01*
X711Y416D01*
X712Y416D01*
X712Y417D01*
X713Y417D01*
X713Y419D01*
X714Y419D01*
X714Y420D01*
X715Y420D01*
X715Y422D01*
X716Y422D01*
X716Y423D01*
X717Y423D01*
X717Y424D01*
X718Y424D01*
X718Y425D01*
X719Y425D01*
X719Y426D01*
X720Y426D01*
X720Y428D01*
X722Y428D01*
X722Y429D01*
X723Y429D01*
X723Y430D01*
X724Y430D01*
X724Y431D01*
X726Y431D01*
X726Y432D01*
X727Y432D01*
X727Y433D01*
X729Y433D01*
X729Y434D01*
X732Y434D01*
X732Y435D01*
X698Y435D01*
G37*
D02*
G36*
X750Y434D02*
X750Y433D01*
X790Y433D01*
X790Y434D01*
X750Y434D01*
G37*
D02*
G36*
X750Y434D02*
X750Y433D01*
X790Y433D01*
X790Y434D01*
X750Y434D01*
G37*
D02*
G36*
X841Y434D02*
X841Y433D01*
X839Y433D01*
X839Y432D01*
X838Y432D01*
X838Y431D01*
X837Y431D01*
X837Y430D01*
X836Y430D01*
X836Y429D01*
X835Y429D01*
X835Y428D01*
X834Y428D01*
X834Y426D01*
X833Y426D01*
X833Y425D01*
X832Y425D01*
X832Y424D01*
X831Y424D01*
X831Y423D01*
X830Y423D01*
X830Y421D01*
X829Y421D01*
X829Y420D01*
X828Y420D01*
X828Y419D01*
X827Y419D01*
X827Y417D01*
X826Y417D01*
X826Y415D01*
X825Y415D01*
X825Y414D01*
X824Y414D01*
X824Y412D01*
X823Y412D01*
X823Y410D01*
X822Y410D01*
X822Y407D01*
X821Y407D01*
X821Y406D01*
X820Y406D01*
X820Y402D01*
X819Y402D01*
X819Y400D01*
X818Y400D01*
X818Y397D01*
X817Y397D01*
X817Y394D01*
X816Y394D01*
X816Y393D01*
X815Y393D01*
X815Y392D01*
X816Y392D01*
X816Y389D01*
X815Y389D01*
X815Y384D01*
X814Y384D01*
X814Y377D01*
X813Y377D01*
X813Y370D01*
X812Y370D01*
X812Y366D01*
X811Y366D01*
X811Y365D01*
X812Y365D01*
X812Y359D01*
X813Y359D01*
X813Y357D01*
X814Y357D01*
X814Y351D01*
X815Y351D01*
X815Y347D01*
X816Y347D01*
X816Y344D01*
X817Y344D01*
X817Y341D01*
X818Y341D01*
X818Y339D01*
X819Y339D01*
X819Y337D01*
X820Y337D01*
X820Y335D01*
X821Y335D01*
X821Y334D01*
X822Y334D01*
X822Y332D01*
X823Y332D01*
X823Y331D01*
X859Y331D01*
X859Y332D01*
X856Y332D01*
X856Y333D01*
X854Y333D01*
X854Y334D01*
X853Y334D01*
X853Y335D01*
X851Y335D01*
X851Y336D01*
X850Y336D01*
X850Y337D01*
X849Y337D01*
X849Y338D01*
X848Y338D01*
X848Y339D01*
X847Y339D01*
X847Y340D01*
X846Y340D01*
X846Y342D01*
X844Y342D01*
X844Y343D01*
X843Y343D01*
X843Y345D01*
X842Y345D01*
X842Y346D01*
X841Y346D01*
X841Y349D01*
X840Y349D01*
X840Y351D01*
X839Y351D01*
X839Y354D01*
X838Y354D01*
X838Y360D01*
X837Y360D01*
X837Y381D01*
X838Y381D01*
X838Y386D01*
X839Y386D01*
X839Y390D01*
X840Y390D01*
X840Y393D01*
X841Y393D01*
X841Y396D01*
X842Y396D01*
X842Y398D01*
X843Y398D01*
X843Y400D01*
X844Y400D01*
X844Y402D01*
X846Y402D01*
X846Y404D01*
X847Y404D01*
X847Y405D01*
X848Y405D01*
X848Y407D01*
X849Y407D01*
X849Y408D01*
X850Y408D01*
X850Y411D01*
X851Y411D01*
X851Y412D01*
X852Y412D01*
X852Y413D01*
X853Y413D01*
X853Y415D01*
X854Y415D01*
X854Y416D01*
X855Y416D01*
X855Y417D01*
X856Y417D01*
X856Y418D01*
X857Y418D01*
X857Y419D01*
X858Y419D01*
X858Y420D01*
X859Y420D01*
X859Y421D01*
X860Y421D01*
X860Y422D01*
X861Y422D01*
X861Y423D01*
X863Y423D01*
X863Y424D01*
X864Y424D01*
X864Y425D01*
X866Y425D01*
X866Y426D01*
X867Y426D01*
X867Y427D01*
X869Y427D01*
X869Y428D01*
X871Y428D01*
X871Y429D01*
X874Y429D01*
X874Y430D01*
X876Y430D01*
X876Y431D01*
X880Y431D01*
X880Y432D01*
X884Y432D01*
X884Y433D01*
X892Y433D01*
X892Y434D01*
X841Y434D01*
G37*
D02*
G36*
X1000Y434D02*
X1000Y433D01*
X999Y433D01*
X999Y432D01*
X997Y432D01*
X997Y431D01*
X996Y431D01*
X996Y430D01*
X995Y430D01*
X995Y429D01*
X994Y429D01*
X994Y428D01*
X993Y428D01*
X993Y427D01*
X1014Y427D01*
X1014Y428D01*
X1015Y428D01*
X1015Y429D01*
X1017Y429D01*
X1017Y430D01*
X1018Y430D01*
X1018Y431D01*
X1020Y431D01*
X1020Y432D01*
X1023Y432D01*
X1023Y433D01*
X1026Y433D01*
X1026Y434D01*
X1000Y434D01*
G37*
D02*
G36*
X1083Y434D02*
X1083Y433D01*
X1082Y433D01*
X1082Y432D01*
X1081Y432D01*
X1081Y431D01*
X1080Y431D01*
X1080Y430D01*
X1079Y430D01*
X1079Y429D01*
X1078Y429D01*
X1078Y428D01*
X1077Y428D01*
X1077Y427D01*
X1076Y427D01*
X1076Y426D01*
X1075Y426D01*
X1075Y425D01*
X1074Y425D01*
X1074Y424D01*
X1073Y424D01*
X1073Y423D01*
X1090Y423D01*
X1090Y424D01*
X1092Y424D01*
X1092Y425D01*
X1093Y425D01*
X1093Y426D01*
X1094Y426D01*
X1094Y427D01*
X1096Y427D01*
X1096Y428D01*
X1098Y428D01*
X1098Y429D01*
X1101Y429D01*
X1101Y430D01*
X1103Y430D01*
X1103Y431D01*
X1105Y431D01*
X1105Y432D01*
X1107Y432D01*
X1107Y433D01*
X1111Y433D01*
X1111Y434D01*
X1083Y434D01*
G37*
D02*
G36*
X752Y433D02*
X752Y432D01*
X753Y432D01*
X753Y431D01*
X754Y431D01*
X754Y430D01*
X755Y430D01*
X755Y429D01*
X756Y429D01*
X756Y428D01*
X757Y428D01*
X757Y427D01*
X758Y427D01*
X758Y426D01*
X759Y426D01*
X759Y424D01*
X760Y424D01*
X760Y423D01*
X761Y423D01*
X761Y421D01*
X762Y421D01*
X762Y419D01*
X763Y419D01*
X763Y416D01*
X764Y416D01*
X764Y413D01*
X765Y413D01*
X765Y406D01*
X766Y406D01*
X766Y392D01*
X790Y392D01*
X790Y404D01*
X789Y404D01*
X789Y412D01*
X788Y412D01*
X788Y420D01*
X787Y420D01*
X787Y421D01*
X786Y421D01*
X786Y423D01*
X785Y423D01*
X785Y428D01*
X786Y428D01*
X786Y429D01*
X787Y429D01*
X787Y430D01*
X788Y430D01*
X788Y432D01*
X789Y432D01*
X789Y433D01*
X752Y433D01*
G37*
D02*
G36*
X968Y427D02*
X968Y426D01*
X1012Y426D01*
X1012Y427D01*
X968Y427D01*
G37*
D02*
G36*
X968Y427D02*
X968Y426D01*
X1012Y426D01*
X1012Y427D01*
X968Y427D01*
G37*
D02*
G36*
X968Y426D02*
X968Y423D01*
X967Y423D01*
X967Y416D01*
X966Y416D01*
X966Y408D01*
X965Y408D01*
X965Y401D01*
X964Y401D01*
X964Y394D01*
X963Y394D01*
X963Y387D01*
X962Y387D01*
X962Y380D01*
X961Y380D01*
X961Y376D01*
X960Y376D01*
X960Y373D01*
X984Y373D01*
X984Y379D01*
X985Y379D01*
X985Y386D01*
X986Y386D01*
X986Y393D01*
X987Y393D01*
X987Y400D01*
X988Y400D01*
X988Y403D01*
X989Y403D01*
X989Y405D01*
X990Y405D01*
X990Y406D01*
X991Y406D01*
X991Y407D01*
X992Y407D01*
X992Y408D01*
X993Y408D01*
X993Y410D01*
X994Y410D01*
X994Y411D01*
X995Y411D01*
X995Y412D01*
X996Y412D01*
X996Y413D01*
X997Y413D01*
X997Y414D01*
X999Y414D01*
X999Y415D01*
X1000Y415D01*
X1000Y416D01*
X1001Y416D01*
X1001Y417D01*
X1002Y417D01*
X1002Y418D01*
X1003Y418D01*
X1003Y419D01*
X1004Y419D01*
X1004Y420D01*
X1005Y420D01*
X1005Y421D01*
X1006Y421D01*
X1006Y422D01*
X1007Y422D01*
X1007Y423D01*
X1008Y423D01*
X1008Y424D01*
X1010Y424D01*
X1010Y425D01*
X1011Y425D01*
X1011Y426D01*
X968Y426D01*
G37*
D02*
G36*
X1046Y423D02*
X1046Y422D01*
X1089Y422D01*
X1089Y423D01*
X1046Y423D01*
G37*
D02*
G36*
X1046Y423D02*
X1046Y422D01*
X1089Y422D01*
X1089Y423D01*
X1046Y423D01*
G37*
D02*
G36*
X1047Y422D02*
X1047Y401D01*
X1046Y401D01*
X1046Y394D01*
X1045Y394D01*
X1045Y386D01*
X1044Y386D01*
X1044Y379D01*
X1043Y379D01*
X1043Y372D01*
X1042Y372D01*
X1042Y365D01*
X1041Y365D01*
X1041Y357D01*
X1040Y357D01*
X1040Y350D01*
X1039Y350D01*
X1039Y343D01*
X1038Y343D01*
X1038Y336D01*
X1037Y336D01*
X1037Y329D01*
X1036Y329D01*
X1036Y322D01*
X1035Y322D01*
X1035Y315D01*
X1059Y315D01*
X1059Y321D01*
X1060Y321D01*
X1060Y328D01*
X1061Y328D01*
X1061Y335D01*
X1062Y335D01*
X1062Y342D01*
X1063Y342D01*
X1063Y349D01*
X1064Y349D01*
X1064Y356D01*
X1065Y356D01*
X1065Y364D01*
X1066Y364D01*
X1066Y371D01*
X1067Y371D01*
X1067Y378D01*
X1068Y378D01*
X1068Y385D01*
X1069Y385D01*
X1069Y392D01*
X1070Y392D01*
X1070Y400D01*
X1071Y400D01*
X1071Y403D01*
X1072Y403D01*
X1072Y405D01*
X1073Y405D01*
X1073Y406D01*
X1074Y406D01*
X1074Y407D01*
X1075Y407D01*
X1075Y408D01*
X1076Y408D01*
X1076Y411D01*
X1077Y411D01*
X1077Y412D01*
X1078Y412D01*
X1078Y413D01*
X1079Y413D01*
X1079Y414D01*
X1080Y414D01*
X1080Y415D01*
X1081Y415D01*
X1081Y416D01*
X1082Y416D01*
X1082Y417D01*
X1084Y417D01*
X1084Y418D01*
X1085Y418D01*
X1085Y419D01*
X1086Y419D01*
X1086Y420D01*
X1087Y420D01*
X1087Y421D01*
X1088Y421D01*
X1088Y422D01*
X1047Y422D01*
G37*
D02*
G36*
X906Y405D02*
X906Y400D01*
X905Y400D01*
X905Y393D01*
X904Y393D01*
X904Y386D01*
X903Y386D01*
X903Y379D01*
X902Y379D01*
X902Y372D01*
X901Y372D01*
X901Y365D01*
X900Y365D01*
X900Y357D01*
X899Y357D01*
X899Y352D01*
X898Y352D01*
X898Y351D01*
X897Y351D01*
X897Y350D01*
X895Y350D01*
X895Y349D01*
X894Y349D01*
X894Y348D01*
X893Y348D01*
X893Y347D01*
X892Y347D01*
X892Y346D01*
X891Y346D01*
X891Y345D01*
X890Y345D01*
X890Y344D01*
X889Y344D01*
X889Y343D01*
X888Y343D01*
X888Y342D01*
X887Y342D01*
X887Y341D01*
X886Y341D01*
X886Y340D01*
X884Y340D01*
X884Y339D01*
X883Y339D01*
X883Y338D01*
X882Y338D01*
X882Y337D01*
X880Y337D01*
X880Y336D01*
X879Y336D01*
X879Y335D01*
X877Y335D01*
X877Y334D01*
X875Y334D01*
X875Y333D01*
X873Y333D01*
X873Y332D01*
X870Y332D01*
X870Y331D01*
X894Y331D01*
X894Y321D01*
X893Y321D01*
X893Y315D01*
X917Y315D01*
X917Y321D01*
X918Y321D01*
X918Y328D01*
X919Y328D01*
X919Y335D01*
X920Y335D01*
X920Y342D01*
X921Y342D01*
X921Y349D01*
X922Y349D01*
X922Y356D01*
X923Y356D01*
X923Y364D01*
X924Y364D01*
X924Y371D01*
X925Y371D01*
X925Y378D01*
X926Y378D01*
X926Y385D01*
X927Y385D01*
X927Y392D01*
X928Y392D01*
X928Y399D01*
X929Y399D01*
X929Y405D01*
X906Y405D01*
G37*
D02*
G36*
X631Y394D02*
X631Y393D01*
X630Y393D01*
X630Y391D01*
X629Y391D01*
X629Y389D01*
X628Y389D01*
X628Y387D01*
X627Y387D01*
X627Y385D01*
X626Y385D01*
X626Y384D01*
X625Y384D01*
X625Y382D01*
X624Y382D01*
X624Y380D01*
X623Y380D01*
X623Y379D01*
X626Y379D01*
X626Y382D01*
X627Y382D01*
X627Y384D01*
X628Y384D01*
X628Y386D01*
X629Y386D01*
X629Y388D01*
X630Y388D01*
X630Y390D01*
X631Y390D01*
X631Y392D01*
X632Y392D01*
X632Y394D01*
X631Y394D01*
G37*
D02*
G36*
X766Y392D02*
X766Y391D01*
X795Y391D01*
X795Y392D01*
X766Y392D01*
G37*
D02*
G36*
X766Y392D02*
X766Y391D01*
X795Y391D01*
X795Y392D01*
X766Y392D01*
G37*
D02*
G36*
X766Y391D02*
X766Y385D01*
X765Y385D01*
X765Y378D01*
X764Y378D01*
X764Y373D01*
X763Y373D01*
X763Y370D01*
X762Y370D01*
X762Y366D01*
X761Y366D01*
X761Y364D01*
X760Y364D01*
X760Y361D01*
X759Y361D01*
X759Y359D01*
X758Y359D01*
X758Y356D01*
X757Y356D01*
X757Y354D01*
X756Y354D01*
X756Y352D01*
X755Y352D01*
X755Y351D01*
X754Y351D01*
X754Y349D01*
X753Y349D01*
X753Y348D01*
X752Y348D01*
X752Y346D01*
X751Y346D01*
X751Y345D01*
X750Y345D01*
X750Y344D01*
X749Y344D01*
X749Y343D01*
X748Y343D01*
X748Y342D01*
X747Y342D01*
X747Y341D01*
X746Y341D01*
X746Y340D01*
X745Y340D01*
X745Y339D01*
X744Y339D01*
X744Y338D01*
X742Y338D01*
X742Y337D01*
X740Y337D01*
X740Y336D01*
X739Y336D01*
X739Y335D01*
X737Y335D01*
X737Y334D01*
X735Y334D01*
X735Y333D01*
X733Y333D01*
X733Y332D01*
X728Y332D01*
X728Y331D01*
X768Y331D01*
X768Y332D01*
X769Y332D01*
X769Y333D01*
X770Y333D01*
X770Y334D01*
X771Y334D01*
X771Y335D01*
X772Y335D01*
X772Y337D01*
X773Y337D01*
X773Y338D01*
X774Y338D01*
X774Y340D01*
X775Y340D01*
X775Y341D01*
X776Y341D01*
X776Y343D01*
X777Y343D01*
X777Y344D01*
X778Y344D01*
X778Y346D01*
X779Y346D01*
X779Y348D01*
X780Y348D01*
X780Y350D01*
X781Y350D01*
X781Y352D01*
X782Y352D01*
X782Y354D01*
X783Y354D01*
X783Y357D01*
X784Y357D01*
X784Y361D01*
X785Y361D01*
X785Y364D01*
X786Y364D01*
X786Y368D01*
X787Y368D01*
X787Y372D01*
X788Y372D01*
X788Y378D01*
X789Y378D01*
X789Y386D01*
X790Y386D01*
X790Y388D01*
X791Y388D01*
X791Y389D01*
X792Y389D01*
X792Y390D01*
X793Y390D01*
X793Y391D01*
X766Y391D01*
G37*
D02*
G36*
X598Y379D02*
X598Y378D01*
X625Y378D01*
X625Y379D01*
X598Y379D01*
G37*
D02*
G36*
X598Y379D02*
X598Y378D01*
X625Y378D01*
X625Y379D01*
X598Y379D01*
G37*
D02*
G36*
X598Y378D02*
X598Y377D01*
X597Y377D01*
X597Y372D01*
X596Y372D01*
X596Y367D01*
X595Y367D01*
X595Y366D01*
X594Y366D01*
X594Y365D01*
X621Y365D01*
X621Y368D01*
X622Y368D01*
X622Y371D01*
X623Y371D01*
X623Y374D01*
X624Y374D01*
X624Y377D01*
X625Y377D01*
X625Y378D01*
X598Y378D01*
G37*
D02*
G36*
X957Y373D02*
X957Y372D01*
X984Y372D01*
X984Y373D01*
X957Y373D01*
G37*
D02*
G36*
X957Y373D02*
X957Y372D01*
X984Y372D01*
X984Y373D01*
X957Y373D01*
G37*
D02*
G36*
X957Y372D02*
X957Y371D01*
X958Y371D01*
X958Y368D01*
X959Y368D01*
X959Y359D01*
X958Y359D01*
X958Y351D01*
X957Y351D01*
X957Y344D01*
X956Y344D01*
X956Y337D01*
X955Y337D01*
X955Y329D01*
X954Y329D01*
X954Y322D01*
X953Y322D01*
X953Y315D01*
X965Y315D01*
X965Y308D01*
X964Y308D01*
X964Y302D01*
X963Y302D01*
X963Y299D01*
X962Y299D01*
X962Y295D01*
X961Y295D01*
X961Y293D01*
X960Y293D01*
X960Y290D01*
X959Y290D01*
X959Y287D01*
X958Y287D01*
X958Y285D01*
X957Y285D01*
X957Y283D01*
X956Y283D01*
X956Y281D01*
X955Y281D01*
X955Y279D01*
X954Y279D01*
X954Y277D01*
X953Y277D01*
X953Y275D01*
X952Y275D01*
X952Y274D01*
X951Y274D01*
X951Y272D01*
X950Y272D01*
X950Y271D01*
X949Y271D01*
X949Y269D01*
X948Y269D01*
X948Y268D01*
X946Y268D01*
X946Y266D01*
X945Y266D01*
X945Y265D01*
X944Y265D01*
X944Y264D01*
X943Y264D01*
X943Y263D01*
X942Y263D01*
X942Y261D01*
X941Y261D01*
X941Y260D01*
X940Y260D01*
X940Y259D01*
X939Y259D01*
X939Y258D01*
X938Y258D01*
X938Y257D01*
X937Y257D01*
X937Y255D01*
X936Y255D01*
X936Y254D01*
X935Y254D01*
X935Y253D01*
X934Y253D01*
X934Y252D01*
X933Y252D01*
X933Y251D01*
X932Y251D01*
X932Y250D01*
X931Y250D01*
X931Y249D01*
X930Y249D01*
X930Y248D01*
X929Y248D01*
X929Y247D01*
X928Y247D01*
X928Y246D01*
X926Y246D01*
X926Y245D01*
X925Y245D01*
X925Y244D01*
X924Y244D01*
X924Y243D01*
X923Y243D01*
X923Y242D01*
X921Y242D01*
X921Y241D01*
X920Y241D01*
X920Y240D01*
X918Y240D01*
X918Y239D01*
X917Y239D01*
X917Y238D01*
X915Y238D01*
X915Y237D01*
X914Y237D01*
X914Y236D01*
X912Y236D01*
X912Y235D01*
X910Y235D01*
X910Y234D01*
X908Y234D01*
X908Y233D01*
X906Y233D01*
X906Y232D01*
X904Y232D01*
X904Y231D01*
X902Y231D01*
X902Y230D01*
X899Y230D01*
X899Y229D01*
X895Y229D01*
X895Y228D01*
X893Y228D01*
X893Y227D01*
X889Y227D01*
X889Y226D01*
X885Y226D01*
X885Y225D01*
X881Y225D01*
X881Y224D01*
X874Y224D01*
X874Y223D01*
X883Y223D01*
X883Y224D01*
X887Y224D01*
X887Y225D01*
X891Y225D01*
X891Y226D01*
X894Y226D01*
X894Y227D01*
X898Y227D01*
X898Y228D01*
X901Y228D01*
X901Y229D01*
X903Y229D01*
X903Y230D01*
X905Y230D01*
X905Y231D01*
X907Y231D01*
X907Y232D01*
X910Y232D01*
X910Y233D01*
X911Y233D01*
X911Y234D01*
X913Y234D01*
X913Y235D01*
X915Y235D01*
X915Y236D01*
X917Y236D01*
X917Y237D01*
X918Y237D01*
X918Y238D01*
X920Y238D01*
X920Y239D01*
X921Y239D01*
X921Y240D01*
X923Y240D01*
X923Y241D01*
X924Y241D01*
X924Y242D01*
X925Y242D01*
X925Y243D01*
X927Y243D01*
X927Y244D01*
X928Y244D01*
X928Y245D01*
X929Y245D01*
X929Y246D01*
X930Y246D01*
X930Y247D01*
X931Y247D01*
X931Y248D01*
X933Y248D01*
X933Y249D01*
X934Y249D01*
X934Y250D01*
X935Y250D01*
X935Y251D01*
X936Y251D01*
X936Y252D01*
X937Y252D01*
X937Y253D01*
X938Y253D01*
X938Y254D01*
X939Y254D01*
X939Y255D01*
X940Y255D01*
X940Y258D01*
X941Y258D01*
X941Y259D01*
X942Y259D01*
X942Y260D01*
X943Y260D01*
X943Y261D01*
X944Y261D01*
X944Y262D01*
X945Y262D01*
X945Y264D01*
X946Y264D01*
X946Y265D01*
X948Y265D01*
X948Y266D01*
X949Y266D01*
X949Y268D01*
X950Y268D01*
X950Y269D01*
X951Y269D01*
X951Y271D01*
X952Y271D01*
X952Y272D01*
X953Y272D01*
X953Y274D01*
X954Y274D01*
X954Y276D01*
X955Y276D01*
X955Y278D01*
X956Y278D01*
X956Y280D01*
X957Y280D01*
X957Y282D01*
X958Y282D01*
X958Y284D01*
X959Y284D01*
X959Y286D01*
X960Y286D01*
X960Y288D01*
X961Y288D01*
X961Y291D01*
X962Y291D01*
X962Y294D01*
X963Y294D01*
X963Y297D01*
X964Y297D01*
X964Y300D01*
X965Y300D01*
X965Y305D01*
X966Y305D01*
X966Y310D01*
X967Y310D01*
X967Y315D01*
X976Y315D01*
X976Y321D01*
X977Y321D01*
X977Y328D01*
X978Y328D01*
X978Y335D01*
X979Y335D01*
X979Y342D01*
X980Y342D01*
X980Y349D01*
X981Y349D01*
X981Y357D01*
X982Y357D01*
X982Y365D01*
X983Y365D01*
X983Y372D01*
X957Y372D01*
G37*
D02*
G36*
X581Y365D02*
X581Y364D01*
X620Y364D01*
X620Y365D01*
X581Y365D01*
G37*
D02*
G36*
X581Y365D02*
X581Y364D01*
X620Y364D01*
X620Y365D01*
X581Y365D01*
G37*
D02*
G36*
X582Y364D02*
X582Y363D01*
X583Y363D01*
X583Y361D01*
X584Y361D01*
X584Y359D01*
X585Y359D01*
X585Y357D01*
X586Y357D01*
X586Y355D01*
X587Y355D01*
X587Y354D01*
X588Y354D01*
X588Y352D01*
X589Y352D01*
X589Y351D01*
X591Y351D01*
X591Y349D01*
X592Y349D01*
X592Y342D01*
X591Y342D01*
X591Y336D01*
X589Y336D01*
X589Y330D01*
X588Y330D01*
X588Y324D01*
X614Y324D01*
X614Y323D01*
X616Y323D01*
X616Y322D01*
X617Y322D01*
X617Y321D01*
X618Y321D01*
X618Y320D01*
X619Y320D01*
X619Y319D01*
X620Y319D01*
X620Y318D01*
X622Y318D01*
X622Y317D01*
X623Y317D01*
X623Y316D01*
X624Y316D01*
X624Y315D01*
X625Y315D01*
X625Y314D01*
X627Y314D01*
X627Y313D01*
X628Y313D01*
X628Y312D01*
X630Y312D01*
X630Y311D01*
X631Y311D01*
X631Y310D01*
X632Y310D01*
X632Y309D01*
X634Y309D01*
X634Y308D01*
X635Y308D01*
X635Y306D01*
X637Y306D01*
X637Y305D01*
X638Y305D01*
X638Y304D01*
X658Y304D01*
X658Y305D01*
X656Y305D01*
X656Y306D01*
X654Y306D01*
X654Y308D01*
X652Y308D01*
X652Y309D01*
X651Y309D01*
X651Y310D01*
X649Y310D01*
X649Y311D01*
X647Y311D01*
X647Y312D01*
X646Y312D01*
X646Y313D01*
X644Y313D01*
X644Y314D01*
X642Y314D01*
X642Y315D01*
X640Y315D01*
X640Y316D01*
X639Y316D01*
X639Y317D01*
X637Y317D01*
X637Y318D01*
X636Y318D01*
X636Y319D01*
X634Y319D01*
X634Y320D01*
X633Y320D01*
X633Y321D01*
X632Y321D01*
X632Y322D01*
X630Y322D01*
X630Y323D01*
X629Y323D01*
X629Y324D01*
X628Y324D01*
X628Y325D01*
X627Y325D01*
X627Y326D01*
X625Y326D01*
X625Y327D01*
X624Y327D01*
X624Y328D01*
X623Y328D01*
X623Y329D01*
X622Y329D01*
X622Y330D01*
X621Y330D01*
X621Y331D01*
X620Y331D01*
X620Y332D01*
X619Y332D01*
X619Y333D01*
X618Y333D01*
X618Y334D01*
X617Y334D01*
X617Y335D01*
X616Y335D01*
X616Y341D01*
X617Y341D01*
X617Y350D01*
X618Y350D01*
X618Y356D01*
X619Y356D01*
X619Y361D01*
X620Y361D01*
X620Y364D01*
X582Y364D01*
G37*
D02*
G36*
X686Y331D02*
X686Y330D01*
X767Y330D01*
X767Y331D01*
X686Y331D01*
G37*
D02*
G36*
X686Y331D02*
X686Y330D01*
X767Y330D01*
X767Y331D01*
X686Y331D01*
G37*
D02*
G36*
X823Y331D02*
X823Y330D01*
X893Y330D01*
X893Y331D01*
X823Y331D01*
G37*
D02*
G36*
X823Y331D02*
X823Y330D01*
X893Y330D01*
X893Y331D01*
X823Y331D01*
G37*
D02*
G36*
X687Y330D02*
X687Y329D01*
X688Y329D01*
X688Y327D01*
X689Y327D01*
X689Y326D01*
X690Y326D01*
X690Y325D01*
X691Y325D01*
X691Y324D01*
X693Y324D01*
X693Y323D01*
X694Y323D01*
X694Y322D01*
X696Y322D01*
X696Y321D01*
X697Y321D01*
X697Y320D01*
X698Y320D01*
X698Y318D01*
X697Y318D01*
X697Y316D01*
X705Y316D01*
X705Y315D01*
X709Y315D01*
X709Y314D01*
X712Y314D01*
X712Y313D01*
X717Y313D01*
X717Y312D01*
X724Y312D01*
X724Y311D01*
X725Y311D01*
X725Y309D01*
X726Y309D01*
X726Y303D01*
X727Y303D01*
X727Y298D01*
X728Y298D01*
X728Y292D01*
X729Y292D01*
X729Y286D01*
X730Y286D01*
X730Y282D01*
X729Y282D01*
X729Y276D01*
X721Y276D01*
X721Y275D01*
X736Y275D01*
X736Y276D01*
X733Y276D01*
X733Y277D01*
X732Y277D01*
X732Y282D01*
X731Y282D01*
X731Y290D01*
X730Y290D01*
X730Y295D01*
X729Y295D01*
X729Y301D01*
X728Y301D01*
X728Y305D01*
X727Y305D01*
X727Y312D01*
X735Y312D01*
X735Y313D01*
X739Y313D01*
X739Y314D01*
X744Y314D01*
X744Y315D01*
X746Y315D01*
X746Y316D01*
X749Y316D01*
X749Y317D01*
X751Y317D01*
X751Y318D01*
X752Y318D01*
X752Y319D01*
X754Y319D01*
X754Y320D01*
X756Y320D01*
X756Y321D01*
X757Y321D01*
X757Y322D01*
X759Y322D01*
X759Y323D01*
X760Y323D01*
X760Y324D01*
X761Y324D01*
X761Y325D01*
X762Y325D01*
X762Y326D01*
X763Y326D01*
X763Y327D01*
X764Y327D01*
X764Y328D01*
X765Y328D01*
X765Y329D01*
X766Y329D01*
X766Y330D01*
X687Y330D01*
G37*
D02*
G36*
X824Y330D02*
X824Y329D01*
X825Y329D01*
X825Y328D01*
X826Y328D01*
X826Y327D01*
X827Y327D01*
X827Y326D01*
X828Y326D01*
X828Y325D01*
X829Y325D01*
X829Y324D01*
X830Y324D01*
X830Y323D01*
X831Y323D01*
X831Y322D01*
X832Y322D01*
X832Y321D01*
X833Y321D01*
X833Y320D01*
X835Y320D01*
X835Y319D01*
X836Y319D01*
X836Y318D01*
X838Y318D01*
X838Y317D01*
X839Y317D01*
X839Y316D01*
X842Y316D01*
X842Y315D01*
X846Y315D01*
X846Y314D01*
X849Y314D01*
X849Y313D01*
X864Y313D01*
X864Y314D01*
X868Y314D01*
X868Y315D01*
X871Y315D01*
X871Y316D01*
X873Y316D01*
X873Y317D01*
X875Y317D01*
X875Y318D01*
X877Y318D01*
X877Y319D01*
X878Y319D01*
X878Y320D01*
X880Y320D01*
X880Y321D01*
X881Y321D01*
X881Y322D01*
X883Y322D01*
X883Y323D01*
X884Y323D01*
X884Y324D01*
X885Y324D01*
X885Y325D01*
X887Y325D01*
X887Y326D01*
X888Y326D01*
X888Y327D01*
X889Y327D01*
X889Y328D01*
X890Y328D01*
X890Y329D01*
X891Y329D01*
X891Y330D01*
X824Y330D01*
G37*
D02*
G36*
X587Y324D02*
X587Y319D01*
X586Y319D01*
X586Y313D01*
X585Y313D01*
X585Y306D01*
X584Y306D01*
X584Y300D01*
X583Y300D01*
X583Y295D01*
X582Y295D01*
X582Y289D01*
X581Y289D01*
X581Y283D01*
X607Y283D01*
X607Y281D01*
X608Y281D01*
X608Y279D01*
X609Y279D01*
X609Y277D01*
X621Y277D01*
X621Y275D01*
X622Y275D01*
X622Y273D01*
X623Y273D01*
X623Y271D01*
X624Y271D01*
X624Y270D01*
X625Y270D01*
X625Y269D01*
X626Y269D01*
X626Y267D01*
X627Y267D01*
X627Y266D01*
X628Y266D01*
X628Y265D01*
X629Y265D01*
X629Y263D01*
X630Y263D01*
X630Y262D01*
X631Y262D01*
X631Y261D01*
X632Y261D01*
X632Y259D01*
X633Y259D01*
X633Y258D01*
X634Y258D01*
X634Y257D01*
X635Y257D01*
X635Y255D01*
X636Y255D01*
X636Y254D01*
X637Y254D01*
X637Y252D01*
X638Y252D01*
X638Y251D01*
X639Y251D01*
X639Y250D01*
X640Y250D01*
X640Y249D01*
X642Y249D01*
X642Y248D01*
X643Y248D01*
X643Y247D01*
X645Y247D01*
X645Y246D01*
X646Y246D01*
X646Y245D01*
X647Y245D01*
X647Y244D01*
X648Y244D01*
X648Y243D01*
X649Y243D01*
X649Y242D01*
X650Y242D01*
X650Y241D01*
X652Y241D01*
X652Y240D01*
X653Y240D01*
X653Y239D01*
X654Y239D01*
X654Y238D01*
X655Y238D01*
X655Y237D01*
X657Y237D01*
X657Y236D01*
X660Y236D01*
X660Y237D01*
X658Y237D01*
X658Y238D01*
X657Y238D01*
X657Y239D01*
X656Y239D01*
X656Y240D01*
X654Y240D01*
X654Y241D01*
X653Y241D01*
X653Y242D01*
X652Y242D01*
X652Y243D01*
X651Y243D01*
X651Y244D01*
X649Y244D01*
X649Y245D01*
X648Y245D01*
X648Y246D01*
X647Y246D01*
X647Y247D01*
X646Y247D01*
X646Y248D01*
X645Y248D01*
X645Y249D01*
X644Y249D01*
X644Y250D01*
X643Y250D01*
X643Y251D01*
X642Y251D01*
X642Y252D01*
X640Y252D01*
X640Y253D01*
X639Y253D01*
X639Y254D01*
X638Y254D01*
X638Y255D01*
X637Y255D01*
X637Y257D01*
X636Y257D01*
X636Y259D01*
X635Y259D01*
X635Y260D01*
X634Y260D01*
X634Y261D01*
X633Y261D01*
X633Y262D01*
X632Y262D01*
X632Y264D01*
X631Y264D01*
X631Y265D01*
X630Y265D01*
X630Y266D01*
X629Y266D01*
X629Y268D01*
X628Y268D01*
X628Y269D01*
X627Y269D01*
X627Y271D01*
X626Y271D01*
X626Y273D01*
X625Y273D01*
X625Y274D01*
X624Y274D01*
X624Y276D01*
X623Y276D01*
X623Y278D01*
X622Y278D01*
X622Y280D01*
X621Y280D01*
X621Y282D01*
X620Y282D01*
X620Y284D01*
X619Y284D01*
X619Y287D01*
X618Y287D01*
X618Y289D01*
X617Y289D01*
X617Y292D01*
X616Y292D01*
X616Y295D01*
X615Y295D01*
X615Y299D01*
X614Y299D01*
X614Y303D01*
X613Y303D01*
X613Y324D01*
X587Y324D01*
G37*
D02*
G36*
X696Y316D02*
X696Y315D01*
X695Y315D01*
X695Y313D01*
X694Y313D01*
X694Y312D01*
X693Y312D01*
X693Y311D01*
X691Y311D01*
X691Y309D01*
X690Y309D01*
X690Y308D01*
X689Y308D01*
X689Y306D01*
X698Y306D01*
X698Y309D01*
X699Y309D01*
X699Y310D01*
X700Y310D01*
X700Y311D01*
X701Y311D01*
X701Y313D01*
X702Y313D01*
X702Y314D01*
X703Y314D01*
X703Y315D01*
X704Y315D01*
X704Y316D01*
X696Y316D01*
G37*
D02*
G36*
X666Y309D02*
X666Y308D01*
X663Y308D01*
X663Y306D01*
X661Y306D01*
X661Y305D01*
X677Y305D01*
X677Y306D01*
X675Y306D01*
X675Y308D01*
X672Y308D01*
X672Y309D01*
X666Y309D01*
G37*
D02*
G36*
X681Y309D02*
X681Y308D01*
X680Y308D01*
X680Y306D01*
X679Y306D01*
X679Y305D01*
X681Y305D01*
X681Y306D01*
X687Y306D01*
X687Y308D01*
X685Y308D01*
X685Y309D01*
X681Y309D01*
G37*
D02*
G36*
X685Y306D02*
X685Y305D01*
X697Y305D01*
X697Y306D01*
X685Y306D01*
G37*
D02*
G36*
X685Y306D02*
X685Y305D01*
X697Y305D01*
X697Y306D01*
X685Y306D01*
G37*
D02*
G36*
X660Y305D02*
X660Y304D01*
X681Y304D01*
X681Y305D01*
X660Y305D01*
G37*
D02*
G36*
X660Y305D02*
X660Y304D01*
X681Y304D01*
X681Y305D01*
X660Y305D01*
G37*
D02*
G36*
X686Y305D02*
X686Y303D01*
X685Y303D01*
X685Y302D01*
X684Y302D01*
X684Y301D01*
X694Y301D01*
X694Y302D01*
X695Y302D01*
X695Y304D01*
X696Y304D01*
X696Y305D01*
X686Y305D01*
G37*
D02*
G36*
X640Y304D02*
X640Y303D01*
X681Y303D01*
X681Y304D01*
X640Y304D01*
G37*
D02*
G36*
X640Y304D02*
X640Y303D01*
X681Y303D01*
X681Y304D01*
X640Y304D01*
G37*
D02*
G36*
X643Y303D02*
X643Y302D01*
X673Y302D01*
X673Y301D01*
X682Y301D01*
X682Y302D01*
X681Y302D01*
X681Y303D01*
X643Y303D01*
G37*
D02*
G36*
X644Y302D02*
X644Y301D01*
X646Y301D01*
X646Y300D01*
X648Y300D01*
X648Y299D01*
X650Y299D01*
X650Y298D01*
X652Y298D01*
X652Y297D01*
X654Y297D01*
X654Y296D01*
X655Y296D01*
X655Y295D01*
X656Y295D01*
X656Y292D01*
X657Y292D01*
X657Y289D01*
X658Y289D01*
X658Y287D01*
X666Y287D01*
X666Y288D01*
X665Y288D01*
X665Y289D01*
X664Y289D01*
X664Y290D01*
X663Y290D01*
X663Y291D01*
X662Y291D01*
X662Y299D01*
X663Y299D01*
X663Y300D01*
X664Y300D01*
X664Y301D01*
X665Y301D01*
X665Y302D01*
X644Y302D01*
G37*
D02*
G36*
X674Y301D02*
X674Y300D01*
X693Y300D01*
X693Y301D01*
X674Y301D01*
G37*
D02*
G36*
X674Y301D02*
X674Y300D01*
X693Y300D01*
X693Y301D01*
X674Y301D01*
G37*
D02*
G36*
X675Y300D02*
X675Y299D01*
X676Y299D01*
X676Y298D01*
X677Y298D01*
X677Y292D01*
X676Y292D01*
X676Y291D01*
X675Y291D01*
X675Y290D01*
X674Y290D01*
X674Y289D01*
X673Y289D01*
X673Y288D01*
X672Y288D01*
X672Y287D01*
X683Y287D01*
X683Y289D01*
X684Y289D01*
X684Y290D01*
X685Y290D01*
X685Y291D01*
X686Y291D01*
X686Y293D01*
X687Y293D01*
X687Y294D01*
X688Y294D01*
X688Y295D01*
X689Y295D01*
X689Y297D01*
X690Y297D01*
X690Y298D01*
X691Y298D01*
X691Y300D01*
X675Y300D01*
G37*
D02*
G36*
X659Y287D02*
X659Y286D01*
X682Y286D01*
X682Y287D01*
X659Y287D01*
G37*
D02*
G36*
X659Y287D02*
X659Y286D01*
X682Y286D01*
X682Y287D01*
X659Y287D01*
G37*
D02*
G36*
X660Y286D02*
X660Y285D01*
X661Y285D01*
X661Y284D01*
X662Y284D01*
X662Y283D01*
X664Y283D01*
X664Y282D01*
X668Y282D01*
X668Y281D01*
X672Y281D01*
X672Y280D01*
X673Y280D01*
X673Y278D01*
X674Y278D01*
X674Y273D01*
X675Y273D01*
X675Y269D01*
X676Y269D01*
X676Y265D01*
X677Y265D01*
X677Y264D01*
X687Y264D01*
X687Y265D01*
X686Y265D01*
X686Y267D01*
X685Y267D01*
X685Y271D01*
X684Y271D01*
X684Y275D01*
X683Y275D01*
X683Y279D01*
X682Y279D01*
X682Y286D01*
X660Y286D01*
G37*
D02*
G36*
X580Y283D02*
X580Y278D01*
X579Y278D01*
X579Y273D01*
X578Y273D01*
X578Y270D01*
X577Y270D01*
X577Y267D01*
X576Y267D01*
X576Y265D01*
X575Y265D01*
X575Y263D01*
X574Y263D01*
X574Y262D01*
X573Y262D01*
X573Y261D01*
X572Y261D01*
X572Y260D01*
X571Y260D01*
X571Y259D01*
X570Y259D01*
X570Y258D01*
X568Y258D01*
X568Y257D01*
X565Y257D01*
X565Y255D01*
X599Y255D01*
X599Y258D01*
X600Y258D01*
X600Y260D01*
X601Y260D01*
X601Y264D01*
X602Y264D01*
X602Y268D01*
X603Y268D01*
X603Y273D01*
X604Y273D01*
X604Y278D01*
X605Y278D01*
X605Y283D01*
X580Y283D01*
G37*
D02*
G36*
X609Y277D02*
X609Y276D01*
X610Y276D01*
X610Y273D01*
X611Y273D01*
X611Y270D01*
X612Y270D01*
X612Y268D01*
X613Y268D01*
X613Y265D01*
X614Y265D01*
X614Y263D01*
X615Y263D01*
X615Y261D01*
X616Y261D01*
X616Y259D01*
X617Y259D01*
X617Y257D01*
X618Y257D01*
X618Y254D01*
X619Y254D01*
X619Y253D01*
X620Y253D01*
X620Y251D01*
X621Y251D01*
X621Y249D01*
X622Y249D01*
X622Y248D01*
X623Y248D01*
X623Y246D01*
X624Y246D01*
X624Y245D01*
X625Y245D01*
X625Y243D01*
X626Y243D01*
X626Y242D01*
X627Y242D01*
X627Y241D01*
X628Y241D01*
X628Y240D01*
X629Y240D01*
X629Y238D01*
X630Y238D01*
X630Y237D01*
X631Y237D01*
X631Y236D01*
X632Y236D01*
X632Y235D01*
X633Y235D01*
X633Y234D01*
X634Y234D01*
X634Y233D01*
X635Y233D01*
X635Y232D01*
X636Y232D01*
X636Y231D01*
X637Y231D01*
X637Y230D01*
X638Y230D01*
X638Y229D01*
X639Y229D01*
X639Y228D01*
X640Y228D01*
X640Y227D01*
X642Y227D01*
X642Y226D01*
X658Y226D01*
X658Y227D01*
X656Y227D01*
X656Y228D01*
X655Y228D01*
X655Y229D01*
X654Y229D01*
X654Y230D01*
X652Y230D01*
X652Y231D01*
X651Y231D01*
X651Y232D01*
X650Y232D01*
X650Y233D01*
X649Y233D01*
X649Y234D01*
X647Y234D01*
X647Y235D01*
X646Y235D01*
X646Y236D01*
X645Y236D01*
X645Y237D01*
X644Y237D01*
X644Y238D01*
X643Y238D01*
X643Y239D01*
X642Y239D01*
X642Y240D01*
X640Y240D01*
X640Y241D01*
X639Y241D01*
X639Y242D01*
X638Y242D01*
X638Y243D01*
X637Y243D01*
X637Y245D01*
X636Y245D01*
X636Y246D01*
X635Y246D01*
X635Y247D01*
X634Y247D01*
X634Y248D01*
X633Y248D01*
X633Y250D01*
X632Y250D01*
X632Y251D01*
X631Y251D01*
X631Y252D01*
X630Y252D01*
X630Y254D01*
X629Y254D01*
X629Y257D01*
X628Y257D01*
X628Y258D01*
X627Y258D01*
X627Y260D01*
X626Y260D01*
X626Y262D01*
X625Y262D01*
X625Y264D01*
X624Y264D01*
X624Y266D01*
X623Y266D01*
X623Y268D01*
X622Y268D01*
X622Y271D01*
X621Y271D01*
X621Y273D01*
X620Y273D01*
X620Y276D01*
X619Y276D01*
X619Y277D01*
X609Y277D01*
G37*
D02*
G36*
X737Y276D02*
X737Y275D01*
X738Y275D01*
X738Y276D01*
X737Y276D01*
G37*
D02*
G36*
X720Y275D02*
X720Y274D01*
X744Y274D01*
X744Y275D01*
X720Y275D01*
G37*
D02*
G36*
X720Y275D02*
X720Y274D01*
X744Y274D01*
X744Y275D01*
X720Y275D01*
G37*
D02*
G36*
X715Y274D02*
X715Y273D01*
X711Y273D01*
X711Y272D01*
X707Y272D01*
X707Y271D01*
X704Y271D01*
X704Y270D01*
X701Y270D01*
X701Y269D01*
X698Y269D01*
X698Y268D01*
X696Y268D01*
X696Y267D01*
X694Y267D01*
X694Y266D01*
X690Y266D01*
X690Y265D01*
X689Y265D01*
X689Y264D01*
X693Y264D01*
X693Y265D01*
X695Y265D01*
X695Y266D01*
X697Y266D01*
X697Y267D01*
X700Y267D01*
X700Y268D01*
X702Y268D01*
X702Y269D01*
X705Y269D01*
X705Y270D01*
X709Y270D01*
X709Y271D01*
X713Y271D01*
X713Y272D01*
X718Y272D01*
X718Y273D01*
X727Y273D01*
X727Y274D01*
X715Y274D01*
G37*
D02*
G36*
X729Y274D02*
X729Y273D01*
X730Y273D01*
X730Y260D01*
X729Y260D01*
X729Y254D01*
X728Y254D01*
X728Y250D01*
X727Y250D01*
X727Y246D01*
X726Y246D01*
X726Y244D01*
X725Y244D01*
X725Y241D01*
X724Y241D01*
X724Y239D01*
X723Y239D01*
X723Y236D01*
X722Y236D01*
X722Y234D01*
X721Y234D01*
X721Y232D01*
X720Y232D01*
X720Y230D01*
X719Y230D01*
X719Y228D01*
X718Y228D01*
X718Y226D01*
X717Y226D01*
X717Y224D01*
X716Y224D01*
X716Y222D01*
X715Y222D01*
X715Y220D01*
X714Y220D01*
X714Y218D01*
X713Y218D01*
X713Y217D01*
X712Y217D01*
X712Y216D01*
X715Y216D01*
X715Y219D01*
X716Y219D01*
X716Y221D01*
X717Y221D01*
X717Y222D01*
X718Y222D01*
X718Y224D01*
X719Y224D01*
X719Y226D01*
X720Y226D01*
X720Y228D01*
X721Y228D01*
X721Y230D01*
X722Y230D01*
X722Y232D01*
X723Y232D01*
X723Y235D01*
X724Y235D01*
X724Y237D01*
X725Y237D01*
X725Y239D01*
X726Y239D01*
X726Y242D01*
X727Y242D01*
X727Y245D01*
X728Y245D01*
X728Y247D01*
X729Y247D01*
X729Y251D01*
X730Y251D01*
X730Y255D01*
X731Y255D01*
X731Y262D01*
X732Y262D01*
X732Y274D01*
X729Y274D01*
G37*
D02*
G36*
X741Y274D02*
X741Y273D01*
X747Y273D01*
X747Y272D01*
X751Y272D01*
X751Y271D01*
X755Y271D01*
X755Y270D01*
X758Y270D01*
X758Y269D01*
X761Y269D01*
X761Y268D01*
X764Y268D01*
X764Y267D01*
X767Y267D01*
X767Y266D01*
X769Y266D01*
X769Y265D01*
X772Y265D01*
X772Y264D01*
X774Y264D01*
X774Y263D01*
X776Y263D01*
X776Y262D01*
X778Y262D01*
X778Y261D01*
X779Y261D01*
X779Y260D01*
X781Y260D01*
X781Y259D01*
X782Y259D01*
X782Y258D01*
X784Y258D01*
X784Y257D01*
X785Y257D01*
X785Y255D01*
X787Y255D01*
X787Y254D01*
X788Y254D01*
X788Y253D01*
X789Y253D01*
X789Y252D01*
X790Y252D01*
X790Y251D01*
X791Y251D01*
X791Y250D01*
X792Y250D01*
X792Y249D01*
X793Y249D01*
X793Y248D01*
X795Y248D01*
X795Y247D01*
X796Y247D01*
X796Y246D01*
X799Y246D01*
X799Y247D01*
X798Y247D01*
X798Y248D01*
X797Y248D01*
X797Y249D01*
X796Y249D01*
X796Y250D01*
X795Y250D01*
X795Y251D01*
X793Y251D01*
X793Y252D01*
X791Y252D01*
X791Y253D01*
X790Y253D01*
X790Y254D01*
X789Y254D01*
X789Y255D01*
X788Y255D01*
X788Y257D01*
X786Y257D01*
X786Y258D01*
X785Y258D01*
X785Y259D01*
X784Y259D01*
X784Y260D01*
X782Y260D01*
X782Y261D01*
X780Y261D01*
X780Y262D01*
X779Y262D01*
X779Y263D01*
X777Y263D01*
X777Y264D01*
X775Y264D01*
X775Y265D01*
X773Y265D01*
X773Y266D01*
X771Y266D01*
X771Y267D01*
X768Y267D01*
X768Y268D01*
X766Y268D01*
X766Y269D01*
X763Y269D01*
X763Y270D01*
X760Y270D01*
X760Y271D01*
X756Y271D01*
X756Y272D01*
X753Y272D01*
X753Y273D01*
X749Y273D01*
X749Y274D01*
X741Y274D01*
G37*
D02*
G36*
X677Y264D02*
X677Y263D01*
X690Y263D01*
X690Y264D01*
X677Y264D01*
G37*
D02*
G36*
X677Y264D02*
X677Y263D01*
X690Y263D01*
X690Y264D01*
X677Y264D01*
G37*
D02*
G36*
X677Y263D02*
X677Y262D01*
X678Y262D01*
X678Y258D01*
X677Y258D01*
X677Y257D01*
X676Y257D01*
X676Y255D01*
X675Y255D01*
X675Y254D01*
X679Y254D01*
X679Y252D01*
X680Y252D01*
X680Y251D01*
X681Y251D01*
X681Y248D01*
X682Y248D01*
X682Y245D01*
X683Y245D01*
X683Y242D01*
X684Y242D01*
X684Y239D01*
X685Y239D01*
X685Y237D01*
X686Y237D01*
X686Y234D01*
X687Y234D01*
X687Y232D01*
X688Y232D01*
X688Y229D01*
X689Y229D01*
X689Y227D01*
X690Y227D01*
X690Y223D01*
X689Y223D01*
X689Y222D01*
X703Y222D01*
X703Y223D01*
X702Y223D01*
X702Y225D01*
X701Y225D01*
X701Y227D01*
X700Y227D01*
X700Y229D01*
X699Y229D01*
X699Y232D01*
X698Y232D01*
X698Y234D01*
X697Y234D01*
X697Y236D01*
X696Y236D01*
X696Y239D01*
X695Y239D01*
X695Y241D01*
X694Y241D01*
X694Y244D01*
X693Y244D01*
X693Y247D01*
X691Y247D01*
X691Y250D01*
X690Y250D01*
X690Y253D01*
X689Y253D01*
X689Y257D01*
X688Y257D01*
X688Y261D01*
X687Y261D01*
X687Y262D01*
X688Y262D01*
X688Y263D01*
X677Y263D01*
G37*
D02*
G36*
X539Y259D02*
X539Y257D01*
X537Y257D01*
X537Y255D01*
X552Y255D01*
X552Y257D01*
X546Y257D01*
X546Y258D01*
X541Y258D01*
X541Y259D01*
X539Y259D01*
G37*
D02*
G36*
X822Y259D02*
X822Y255D01*
X824Y255D01*
X824Y254D01*
X826Y254D01*
X826Y253D01*
X827Y253D01*
X827Y252D01*
X829Y252D01*
X829Y251D01*
X830Y251D01*
X830Y250D01*
X831Y250D01*
X831Y249D01*
X832Y249D01*
X832Y248D01*
X833Y248D01*
X833Y247D01*
X834Y247D01*
X834Y246D01*
X835Y246D01*
X835Y245D01*
X836Y245D01*
X836Y244D01*
X837Y244D01*
X837Y243D01*
X838Y243D01*
X838Y242D01*
X839Y242D01*
X839Y240D01*
X840Y240D01*
X840Y238D01*
X841Y238D01*
X841Y235D01*
X842Y235D01*
X842Y231D01*
X843Y231D01*
X843Y227D01*
X842Y227D01*
X842Y226D01*
X841Y226D01*
X841Y225D01*
X846Y225D01*
X846Y227D01*
X844Y227D01*
X844Y234D01*
X843Y234D01*
X843Y237D01*
X842Y237D01*
X842Y240D01*
X841Y240D01*
X841Y242D01*
X840Y242D01*
X840Y243D01*
X839Y243D01*
X839Y245D01*
X838Y245D01*
X838Y246D01*
X837Y246D01*
X837Y247D01*
X836Y247D01*
X836Y248D01*
X835Y248D01*
X835Y249D01*
X834Y249D01*
X834Y250D01*
X833Y250D01*
X833Y251D01*
X831Y251D01*
X831Y252D01*
X830Y252D01*
X830Y253D01*
X829Y253D01*
X829Y254D01*
X827Y254D01*
X827Y255D01*
X826Y255D01*
X826Y257D01*
X824Y257D01*
X824Y258D01*
X823Y258D01*
X823Y259D01*
X822Y259D01*
G37*
D02*
G36*
X537Y255D02*
X537Y254D01*
X599Y254D01*
X599Y255D01*
X537Y255D01*
G37*
D02*
G36*
X537Y255D02*
X537Y254D01*
X599Y254D01*
X599Y255D01*
X537Y255D01*
G37*
D02*
G36*
X537Y254D02*
X537Y252D01*
X536Y252D01*
X536Y248D01*
X535Y248D01*
X535Y243D01*
X534Y243D01*
X534Y239D01*
X533Y239D01*
X533Y238D01*
X534Y238D01*
X534Y237D01*
X541Y237D01*
X541Y236D01*
X548Y236D01*
X548Y235D01*
X558Y235D01*
X558Y234D01*
X570Y234D01*
X570Y235D01*
X576Y235D01*
X576Y236D01*
X580Y236D01*
X580Y237D01*
X582Y237D01*
X582Y238D01*
X584Y238D01*
X584Y239D01*
X586Y239D01*
X586Y240D01*
X587Y240D01*
X587Y241D01*
X589Y241D01*
X589Y242D01*
X591Y242D01*
X591Y243D01*
X592Y243D01*
X592Y244D01*
X593Y244D01*
X593Y246D01*
X594Y246D01*
X594Y247D01*
X595Y247D01*
X595Y248D01*
X596Y248D01*
X596Y250D01*
X597Y250D01*
X597Y252D01*
X598Y252D01*
X598Y254D01*
X537Y254D01*
G37*
D02*
G36*
X674Y254D02*
X674Y253D01*
X673Y253D01*
X673Y252D01*
X672Y252D01*
X672Y251D01*
X671Y251D01*
X671Y250D01*
X670Y250D01*
X670Y249D01*
X669Y249D01*
X669Y247D01*
X668Y247D01*
X668Y246D01*
X667Y246D01*
X667Y244D01*
X666Y244D01*
X666Y242D01*
X665Y242D01*
X665Y240D01*
X664Y240D01*
X664Y238D01*
X663Y238D01*
X663Y236D01*
X665Y236D01*
X665Y239D01*
X666Y239D01*
X666Y241D01*
X667Y241D01*
X667Y243D01*
X668Y243D01*
X668Y244D01*
X669Y244D01*
X669Y246D01*
X670Y246D01*
X670Y247D01*
X671Y247D01*
X671Y248D01*
X672Y248D01*
X672Y249D01*
X673Y249D01*
X673Y250D01*
X674Y250D01*
X674Y252D01*
X676Y252D01*
X676Y253D01*
X677Y253D01*
X677Y254D01*
X674Y254D01*
G37*
D02*
G36*
X804Y250D02*
X804Y249D01*
X803Y249D01*
X803Y248D01*
X802Y248D01*
X802Y247D01*
X800Y247D01*
X800Y246D01*
X808Y246D01*
X808Y245D01*
X809Y245D01*
X809Y244D01*
X810Y244D01*
X810Y242D01*
X811Y242D01*
X811Y240D01*
X810Y240D01*
X810Y239D01*
X809Y239D01*
X809Y238D01*
X808Y238D01*
X808Y237D01*
X807Y237D01*
X807Y236D01*
X812Y236D01*
X812Y244D01*
X811Y244D01*
X811Y246D01*
X809Y246D01*
X809Y247D01*
X807Y247D01*
X807Y248D01*
X806Y248D01*
X806Y249D01*
X805Y249D01*
X805Y250D01*
X804Y250D01*
G37*
D02*
G36*
X797Y246D02*
X797Y245D01*
X801Y245D01*
X801Y246D01*
X797Y246D01*
G37*
D02*
G36*
X797Y246D02*
X797Y245D01*
X801Y245D01*
X801Y246D01*
X797Y246D01*
G37*
D02*
G36*
X798Y245D02*
X798Y240D01*
X801Y240D01*
X801Y239D01*
X802Y239D01*
X802Y237D01*
X805Y237D01*
X805Y239D01*
X804Y239D01*
X804Y240D01*
X803Y240D01*
X803Y241D01*
X802Y241D01*
X802Y243D01*
X801Y243D01*
X801Y245D01*
X798Y245D01*
G37*
D02*
G36*
X798Y240D02*
X798Y237D01*
X801Y237D01*
X801Y238D01*
X800Y238D01*
X800Y240D01*
X798Y240D01*
G37*
D02*
G36*
X798Y237D02*
X798Y236D01*
X806Y236D01*
X806Y237D01*
X798Y237D01*
G37*
D02*
G36*
X798Y237D02*
X798Y236D01*
X806Y236D01*
X806Y237D01*
X798Y237D01*
G37*
D02*
G36*
X658Y236D02*
X658Y235D01*
X665Y235D01*
X665Y236D01*
X658Y236D01*
G37*
D02*
G36*
X658Y236D02*
X658Y235D01*
X665Y235D01*
X665Y236D01*
X658Y236D01*
G37*
D02*
G36*
X797Y236D02*
X797Y235D01*
X813Y235D01*
X813Y236D01*
X797Y236D01*
G37*
D02*
G36*
X797Y236D02*
X797Y235D01*
X813Y235D01*
X813Y236D01*
X797Y236D01*
G37*
D02*
G36*
X660Y235D02*
X660Y234D01*
X661Y234D01*
X661Y233D01*
X662Y233D01*
X662Y231D01*
X667Y231D01*
X667Y230D01*
X668Y230D01*
X668Y229D01*
X670Y229D01*
X670Y228D01*
X672Y228D01*
X672Y227D01*
X674Y227D01*
X674Y226D01*
X676Y226D01*
X676Y225D01*
X678Y225D01*
X678Y224D01*
X681Y224D01*
X681Y223D01*
X683Y223D01*
X683Y222D01*
X688Y222D01*
X688Y223D01*
X685Y223D01*
X685Y224D01*
X682Y224D01*
X682Y225D01*
X680Y225D01*
X680Y226D01*
X678Y226D01*
X678Y227D01*
X676Y227D01*
X676Y228D01*
X673Y228D01*
X673Y229D01*
X671Y229D01*
X671Y230D01*
X670Y230D01*
X670Y231D01*
X668Y231D01*
X668Y232D01*
X666Y232D01*
X666Y233D01*
X665Y233D01*
X665Y235D01*
X660Y235D01*
G37*
D02*
G36*
X795Y235D02*
X795Y233D01*
X793Y233D01*
X793Y231D01*
X792Y231D01*
X792Y227D01*
X791Y227D01*
X791Y225D01*
X790Y225D01*
X790Y224D01*
X786Y224D01*
X786Y223D01*
X793Y223D01*
X793Y222D01*
X795Y222D01*
X795Y221D01*
X796Y221D01*
X796Y219D01*
X797Y219D01*
X797Y217D01*
X796Y217D01*
X796Y216D01*
X795Y216D01*
X795Y215D01*
X793Y215D01*
X793Y214D01*
X792Y214D01*
X792Y213D01*
X798Y213D01*
X798Y214D01*
X797Y214D01*
X797Y215D01*
X798Y215D01*
X798Y221D01*
X797Y221D01*
X797Y222D01*
X796Y222D01*
X796Y223D01*
X795Y223D01*
X795Y224D01*
X793Y224D01*
X793Y230D01*
X795Y230D01*
X795Y232D01*
X796Y232D01*
X796Y233D01*
X797Y233D01*
X797Y234D01*
X798Y234D01*
X798Y235D01*
X795Y235D01*
G37*
D02*
G36*
X802Y235D02*
X802Y234D01*
X805Y234D01*
X805Y233D01*
X806Y233D01*
X806Y232D01*
X807Y232D01*
X807Y230D01*
X808Y230D01*
X808Y228D01*
X809Y228D01*
X809Y226D01*
X810Y226D01*
X810Y224D01*
X811Y224D01*
X811Y221D01*
X812Y221D01*
X812Y219D01*
X813Y219D01*
X813Y216D01*
X814Y216D01*
X814Y212D01*
X815Y212D01*
X815Y208D01*
X816Y208D01*
X816Y204D01*
X815Y204D01*
X815Y202D01*
X818Y202D01*
X818Y207D01*
X817Y207D01*
X817Y211D01*
X816Y211D01*
X816Y214D01*
X815Y214D01*
X815Y217D01*
X814Y217D01*
X814Y220D01*
X813Y220D01*
X813Y223D01*
X812Y223D01*
X812Y225D01*
X811Y225D01*
X811Y228D01*
X810Y228D01*
X810Y230D01*
X809Y230D01*
X809Y232D01*
X808Y232D01*
X808Y235D01*
X802Y235D01*
G37*
D02*
G36*
X812Y235D02*
X812Y234D01*
X814Y234D01*
X814Y233D01*
X816Y233D01*
X816Y232D01*
X818Y232D01*
X818Y231D01*
X820Y231D01*
X820Y230D01*
X822Y230D01*
X822Y229D01*
X825Y229D01*
X825Y228D01*
X827Y228D01*
X827Y227D01*
X830Y227D01*
X830Y226D01*
X833Y226D01*
X833Y225D01*
X839Y225D01*
X839Y226D01*
X835Y226D01*
X835Y227D01*
X832Y227D01*
X832Y228D01*
X829Y228D01*
X829Y229D01*
X826Y229D01*
X826Y230D01*
X824Y230D01*
X824Y231D01*
X821Y231D01*
X821Y232D01*
X819Y232D01*
X819Y233D01*
X817Y233D01*
X817Y234D01*
X815Y234D01*
X815Y235D01*
X812Y235D01*
G37*
D02*
G36*
X662Y231D02*
X662Y228D01*
X661Y228D01*
X661Y227D01*
X660Y227D01*
X660Y226D01*
X663Y226D01*
X663Y231D01*
X662Y231D01*
G37*
D02*
G36*
X644Y226D02*
X644Y225D01*
X663Y225D01*
X663Y226D01*
X644Y226D01*
G37*
D02*
G36*
X644Y226D02*
X644Y225D01*
X663Y225D01*
X663Y226D01*
X644Y226D01*
G37*
D02*
G36*
X645Y225D02*
X645Y224D01*
X646Y224D01*
X646Y223D01*
X647Y223D01*
X647Y222D01*
X649Y222D01*
X649Y221D01*
X650Y221D01*
X650Y220D01*
X652Y220D01*
X652Y219D01*
X653Y219D01*
X653Y218D01*
X655Y218D01*
X655Y217D01*
X657Y217D01*
X657Y216D01*
X658Y216D01*
X658Y215D01*
X660Y215D01*
X660Y214D01*
X662Y214D01*
X662Y213D01*
X689Y213D01*
X689Y214D01*
X685Y214D01*
X685Y215D01*
X681Y215D01*
X681Y216D01*
X678Y216D01*
X678Y217D01*
X676Y217D01*
X676Y218D01*
X673Y218D01*
X673Y219D01*
X671Y219D01*
X671Y220D01*
X669Y220D01*
X669Y221D01*
X667Y221D01*
X667Y222D01*
X665Y222D01*
X665Y223D01*
X664Y223D01*
X664Y224D01*
X663Y224D01*
X663Y225D01*
X645Y225D01*
G37*
D02*
G36*
X837Y225D02*
X837Y224D01*
X847Y224D01*
X847Y225D01*
X837Y225D01*
G37*
D02*
G36*
X837Y225D02*
X837Y224D01*
X847Y224D01*
X847Y225D01*
X837Y225D01*
G37*
D02*
G36*
X841Y224D02*
X841Y223D01*
X842Y223D01*
X842Y221D01*
X841Y221D01*
X841Y219D01*
X840Y219D01*
X840Y217D01*
X839Y217D01*
X839Y215D01*
X838Y215D01*
X838Y214D01*
X837Y214D01*
X837Y212D01*
X836Y212D01*
X836Y211D01*
X835Y211D01*
X835Y210D01*
X834Y210D01*
X834Y209D01*
X832Y209D01*
X832Y208D01*
X831Y208D01*
X831Y207D01*
X830Y207D01*
X830Y206D01*
X828Y206D01*
X828Y204D01*
X826Y204D01*
X826Y203D01*
X823Y203D01*
X823Y202D01*
X820Y202D01*
X820Y201D01*
X825Y201D01*
X825Y202D01*
X827Y202D01*
X827Y203D01*
X829Y203D01*
X829Y204D01*
X831Y204D01*
X831Y206D01*
X833Y206D01*
X833Y207D01*
X834Y207D01*
X834Y208D01*
X835Y208D01*
X835Y209D01*
X836Y209D01*
X836Y210D01*
X837Y210D01*
X837Y211D01*
X838Y211D01*
X838Y212D01*
X839Y212D01*
X839Y214D01*
X840Y214D01*
X840Y215D01*
X841Y215D01*
X841Y217D01*
X842Y217D01*
X842Y219D01*
X843Y219D01*
X843Y222D01*
X844Y222D01*
X844Y223D01*
X852Y223D01*
X852Y224D01*
X841Y224D01*
G37*
D02*
G36*
X785Y223D02*
X785Y221D01*
X784Y221D01*
X784Y216D01*
X783Y216D01*
X783Y215D01*
X782Y215D01*
X782Y214D01*
X777Y214D01*
X777Y213D01*
X772Y213D01*
X772Y212D01*
X766Y212D01*
X766Y211D01*
X756Y211D01*
X756Y210D01*
X769Y210D01*
X769Y211D01*
X775Y211D01*
X775Y212D01*
X780Y212D01*
X780Y213D01*
X788Y213D01*
X788Y214D01*
X787Y214D01*
X787Y215D01*
X786Y215D01*
X786Y222D01*
X788Y222D01*
X788Y223D01*
X785Y223D01*
G37*
D02*
G36*
X848Y223D02*
X848Y222D01*
X878Y222D01*
X878Y223D01*
X848Y223D01*
G37*
D02*
G36*
X848Y223D02*
X848Y222D01*
X878Y222D01*
X878Y223D01*
X848Y223D01*
G37*
D02*
G36*
X686Y222D02*
X686Y221D01*
X703Y221D01*
X703Y222D01*
X686Y222D01*
G37*
D02*
G36*
X686Y222D02*
X686Y221D01*
X703Y221D01*
X703Y222D01*
X686Y222D01*
G37*
D02*
G36*
X856Y222D02*
X856Y221D01*
X869Y221D01*
X869Y222D01*
X856Y222D01*
G37*
D02*
G36*
X689Y221D02*
X689Y220D01*
X693Y220D01*
X693Y219D01*
X694Y219D01*
X694Y218D01*
X695Y218D01*
X695Y217D01*
X696Y217D01*
X696Y216D01*
X710Y216D01*
X710Y217D01*
X706Y217D01*
X706Y218D01*
X705Y218D01*
X705Y219D01*
X704Y219D01*
X704Y221D01*
X689Y221D01*
G37*
D02*
G36*
X696Y216D02*
X696Y215D01*
X716Y215D01*
X716Y216D01*
X696Y216D01*
G37*
D02*
G36*
X696Y216D02*
X696Y215D01*
X716Y215D01*
X716Y216D01*
X696Y216D01*
G37*
D02*
G36*
X696Y215D02*
X696Y213D01*
X708Y213D01*
X708Y215D01*
X696Y215D01*
G37*
D02*
G36*
X710Y215D02*
X710Y214D01*
X716Y214D01*
X716Y213D01*
X720Y213D01*
X720Y212D01*
X725Y212D01*
X725Y211D01*
X731Y211D01*
X731Y210D01*
X744Y210D01*
X744Y211D01*
X734Y211D01*
X734Y212D01*
X727Y212D01*
X727Y213D01*
X723Y213D01*
X723Y214D01*
X718Y214D01*
X718Y215D01*
X710Y215D01*
G37*
D02*
G36*
X710Y214D02*
X710Y213D01*
X709Y213D01*
X709Y212D01*
X712Y212D01*
X712Y213D01*
X713Y213D01*
X713Y214D01*
X710Y214D01*
G37*
D02*
G36*
X664Y213D02*
X664Y212D01*
X708Y212D01*
X708Y213D01*
X664Y213D01*
G37*
D02*
G36*
X664Y213D02*
X664Y212D01*
X708Y212D01*
X708Y213D01*
X664Y213D01*
G37*
D02*
G36*
X787Y213D02*
X787Y212D01*
X799Y212D01*
X799Y213D01*
X787Y213D01*
G37*
D02*
G36*
X787Y213D02*
X787Y212D01*
X799Y212D01*
X799Y213D01*
X787Y213D01*
G37*
D02*
G36*
X666Y212D02*
X666Y211D01*
X711Y211D01*
X711Y212D01*
X666Y212D01*
G37*
D02*
G36*
X666Y212D02*
X666Y211D01*
X711Y211D01*
X711Y212D01*
X666Y212D01*
G37*
D02*
G36*
X789Y212D02*
X789Y211D01*
X791Y211D01*
X791Y212D01*
X789Y212D01*
G37*
D02*
G36*
X797Y212D02*
X797Y211D01*
X798Y211D01*
X798Y210D01*
X799Y210D01*
X799Y209D01*
X800Y209D01*
X800Y208D01*
X801Y208D01*
X801Y207D01*
X802Y207D01*
X802Y206D01*
X803Y206D01*
X803Y204D01*
X805Y204D01*
X805Y203D01*
X807Y203D01*
X807Y202D01*
X810Y202D01*
X810Y203D01*
X808Y203D01*
X808Y204D01*
X806Y204D01*
X806Y206D01*
X804Y206D01*
X804Y207D01*
X803Y207D01*
X803Y208D01*
X802Y208D01*
X802Y209D01*
X801Y209D01*
X801Y210D01*
X800Y210D01*
X800Y212D01*
X797Y212D01*
G37*
D02*
G36*
X669Y211D02*
X669Y210D01*
X671Y210D01*
X671Y209D01*
X674Y209D01*
X674Y208D01*
X677Y208D01*
X677Y207D01*
X680Y207D01*
X680Y206D01*
X683Y206D01*
X683Y204D01*
X687Y204D01*
X687Y203D01*
X693Y203D01*
X693Y202D01*
X700Y202D01*
X700Y201D01*
X703Y201D01*
X703Y200D01*
X704Y200D01*
X704Y199D01*
X705Y199D01*
X705Y198D01*
X706Y198D01*
X706Y196D01*
X707Y196D01*
X707Y194D01*
X708Y194D01*
X708Y193D01*
X709Y193D01*
X709Y192D01*
X710Y192D01*
X710Y190D01*
X711Y190D01*
X711Y189D01*
X712Y189D01*
X712Y187D01*
X713Y187D01*
X713Y186D01*
X714Y186D01*
X714Y184D01*
X715Y184D01*
X715Y183D01*
X716Y183D01*
X716Y182D01*
X717Y182D01*
X717Y180D01*
X718Y180D01*
X718Y179D01*
X719Y179D01*
X719Y178D01*
X720Y178D01*
X720Y177D01*
X721Y177D01*
X721Y176D01*
X722Y176D01*
X722Y174D01*
X723Y174D01*
X723Y173D01*
X724Y173D01*
X724Y172D01*
X725Y172D01*
X725Y171D01*
X726Y171D01*
X726Y170D01*
X727Y170D01*
X727Y169D01*
X728Y169D01*
X728Y168D01*
X729Y168D01*
X729Y167D01*
X730Y167D01*
X730Y165D01*
X731Y165D01*
X731Y164D01*
X732Y164D01*
X732Y163D01*
X733Y163D01*
X733Y162D01*
X734Y162D01*
X734Y161D01*
X735Y161D01*
X735Y160D01*
X736Y160D01*
X736Y159D01*
X738Y159D01*
X738Y158D01*
X739Y158D01*
X739Y157D01*
X740Y157D01*
X740Y156D01*
X741Y156D01*
X741Y155D01*
X742Y155D01*
X742Y153D01*
X744Y153D01*
X744Y152D01*
X745Y152D01*
X745Y151D01*
X746Y151D01*
X746Y150D01*
X748Y150D01*
X748Y149D01*
X749Y149D01*
X749Y148D01*
X750Y148D01*
X750Y147D01*
X751Y147D01*
X751Y146D01*
X753Y146D01*
X753Y145D01*
X754Y145D01*
X754Y144D01*
X755Y144D01*
X755Y143D01*
X757Y143D01*
X757Y142D01*
X758Y142D01*
X758Y141D01*
X759Y141D01*
X759Y140D01*
X761Y140D01*
X761Y139D01*
X762Y139D01*
X762Y138D01*
X764Y138D01*
X764Y137D01*
X765Y137D01*
X765Y136D01*
X767Y136D01*
X767Y135D01*
X768Y135D01*
X768Y134D01*
X770Y134D01*
X770Y133D01*
X771Y133D01*
X771Y132D01*
X791Y132D01*
X791Y133D01*
X789Y133D01*
X789Y134D01*
X787Y134D01*
X787Y135D01*
X785Y135D01*
X785Y136D01*
X783Y136D01*
X783Y137D01*
X781Y137D01*
X781Y138D01*
X780Y138D01*
X780Y139D01*
X778Y139D01*
X778Y140D01*
X776Y140D01*
X776Y141D01*
X775Y141D01*
X775Y142D01*
X773Y142D01*
X773Y143D01*
X772Y143D01*
X772Y144D01*
X770Y144D01*
X770Y145D01*
X769Y145D01*
X769Y146D01*
X767Y146D01*
X767Y147D01*
X766Y147D01*
X766Y148D01*
X764Y148D01*
X764Y149D01*
X763Y149D01*
X763Y150D01*
X762Y150D01*
X762Y151D01*
X760Y151D01*
X760Y152D01*
X759Y152D01*
X759Y153D01*
X758Y153D01*
X758Y155D01*
X757Y155D01*
X757Y156D01*
X755Y156D01*
X755Y157D01*
X754Y157D01*
X754Y158D01*
X753Y158D01*
X753Y159D01*
X752Y159D01*
X752Y160D01*
X751Y160D01*
X751Y161D01*
X750Y161D01*
X750Y162D01*
X748Y162D01*
X748Y163D01*
X747Y163D01*
X747Y164D01*
X746Y164D01*
X746Y165D01*
X745Y165D01*
X745Y166D01*
X744Y166D01*
X744Y167D01*
X742Y167D01*
X742Y168D01*
X741Y168D01*
X741Y169D01*
X740Y169D01*
X740Y170D01*
X739Y170D01*
X739Y171D01*
X738Y171D01*
X738Y172D01*
X737Y172D01*
X737Y173D01*
X736Y173D01*
X736Y174D01*
X735Y174D01*
X735Y175D01*
X734Y175D01*
X734Y176D01*
X733Y176D01*
X733Y177D01*
X732Y177D01*
X732Y179D01*
X731Y179D01*
X731Y180D01*
X730Y180D01*
X730Y181D01*
X729Y181D01*
X729Y182D01*
X728Y182D01*
X728Y183D01*
X727Y183D01*
X727Y184D01*
X726Y184D01*
X726Y186D01*
X725Y186D01*
X725Y187D01*
X724Y187D01*
X724Y188D01*
X723Y188D01*
X723Y190D01*
X722Y190D01*
X722Y191D01*
X721Y191D01*
X721Y192D01*
X720Y192D01*
X720Y194D01*
X719Y194D01*
X719Y195D01*
X718Y195D01*
X718Y197D01*
X717Y197D01*
X717Y198D01*
X716Y198D01*
X716Y200D01*
X715Y200D01*
X715Y201D01*
X714Y201D01*
X714Y203D01*
X713Y203D01*
X713Y204D01*
X712Y204D01*
X712Y207D01*
X711Y207D01*
X711Y211D01*
X669Y211D01*
G37*
D02*
G36*
X737Y210D02*
X737Y209D01*
X762Y209D01*
X762Y210D01*
X737Y210D01*
G37*
D02*
G36*
X737Y210D02*
X737Y209D01*
X762Y209D01*
X762Y210D01*
X737Y210D01*
G37*
D02*
G36*
X809Y202D02*
X809Y201D01*
X819Y201D01*
X819Y202D01*
X809Y202D01*
G37*
D02*
G36*
X809Y202D02*
X809Y201D01*
X819Y201D01*
X819Y202D01*
X809Y202D01*
G37*
D02*
G36*
X813Y201D02*
X813Y200D01*
X822Y200D01*
X822Y201D01*
X813Y201D01*
G37*
D02*
G36*
X813Y201D02*
X813Y200D01*
X822Y200D01*
X822Y201D01*
X813Y201D01*
G37*
D02*
G36*
X816Y200D02*
X816Y199D01*
X817Y199D01*
X817Y185D01*
X818Y185D01*
X818Y200D01*
X816Y200D01*
G37*
D02*
G36*
X805Y149D02*
X805Y148D01*
X804Y148D01*
X804Y146D01*
X803Y146D01*
X803Y145D01*
X802Y145D01*
X802Y143D01*
X801Y143D01*
X801Y142D01*
X800Y142D01*
X800Y140D01*
X799Y140D01*
X799Y139D01*
X798Y139D01*
X798Y137D01*
X797Y137D01*
X797Y136D01*
X796Y136D01*
X796Y134D01*
X795Y134D01*
X795Y133D01*
X793Y133D01*
X793Y132D01*
X796Y132D01*
X796Y133D01*
X797Y133D01*
X797Y135D01*
X798Y135D01*
X798Y136D01*
X799Y136D01*
X799Y138D01*
X800Y138D01*
X800Y139D01*
X801Y139D01*
X801Y141D01*
X802Y141D01*
X802Y142D01*
X803Y142D01*
X803Y144D01*
X804Y144D01*
X804Y145D01*
X805Y145D01*
X805Y147D01*
X806Y147D01*
X806Y149D01*
X805Y149D01*
G37*
D02*
G36*
X773Y132D02*
X773Y131D01*
X796Y131D01*
X796Y132D01*
X773Y132D01*
G37*
D02*
G36*
X773Y132D02*
X773Y131D01*
X796Y131D01*
X796Y132D01*
X773Y132D01*
G37*
D02*
G36*
X775Y131D02*
X775Y130D01*
X776Y130D01*
X776Y129D01*
X778Y129D01*
X778Y128D01*
X780Y128D01*
X780Y127D01*
X782Y127D01*
X782Y126D01*
X784Y126D01*
X784Y125D01*
X786Y125D01*
X786Y124D01*
X788Y124D01*
X788Y123D01*
X790Y123D01*
X790Y122D01*
X792Y122D01*
X792Y121D01*
X795Y121D01*
X795Y120D01*
X797Y120D01*
X797Y119D01*
X799Y119D01*
X799Y118D01*
X802Y118D01*
X802Y117D01*
X804Y117D01*
X804Y116D01*
X806Y116D01*
X806Y115D01*
X809Y115D01*
X809Y114D01*
X812Y114D01*
X812Y113D01*
X815Y113D01*
X815Y112D01*
X817Y112D01*
X817Y111D01*
X820Y111D01*
X820Y110D01*
X823Y110D01*
X823Y109D01*
X826Y109D01*
X826Y108D01*
X830Y108D01*
X830Y107D01*
X833Y107D01*
X833Y106D01*
X837Y106D01*
X837Y105D01*
X904Y105D01*
X904Y106D01*
X887Y106D01*
X887Y107D01*
X877Y107D01*
X877Y108D01*
X869Y108D01*
X869Y109D01*
X864Y109D01*
X864Y110D01*
X858Y110D01*
X858Y111D01*
X853Y111D01*
X853Y112D01*
X848Y112D01*
X848Y113D01*
X843Y113D01*
X843Y114D01*
X839Y114D01*
X839Y115D01*
X835Y115D01*
X835Y116D01*
X831Y116D01*
X831Y117D01*
X828Y117D01*
X828Y118D01*
X825Y118D01*
X825Y119D01*
X822Y119D01*
X822Y120D01*
X819Y120D01*
X819Y121D01*
X816Y121D01*
X816Y122D01*
X814Y122D01*
X814Y123D01*
X811Y123D01*
X811Y124D01*
X809Y124D01*
X809Y125D01*
X806Y125D01*
X806Y126D01*
X804Y126D01*
X804Y127D01*
X802Y127D01*
X802Y128D01*
X800Y128D01*
X800Y129D01*
X797Y129D01*
X797Y130D01*
X796Y130D01*
X796Y131D01*
X775Y131D01*
G37*
D02*
G36*
X841Y105D02*
X841Y104D01*
X969Y104D01*
X969Y105D01*
X841Y105D01*
G37*
D02*
G36*
X841Y105D02*
X841Y104D01*
X969Y104D01*
X969Y105D01*
X841Y105D01*
G37*
D02*
G36*
X847Y104D02*
X847Y103D01*
X851Y103D01*
X851Y101D01*
X856Y101D01*
X856Y100D01*
X862Y100D01*
X862Y99D01*
X868Y99D01*
X868Y98D01*
X876Y98D01*
X876Y97D01*
X885Y97D01*
X885Y96D01*
X899Y96D01*
X899Y95D01*
X921Y95D01*
X921Y96D01*
X933Y96D01*
X933Y97D01*
X941Y97D01*
X941Y98D01*
X948Y98D01*
X948Y99D01*
X953Y99D01*
X953Y100D01*
X958Y100D01*
X958Y101D01*
X962Y101D01*
X962Y103D01*
X966Y103D01*
X966Y104D01*
X847Y104D01*
G37*
D02*
G36*
X652Y185D02*
X652Y184D01*
X650Y184D01*
X650Y183D01*
X648Y183D01*
X648Y182D01*
X658Y182D01*
X658Y181D01*
X659Y181D01*
X659Y180D01*
X660Y180D01*
X660Y179D01*
X661Y179D01*
X661Y178D01*
X662Y178D01*
X662Y174D01*
X661Y174D01*
X661Y173D01*
X660Y173D01*
X660Y171D01*
X658Y171D01*
X658Y170D01*
X657Y170D01*
X657Y169D01*
X661Y169D01*
X661Y170D01*
X662Y170D01*
X662Y171D01*
X663Y171D01*
X663Y173D01*
X664Y173D01*
X664Y179D01*
X663Y179D01*
X663Y181D01*
X662Y181D01*
X662Y182D01*
X661Y182D01*
X661Y183D01*
X660Y183D01*
X660Y184D01*
X657Y184D01*
X657Y185D01*
X652Y185D01*
G37*
D02*
G36*
X647Y182D02*
X647Y180D01*
X646Y180D01*
X646Y172D01*
X647Y172D01*
X647Y170D01*
X648Y170D01*
X648Y169D01*
X652Y169D01*
X652Y170D01*
X651Y170D01*
X651Y171D01*
X650Y171D01*
X650Y172D01*
X649Y172D01*
X649Y174D01*
X648Y174D01*
X648Y178D01*
X649Y178D01*
X649Y180D01*
X650Y180D01*
X650Y181D01*
X651Y181D01*
X651Y182D01*
X647Y182D01*
G37*
D02*
G36*
X649Y169D02*
X649Y168D01*
X660Y168D01*
X660Y169D01*
X649Y169D01*
G37*
D02*
G36*
X649Y169D02*
X649Y168D01*
X660Y168D01*
X660Y169D01*
X649Y169D01*
G37*
D02*
G36*
X650Y168D02*
X650Y167D01*
X653Y167D01*
X653Y166D01*
X656Y166D01*
X656Y167D01*
X659Y167D01*
X659Y168D01*
X650Y168D01*
G37*
D02*
G36*
X816Y185D02*
X816Y177D01*
X815Y177D01*
X815Y171D01*
X816Y171D01*
X816Y176D01*
X817Y176D01*
X817Y185D01*
X816Y185D01*
G37*
D02*
G36*
X814Y171D02*
X814Y168D01*
X813Y168D01*
X813Y164D01*
X814Y164D01*
X814Y167D01*
X815Y167D01*
X815Y171D01*
X814Y171D01*
G37*
D02*
G36*
X812Y164D02*
X812Y162D01*
X811Y162D01*
X811Y159D01*
X812Y159D01*
X812Y161D01*
X813Y161D01*
X813Y164D01*
X812Y164D01*
G37*
D02*
G36*
X810Y159D02*
X810Y157D01*
X811Y157D01*
X811Y159D01*
X810Y159D01*
G37*
D02*
G36*
X809Y157D02*
X809Y155D01*
X810Y155D01*
X810Y157D01*
X809Y157D01*
G37*
D02*
G36*
X808Y155D02*
X808Y153D01*
X807Y153D01*
X807Y151D01*
X806Y151D01*
X806Y149D01*
X807Y149D01*
X807Y150D01*
X808Y150D01*
X808Y152D01*
X809Y152D01*
X809Y155D01*
X808Y155D01*
G37*
D02*
G54D11*
X7Y1001D02*
X15Y1001D01*
X7Y1000D02*
X14Y1000D01*
X7Y999D02*
X14Y999D01*
X7Y998D02*
X14Y998D01*
X7Y997D02*
X14Y997D01*
X7Y996D02*
X14Y996D01*
X7Y995D02*
X14Y995D01*
X7Y994D02*
X14Y994D01*
X7Y993D02*
X14Y993D01*
X7Y992D02*
X14Y992D01*
X7Y991D02*
X14Y991D01*
X7Y990D02*
X14Y990D01*
X7Y989D02*
X14Y989D01*
X7Y988D02*
X14Y988D01*
X7Y987D02*
X14Y987D01*
X7Y986D02*
X14Y986D01*
X7Y985D02*
X14Y985D01*
X7Y984D02*
X14Y984D01*
X7Y983D02*
X14Y983D01*
X7Y982D02*
X14Y982D01*
X7Y981D02*
X14Y981D01*
X7Y980D02*
X14Y980D01*
X7Y979D02*
X14Y979D01*
X7Y978D02*
X14Y978D01*
X7Y977D02*
X14Y977D01*
X7Y976D02*
X14Y976D01*
X7Y975D02*
X14Y975D01*
X7Y974D02*
X14Y974D01*
X7Y973D02*
X14Y973D01*
X7Y972D02*
X14Y972D01*
X7Y971D02*
X14Y971D01*
X7Y970D02*
X14Y970D01*
X7Y969D02*
X14Y969D01*
X7Y968D02*
X14Y968D01*
X7Y967D02*
X14Y967D01*
X7Y966D02*
X14Y966D01*
X7Y965D02*
X14Y965D01*
X7Y964D02*
X14Y964D01*
X7Y963D02*
X14Y963D01*
X7Y962D02*
X14Y962D01*
X7Y961D02*
X14Y961D01*
X7Y960D02*
X14Y960D01*
X7Y959D02*
X14Y959D01*
X7Y958D02*
X14Y958D01*
X7Y957D02*
X14Y957D01*
X7Y956D02*
X14Y956D01*
X7Y955D02*
X14Y955D01*
X7Y954D02*
X14Y954D01*
X7Y953D02*
X14Y953D01*
X480Y953D02*
X513Y953D01*
X532Y953D02*
X535Y953D01*
X581Y953D02*
X584Y953D01*
X608Y953D02*
X611Y953D01*
X644Y953D02*
X662Y953D01*
X681Y953D02*
X700Y953D01*
X733Y953D02*
X736Y953D01*
X7Y952D02*
X14Y952D01*
X479Y952D02*
X513Y952D01*
X531Y952D02*
X536Y952D01*
X580Y952D02*
X585Y952D01*
X607Y952D02*
X612Y952D01*
X642Y952D02*
X663Y952D01*
X680Y952D02*
X700Y952D01*
X732Y952D02*
X737Y952D01*
X7Y951D02*
X14Y951D01*
X479Y951D02*
X513Y951D01*
X531Y951D02*
X537Y951D01*
X579Y951D02*
X585Y951D01*
X607Y951D02*
X613Y951D01*
X641Y951D02*
X663Y951D01*
X680Y951D02*
X700Y951D01*
X732Y951D02*
X738Y951D01*
X7Y950D02*
X14Y950D01*
X479Y950D02*
X513Y950D01*
X531Y950D02*
X537Y950D01*
X579Y950D02*
X585Y950D01*
X607Y950D02*
X613Y950D01*
X640Y950D02*
X663Y950D01*
X680Y950D02*
X700Y950D01*
X732Y950D02*
X738Y950D01*
X7Y949D02*
X14Y949D01*
X479Y949D02*
X513Y949D01*
X531Y949D02*
X537Y949D01*
X579Y949D02*
X585Y949D01*
X607Y949D02*
X613Y949D01*
X639Y949D02*
X663Y949D01*
X680Y949D02*
X700Y949D01*
X732Y949D02*
X738Y949D01*
X7Y948D02*
X14Y948D01*
X479Y948D02*
X513Y948D01*
X531Y948D02*
X537Y948D01*
X579Y948D02*
X585Y948D01*
X607Y948D02*
X613Y948D01*
X638Y948D02*
X662Y948D01*
X680Y948D02*
X700Y948D01*
X732Y948D02*
X738Y948D01*
X7Y947D02*
X14Y947D01*
X479Y947D02*
X513Y947D01*
X531Y947D02*
X537Y947D01*
X553Y947D02*
X556Y947D01*
X579Y947D02*
X585Y947D01*
X607Y947D02*
X613Y947D01*
X638Y947D02*
X661Y947D01*
X682Y947D02*
X700Y947D01*
X732Y947D02*
X738Y947D01*
X754Y947D02*
X757Y947D01*
X1056Y947D02*
X1083Y947D01*
X1108Y947D02*
X1126Y947D01*
X7Y946D02*
X14Y946D01*
X479Y946D02*
X485Y946D01*
X506Y946D02*
X513Y946D01*
X531Y946D02*
X537Y946D01*
X552Y946D02*
X557Y946D01*
X579Y946D02*
X585Y946D01*
X607Y946D02*
X613Y946D01*
X637Y946D02*
X645Y946D01*
X693Y946D02*
X700Y946D01*
X732Y946D02*
X738Y946D01*
X753Y946D02*
X758Y946D01*
X1056Y946D02*
X1085Y946D01*
X1107Y946D02*
X1126Y946D01*
X7Y945D02*
X14Y945D01*
X480Y945D02*
X484Y945D01*
X506Y945D02*
X513Y945D01*
X531Y945D02*
X537Y945D01*
X552Y945D02*
X557Y945D01*
X579Y945D02*
X585Y945D01*
X607Y945D02*
X613Y945D01*
X637Y945D02*
X644Y945D01*
X693Y945D02*
X700Y945D01*
X732Y945D02*
X738Y945D01*
X752Y945D02*
X758Y945D01*
X1056Y945D02*
X1086Y945D01*
X1107Y945D02*
X1126Y945D01*
X7Y944D02*
X14Y944D01*
X481Y944D02*
X483Y944D01*
X506Y944D02*
X513Y944D01*
X531Y944D02*
X537Y944D01*
X551Y944D02*
X558Y944D01*
X579Y944D02*
X585Y944D01*
X607Y944D02*
X613Y944D01*
X636Y944D02*
X643Y944D01*
X693Y944D02*
X700Y944D01*
X732Y944D02*
X738Y944D01*
X752Y944D02*
X758Y944D01*
X1056Y944D02*
X1087Y944D01*
X1107Y944D02*
X1126Y944D01*
X7Y943D02*
X14Y943D01*
X506Y943D02*
X513Y943D01*
X531Y943D02*
X537Y943D01*
X551Y943D02*
X558Y943D01*
X579Y943D02*
X585Y943D01*
X607Y943D02*
X613Y943D01*
X636Y943D02*
X643Y943D01*
X693Y943D02*
X700Y943D01*
X732Y943D02*
X738Y943D01*
X752Y943D02*
X758Y943D01*
X1056Y943D02*
X1088Y943D01*
X1107Y943D02*
X1126Y943D01*
X7Y942D02*
X14Y942D01*
X506Y942D02*
X513Y942D01*
X531Y942D02*
X537Y942D01*
X551Y942D02*
X558Y942D01*
X579Y942D02*
X585Y942D01*
X607Y942D02*
X613Y942D01*
X635Y942D02*
X642Y942D01*
X693Y942D02*
X700Y942D01*
X732Y942D02*
X738Y942D01*
X752Y942D02*
X758Y942D01*
X1056Y942D02*
X1089Y942D01*
X1107Y942D02*
X1126Y942D01*
X7Y941D02*
X14Y941D01*
X506Y941D02*
X513Y941D01*
X531Y941D02*
X537Y941D01*
X551Y941D02*
X558Y941D01*
X579Y941D02*
X585Y941D01*
X607Y941D02*
X613Y941D01*
X635Y941D02*
X642Y941D01*
X693Y941D02*
X700Y941D01*
X732Y941D02*
X738Y941D01*
X752Y941D02*
X758Y941D01*
X1056Y941D02*
X1089Y941D01*
X1109Y941D02*
X1126Y941D01*
X7Y940D02*
X14Y940D01*
X506Y940D02*
X513Y940D01*
X531Y940D02*
X537Y940D01*
X551Y940D02*
X558Y940D01*
X579Y940D02*
X585Y940D01*
X607Y940D02*
X613Y940D01*
X634Y940D02*
X641Y940D01*
X693Y940D02*
X700Y940D01*
X732Y940D02*
X738Y940D01*
X752Y940D02*
X758Y940D01*
X1056Y940D02*
X1062Y940D01*
X1083Y940D02*
X1090Y940D01*
X1120Y940D02*
X1126Y940D01*
X7Y939D02*
X14Y939D01*
X506Y939D02*
X513Y939D01*
X531Y939D02*
X537Y939D01*
X551Y939D02*
X558Y939D01*
X579Y939D02*
X585Y939D01*
X607Y939D02*
X613Y939D01*
X634Y939D02*
X641Y939D01*
X693Y939D02*
X700Y939D01*
X732Y939D02*
X738Y939D01*
X752Y939D02*
X758Y939D01*
X1056Y939D02*
X1062Y939D01*
X1083Y939D02*
X1090Y939D01*
X1120Y939D02*
X1126Y939D01*
X7Y938D02*
X14Y938D01*
X506Y938D02*
X513Y938D01*
X531Y938D02*
X537Y938D01*
X551Y938D02*
X558Y938D01*
X579Y938D02*
X585Y938D01*
X607Y938D02*
X613Y938D01*
X633Y938D02*
X640Y938D01*
X693Y938D02*
X700Y938D01*
X732Y938D02*
X738Y938D01*
X752Y938D02*
X758Y938D01*
X1056Y938D02*
X1062Y938D01*
X1084Y938D02*
X1090Y938D01*
X1120Y938D02*
X1126Y938D01*
X7Y937D02*
X14Y937D01*
X506Y937D02*
X513Y937D01*
X531Y937D02*
X537Y937D01*
X551Y937D02*
X558Y937D01*
X579Y937D02*
X585Y937D01*
X607Y937D02*
X613Y937D01*
X633Y937D02*
X640Y937D01*
X693Y937D02*
X700Y937D01*
X732Y937D02*
X738Y937D01*
X752Y937D02*
X758Y937D01*
X1056Y937D02*
X1062Y937D01*
X1084Y937D02*
X1090Y937D01*
X1120Y937D02*
X1126Y937D01*
X7Y936D02*
X14Y936D01*
X506Y936D02*
X513Y936D01*
X531Y936D02*
X537Y936D01*
X551Y936D02*
X558Y936D01*
X579Y936D02*
X585Y936D01*
X607Y936D02*
X613Y936D01*
X632Y936D02*
X639Y936D01*
X693Y936D02*
X700Y936D01*
X732Y936D02*
X738Y936D01*
X752Y936D02*
X758Y936D01*
X1056Y936D02*
X1062Y936D01*
X1084Y936D02*
X1090Y936D01*
X1120Y936D02*
X1126Y936D01*
X7Y935D02*
X14Y935D01*
X506Y935D02*
X513Y935D01*
X531Y935D02*
X537Y935D01*
X551Y935D02*
X558Y935D01*
X579Y935D02*
X585Y935D01*
X607Y935D02*
X613Y935D01*
X632Y935D02*
X639Y935D01*
X693Y935D02*
X700Y935D01*
X732Y935D02*
X738Y935D01*
X752Y935D02*
X758Y935D01*
X1056Y935D02*
X1062Y935D01*
X1084Y935D02*
X1090Y935D01*
X1120Y935D02*
X1126Y935D01*
X7Y934D02*
X14Y934D01*
X506Y934D02*
X513Y934D01*
X531Y934D02*
X537Y934D01*
X551Y934D02*
X558Y934D01*
X579Y934D02*
X585Y934D01*
X607Y934D02*
X613Y934D01*
X631Y934D02*
X638Y934D01*
X693Y934D02*
X700Y934D01*
X732Y934D02*
X738Y934D01*
X752Y934D02*
X758Y934D01*
X1056Y934D02*
X1062Y934D01*
X1084Y934D02*
X1090Y934D01*
X1120Y934D02*
X1126Y934D01*
X7Y933D02*
X14Y933D01*
X505Y933D02*
X513Y933D01*
X531Y933D02*
X537Y933D01*
X551Y933D02*
X558Y933D01*
X579Y933D02*
X585Y933D01*
X607Y933D02*
X613Y933D01*
X631Y933D02*
X638Y933D01*
X693Y933D02*
X700Y933D01*
X732Y933D02*
X738Y933D01*
X752Y933D02*
X758Y933D01*
X1056Y933D02*
X1062Y933D01*
X1084Y933D02*
X1090Y933D01*
X1120Y933D02*
X1126Y933D01*
X7Y932D02*
X14Y932D01*
X504Y932D02*
X512Y932D01*
X531Y932D02*
X537Y932D01*
X551Y932D02*
X558Y932D01*
X579Y932D02*
X585Y932D01*
X607Y932D02*
X613Y932D01*
X630Y932D02*
X637Y932D01*
X693Y932D02*
X700Y932D01*
X732Y932D02*
X738Y932D01*
X752Y932D02*
X758Y932D01*
X1056Y932D02*
X1062Y932D01*
X1084Y932D02*
X1090Y932D01*
X1120Y932D02*
X1126Y932D01*
X7Y931D02*
X14Y931D01*
X503Y931D02*
X512Y931D01*
X531Y931D02*
X537Y931D01*
X551Y931D02*
X558Y931D01*
X579Y931D02*
X585Y931D01*
X607Y931D02*
X613Y931D01*
X630Y931D02*
X637Y931D01*
X693Y931D02*
X700Y931D01*
X732Y931D02*
X738Y931D01*
X752Y931D02*
X758Y931D01*
X1056Y931D02*
X1062Y931D01*
X1083Y931D02*
X1090Y931D01*
X1120Y931D02*
X1126Y931D01*
X7Y930D02*
X14Y930D01*
X502Y930D02*
X511Y930D01*
X531Y930D02*
X537Y930D01*
X551Y930D02*
X558Y930D01*
X579Y930D02*
X613Y930D01*
X630Y930D02*
X636Y930D01*
X693Y930D02*
X700Y930D01*
X732Y930D02*
X738Y930D01*
X752Y930D02*
X758Y930D01*
X1056Y930D02*
X1089Y930D01*
X1120Y930D02*
X1126Y930D01*
X7Y929D02*
X14Y929D01*
X501Y929D02*
X510Y929D01*
X531Y929D02*
X537Y929D01*
X551Y929D02*
X558Y929D01*
X579Y929D02*
X613Y929D01*
X630Y929D02*
X636Y929D01*
X693Y929D02*
X700Y929D01*
X732Y929D02*
X738Y929D01*
X752Y929D02*
X758Y929D01*
X1056Y929D02*
X1089Y929D01*
X1120Y929D02*
X1126Y929D01*
X7Y928D02*
X14Y928D01*
X499Y928D02*
X509Y928D01*
X531Y928D02*
X537Y928D01*
X551Y928D02*
X558Y928D01*
X579Y928D02*
X613Y928D01*
X630Y928D02*
X636Y928D01*
X693Y928D02*
X700Y928D01*
X732Y928D02*
X738Y928D01*
X752Y928D02*
X758Y928D01*
X1056Y928D02*
X1088Y928D01*
X1120Y928D02*
X1126Y928D01*
X7Y927D02*
X14Y927D01*
X498Y927D02*
X508Y927D01*
X531Y927D02*
X537Y927D01*
X551Y927D02*
X558Y927D01*
X579Y927D02*
X613Y927D01*
X630Y927D02*
X636Y927D01*
X693Y927D02*
X700Y927D01*
X732Y927D02*
X738Y927D01*
X752Y927D02*
X758Y927D01*
X1056Y927D02*
X1088Y927D01*
X1120Y927D02*
X1126Y927D01*
X7Y926D02*
X14Y926D01*
X497Y926D02*
X507Y926D01*
X531Y926D02*
X537Y926D01*
X551Y926D02*
X558Y926D01*
X579Y926D02*
X613Y926D01*
X630Y926D02*
X636Y926D01*
X693Y926D02*
X700Y926D01*
X732Y926D02*
X738Y926D01*
X752Y926D02*
X758Y926D01*
X1056Y926D02*
X1087Y926D01*
X1120Y926D02*
X1126Y926D01*
X7Y925D02*
X14Y925D01*
X496Y925D02*
X506Y925D01*
X531Y925D02*
X537Y925D01*
X551Y925D02*
X558Y925D01*
X579Y925D02*
X613Y925D01*
X630Y925D02*
X636Y925D01*
X693Y925D02*
X700Y925D01*
X732Y925D02*
X738Y925D01*
X752Y925D02*
X758Y925D01*
X1056Y925D02*
X1085Y925D01*
X1120Y925D02*
X1126Y925D01*
X7Y924D02*
X14Y924D01*
X495Y924D02*
X505Y924D01*
X531Y924D02*
X559Y924D01*
X579Y924D02*
X613Y924D01*
X630Y924D02*
X636Y924D01*
X693Y924D02*
X700Y924D01*
X710Y924D02*
X711Y924D01*
X732Y924D02*
X760Y924D01*
X1056Y924D02*
X1084Y924D01*
X1120Y924D02*
X1126Y924D01*
X7Y923D02*
X14Y923D01*
X494Y923D02*
X503Y923D01*
X531Y923D02*
X560Y923D01*
X579Y923D02*
X586Y923D01*
X607Y923D02*
X613Y923D01*
X630Y923D02*
X636Y923D01*
X693Y923D02*
X700Y923D01*
X708Y923D02*
X712Y923D01*
X732Y923D02*
X761Y923D01*
X1056Y923D02*
X1063Y923D01*
X1068Y923D02*
X1076Y923D01*
X1120Y923D02*
X1126Y923D01*
X7Y922D02*
X14Y922D01*
X493Y922D02*
X502Y922D01*
X531Y922D02*
X561Y922D01*
X579Y922D02*
X585Y922D01*
X607Y922D02*
X613Y922D01*
X630Y922D02*
X637Y922D01*
X693Y922D02*
X700Y922D01*
X708Y922D02*
X713Y922D01*
X732Y922D02*
X762Y922D01*
X1056Y922D02*
X1062Y922D01*
X1069Y922D02*
X1076Y922D01*
X1120Y922D02*
X1126Y922D01*
X7Y921D02*
X14Y921D01*
X493Y921D02*
X501Y921D01*
X531Y921D02*
X561Y921D01*
X579Y921D02*
X585Y921D01*
X607Y921D02*
X613Y921D01*
X631Y921D02*
X637Y921D01*
X693Y921D02*
X700Y921D01*
X707Y921D02*
X713Y921D01*
X732Y921D02*
X762Y921D01*
X1056Y921D02*
X1062Y921D01*
X1069Y921D02*
X1077Y921D01*
X1120Y921D02*
X1126Y921D01*
X7Y920D02*
X14Y920D01*
X493Y920D02*
X500Y920D01*
X531Y920D02*
X561Y920D01*
X579Y920D02*
X585Y920D01*
X607Y920D02*
X613Y920D01*
X631Y920D02*
X638Y920D01*
X693Y920D02*
X700Y920D01*
X707Y920D02*
X713Y920D01*
X732Y920D02*
X762Y920D01*
X1056Y920D02*
X1062Y920D01*
X1070Y920D02*
X1077Y920D01*
X1120Y920D02*
X1126Y920D01*
X7Y919D02*
X14Y919D01*
X493Y919D02*
X499Y919D01*
X531Y919D02*
X561Y919D01*
X579Y919D02*
X585Y919D01*
X607Y919D02*
X613Y919D01*
X631Y919D02*
X638Y919D01*
X693Y919D02*
X700Y919D01*
X707Y919D02*
X713Y919D01*
X732Y919D02*
X761Y919D01*
X1056Y919D02*
X1062Y919D01*
X1071Y919D02*
X1078Y919D01*
X1120Y919D02*
X1126Y919D01*
X7Y918D02*
X14Y918D01*
X493Y918D02*
X499Y918D01*
X531Y918D02*
X560Y918D01*
X579Y918D02*
X585Y918D01*
X607Y918D02*
X613Y918D01*
X632Y918D02*
X639Y918D01*
X693Y918D02*
X700Y918D01*
X707Y918D02*
X713Y918D01*
X732Y918D02*
X761Y918D01*
X1056Y918D02*
X1062Y918D01*
X1071Y918D02*
X1078Y918D01*
X1120Y918D02*
X1126Y918D01*
X1136Y918D02*
X1138Y918D01*
X7Y917D02*
X14Y917D01*
X493Y917D02*
X499Y917D01*
X551Y917D02*
X558Y917D01*
X579Y917D02*
X585Y917D01*
X607Y917D02*
X613Y917D01*
X632Y917D02*
X639Y917D01*
X693Y917D02*
X700Y917D01*
X707Y917D02*
X713Y917D01*
X752Y917D02*
X759Y917D01*
X1056Y917D02*
X1062Y917D01*
X1072Y917D02*
X1079Y917D01*
X1120Y917D02*
X1126Y917D01*
X1135Y917D02*
X1139Y917D01*
X7Y916D02*
X14Y916D01*
X493Y916D02*
X499Y916D01*
X551Y916D02*
X558Y916D01*
X579Y916D02*
X585Y916D01*
X607Y916D02*
X613Y916D01*
X633Y916D02*
X640Y916D01*
X693Y916D02*
X700Y916D01*
X707Y916D02*
X713Y916D01*
X752Y916D02*
X758Y916D01*
X1056Y916D02*
X1062Y916D01*
X1072Y916D02*
X1080Y916D01*
X1120Y916D02*
X1126Y916D01*
X1134Y916D02*
X1140Y916D01*
X7Y915D02*
X14Y915D01*
X493Y915D02*
X499Y915D01*
X551Y915D02*
X558Y915D01*
X579Y915D02*
X585Y915D01*
X607Y915D02*
X613Y915D01*
X633Y915D02*
X640Y915D01*
X693Y915D02*
X700Y915D01*
X707Y915D02*
X713Y915D01*
X752Y915D02*
X758Y915D01*
X1056Y915D02*
X1062Y915D01*
X1073Y915D02*
X1080Y915D01*
X1120Y915D02*
X1126Y915D01*
X1134Y915D02*
X1140Y915D01*
X7Y914D02*
X14Y914D01*
X493Y914D02*
X499Y914D01*
X551Y914D02*
X558Y914D01*
X579Y914D02*
X585Y914D01*
X607Y914D02*
X613Y914D01*
X634Y914D02*
X641Y914D01*
X693Y914D02*
X700Y914D01*
X707Y914D02*
X713Y914D01*
X752Y914D02*
X758Y914D01*
X1056Y914D02*
X1062Y914D01*
X1073Y914D02*
X1081Y914D01*
X1120Y914D02*
X1126Y914D01*
X1134Y914D02*
X1140Y914D01*
X7Y913D02*
X14Y913D01*
X493Y913D02*
X499Y913D01*
X551Y913D02*
X558Y913D01*
X579Y913D02*
X585Y913D01*
X607Y913D02*
X613Y913D01*
X634Y913D02*
X641Y913D01*
X693Y913D02*
X700Y913D01*
X707Y913D02*
X713Y913D01*
X752Y913D02*
X758Y913D01*
X1056Y913D02*
X1062Y913D01*
X1074Y913D02*
X1081Y913D01*
X1120Y913D02*
X1126Y913D01*
X1134Y913D02*
X1140Y913D01*
X7Y912D02*
X14Y912D01*
X493Y912D02*
X499Y912D01*
X551Y912D02*
X558Y912D01*
X579Y912D02*
X585Y912D01*
X607Y912D02*
X613Y912D01*
X635Y912D02*
X642Y912D01*
X693Y912D02*
X700Y912D01*
X707Y912D02*
X713Y912D01*
X752Y912D02*
X758Y912D01*
X1056Y912D02*
X1062Y912D01*
X1075Y912D02*
X1082Y912D01*
X1120Y912D02*
X1126Y912D01*
X1134Y912D02*
X1140Y912D01*
X7Y911D02*
X14Y911D01*
X493Y911D02*
X499Y911D01*
X551Y911D02*
X558Y911D01*
X579Y911D02*
X585Y911D01*
X607Y911D02*
X613Y911D01*
X635Y911D02*
X642Y911D01*
X693Y911D02*
X700Y911D01*
X707Y911D02*
X713Y911D01*
X752Y911D02*
X758Y911D01*
X1056Y911D02*
X1062Y911D01*
X1075Y911D02*
X1082Y911D01*
X1120Y911D02*
X1126Y911D01*
X1134Y911D02*
X1140Y911D01*
X7Y910D02*
X14Y910D01*
X493Y910D02*
X499Y910D01*
X551Y910D02*
X558Y910D01*
X579Y910D02*
X585Y910D01*
X607Y910D02*
X613Y910D01*
X636Y910D02*
X643Y910D01*
X693Y910D02*
X700Y910D01*
X707Y910D02*
X713Y910D01*
X752Y910D02*
X758Y910D01*
X1056Y910D02*
X1062Y910D01*
X1076Y910D02*
X1083Y910D01*
X1120Y910D02*
X1126Y910D01*
X1134Y910D02*
X1140Y910D01*
X7Y909D02*
X14Y909D01*
X493Y909D02*
X499Y909D01*
X551Y909D02*
X558Y909D01*
X579Y909D02*
X585Y909D01*
X607Y909D02*
X613Y909D01*
X636Y909D02*
X643Y909D01*
X693Y909D02*
X700Y909D01*
X707Y909D02*
X713Y909D01*
X752Y909D02*
X758Y909D01*
X1056Y909D02*
X1062Y909D01*
X1076Y909D02*
X1084Y909D01*
X1120Y909D02*
X1126Y909D01*
X1134Y909D02*
X1140Y909D01*
X7Y908D02*
X14Y908D01*
X493Y908D02*
X499Y908D01*
X551Y908D02*
X558Y908D01*
X579Y908D02*
X585Y908D01*
X607Y908D02*
X613Y908D01*
X637Y908D02*
X644Y908D01*
X693Y908D02*
X700Y908D01*
X707Y908D02*
X713Y908D01*
X752Y908D02*
X758Y908D01*
X1056Y908D02*
X1062Y908D01*
X1077Y908D02*
X1084Y908D01*
X1120Y908D02*
X1126Y908D01*
X1134Y908D02*
X1140Y908D01*
X7Y907D02*
X14Y907D01*
X493Y907D02*
X499Y907D01*
X551Y907D02*
X558Y907D01*
X579Y907D02*
X585Y907D01*
X607Y907D02*
X613Y907D01*
X637Y907D02*
X645Y907D01*
X693Y907D02*
X700Y907D01*
X707Y907D02*
X713Y907D01*
X752Y907D02*
X758Y907D01*
X1056Y907D02*
X1062Y907D01*
X1078Y907D02*
X1085Y907D01*
X1120Y907D02*
X1126Y907D01*
X1134Y907D02*
X1140Y907D01*
X7Y906D02*
X14Y906D01*
X493Y906D02*
X499Y906D01*
X551Y906D02*
X558Y906D01*
X579Y906D02*
X585Y906D01*
X607Y906D02*
X613Y906D01*
X638Y906D02*
X661Y906D01*
X681Y906D02*
X713Y906D01*
X752Y906D02*
X758Y906D01*
X1056Y906D02*
X1062Y906D01*
X1078Y906D02*
X1085Y906D01*
X1120Y906D02*
X1126Y906D01*
X1134Y906D02*
X1140Y906D01*
X7Y905D02*
X14Y905D01*
X493Y905D02*
X499Y905D01*
X551Y905D02*
X558Y905D01*
X579Y905D02*
X585Y905D01*
X607Y905D02*
X613Y905D01*
X638Y905D02*
X662Y905D01*
X680Y905D02*
X713Y905D01*
X752Y905D02*
X758Y905D01*
X1056Y905D02*
X1062Y905D01*
X1079Y905D02*
X1086Y905D01*
X1120Y905D02*
X1126Y905D01*
X1134Y905D02*
X1140Y905D01*
X7Y904D02*
X14Y904D01*
X493Y904D02*
X499Y904D01*
X551Y904D02*
X558Y904D01*
X579Y904D02*
X585Y904D01*
X607Y904D02*
X613Y904D01*
X639Y904D02*
X663Y904D01*
X680Y904D02*
X713Y904D01*
X752Y904D02*
X758Y904D01*
X1056Y904D02*
X1062Y904D01*
X1079Y904D02*
X1087Y904D01*
X1120Y904D02*
X1126Y904D01*
X1134Y904D02*
X1140Y904D01*
X7Y903D02*
X14Y903D01*
X493Y903D02*
X499Y903D01*
X552Y903D02*
X558Y903D01*
X579Y903D02*
X585Y903D01*
X607Y903D02*
X613Y903D01*
X640Y903D02*
X663Y903D01*
X680Y903D02*
X713Y903D01*
X752Y903D02*
X758Y903D01*
X1056Y903D02*
X1062Y903D01*
X1080Y903D02*
X1087Y903D01*
X1120Y903D02*
X1126Y903D01*
X1134Y903D02*
X1140Y903D01*
X7Y902D02*
X14Y902D01*
X493Y902D02*
X499Y902D01*
X552Y902D02*
X557Y902D01*
X579Y902D02*
X585Y902D01*
X607Y902D02*
X613Y902D01*
X641Y902D02*
X663Y902D01*
X680Y902D02*
X713Y902D01*
X752Y902D02*
X758Y902D01*
X1056Y902D02*
X1062Y902D01*
X1080Y902D02*
X1088Y902D01*
X1120Y902D02*
X1126Y902D01*
X1134Y902D02*
X1140Y902D01*
X7Y901D02*
X14Y901D01*
X493Y901D02*
X498Y901D01*
X552Y901D02*
X557Y901D01*
X580Y901D02*
X585Y901D01*
X608Y901D02*
X612Y901D01*
X642Y901D02*
X662Y901D01*
X680Y901D02*
X713Y901D01*
X753Y901D02*
X758Y901D01*
X1056Y901D02*
X1062Y901D01*
X1081Y901D02*
X1088Y901D01*
X1120Y901D02*
X1126Y901D01*
X1134Y901D02*
X1140Y901D01*
X7Y900D02*
X14Y900D01*
X494Y900D02*
X497Y900D01*
X553Y900D02*
X556Y900D01*
X581Y900D02*
X584Y900D01*
X609Y900D02*
X611Y900D01*
X644Y900D02*
X661Y900D01*
X681Y900D02*
X712Y900D01*
X754Y900D02*
X757Y900D01*
X1056Y900D02*
X1062Y900D01*
X1082Y900D02*
X1089Y900D01*
X1108Y900D02*
X1140Y900D01*
X7Y899D02*
X14Y899D01*
X1056Y899D02*
X1062Y899D01*
X1082Y899D02*
X1089Y899D01*
X1107Y899D02*
X1140Y899D01*
X7Y898D02*
X14Y898D01*
X1056Y898D02*
X1062Y898D01*
X1083Y898D02*
X1090Y898D01*
X1107Y898D02*
X1140Y898D01*
X7Y897D02*
X14Y897D01*
X1056Y897D02*
X1062Y897D01*
X1083Y897D02*
X1090Y897D01*
X1107Y897D02*
X1140Y897D01*
X7Y896D02*
X14Y896D01*
X1057Y896D02*
X1062Y896D01*
X1084Y896D02*
X1090Y896D01*
X1107Y896D02*
X1140Y896D01*
X7Y895D02*
X14Y895D01*
X1057Y895D02*
X1062Y895D01*
X1085Y895D02*
X1089Y895D01*
X1107Y895D02*
X1139Y895D01*
X7Y894D02*
X14Y894D01*
X1058Y894D02*
X1060Y894D01*
X1086Y894D02*
X1088Y894D01*
X1108Y894D02*
X1138Y894D01*
X7Y893D02*
X14Y893D01*
X7Y892D02*
X14Y892D01*
X7Y891D02*
X14Y891D01*
X7Y890D02*
X14Y890D01*
X7Y889D02*
X14Y889D01*
X7Y888D02*
X14Y888D01*
X7Y887D02*
X14Y887D01*
X7Y886D02*
X14Y886D01*
X7Y885D02*
X14Y885D01*
X7Y884D02*
X14Y884D01*
X7Y883D02*
X14Y883D01*
X7Y882D02*
X14Y882D01*
X7Y881D02*
X14Y881D01*
X7Y880D02*
X14Y880D01*
X7Y879D02*
X14Y879D01*
X7Y878D02*
X14Y878D01*
X7Y877D02*
X14Y877D01*
X7Y876D02*
X14Y876D01*
X7Y875D02*
X14Y875D01*
X7Y874D02*
X14Y874D01*
X7Y873D02*
X14Y873D01*
X7Y872D02*
X14Y872D01*
X7Y871D02*
X14Y871D01*
X7Y870D02*
X14Y870D01*
X7Y869D02*
X14Y869D01*
X7Y868D02*
X14Y868D01*
X7Y867D02*
X14Y867D01*
X7Y866D02*
X14Y866D01*
X7Y865D02*
X14Y865D01*
X7Y864D02*
X14Y864D01*
X7Y863D02*
X14Y863D01*
X7Y862D02*
X14Y862D01*
X7Y861D02*
X14Y861D01*
X7Y860D02*
X14Y860D01*
X7Y859D02*
X14Y859D01*
X7Y858D02*
X14Y858D01*
X7Y857D02*
X14Y857D01*
X7Y856D02*
X14Y856D01*
X7Y855D02*
X14Y855D01*
X7Y854D02*
X14Y854D01*
X7Y853D02*
X14Y853D01*
X7Y852D02*
X14Y852D01*
X7Y851D02*
X14Y851D01*
X7Y850D02*
X14Y850D01*
X7Y849D02*
X14Y849D01*
X7Y848D02*
X14Y848D01*
X7Y847D02*
X14Y847D01*
X7Y846D02*
X14Y846D01*
X7Y845D02*
X14Y845D01*
X7Y844D02*
X14Y844D01*
X7Y843D02*
X14Y843D01*
X7Y842D02*
X14Y842D01*
X7Y841D02*
X14Y841D01*
X7Y840D02*
X14Y840D01*
X7Y839D02*
X14Y839D01*
X7Y838D02*
X14Y838D01*
X7Y837D02*
X14Y837D01*
X7Y836D02*
X14Y836D01*
X7Y835D02*
X14Y835D01*
X7Y834D02*
X14Y834D01*
X7Y833D02*
X14Y833D01*
X7Y832D02*
X14Y832D01*
X7Y831D02*
X14Y831D01*
X7Y830D02*
X14Y830D01*
X7Y829D02*
X14Y829D01*
X653Y829D02*
X701Y829D01*
X902Y829D02*
X968Y829D01*
X7Y828D02*
X14Y828D01*
X653Y828D02*
X701Y828D01*
X902Y828D02*
X968Y828D01*
X7Y827D02*
X14Y827D01*
X654Y827D02*
X701Y827D01*
X902Y827D02*
X968Y827D01*
X7Y826D02*
X14Y826D01*
X654Y826D02*
X701Y826D01*
X902Y826D02*
X968Y826D01*
X7Y825D02*
X14Y825D01*
X654Y825D02*
X701Y825D01*
X902Y825D02*
X968Y825D01*
X7Y824D02*
X14Y824D01*
X654Y824D02*
X701Y824D01*
X902Y824D02*
X968Y824D01*
X7Y823D02*
X14Y823D01*
X654Y823D02*
X701Y823D01*
X902Y823D02*
X968Y823D01*
X7Y822D02*
X14Y822D01*
X653Y822D02*
X701Y822D01*
X902Y822D02*
X968Y822D01*
X7Y821D02*
X14Y821D01*
X653Y821D02*
X701Y821D01*
X902Y821D02*
X968Y821D01*
X7Y820D02*
X14Y820D01*
X653Y820D02*
X700Y820D01*
X902Y820D02*
X968Y820D01*
X7Y819D02*
X14Y819D01*
X7Y818D02*
X14Y818D01*
X7Y817D02*
X14Y817D01*
X7Y816D02*
X14Y816D01*
X7Y815D02*
X14Y815D01*
X7Y814D02*
X14Y814D01*
X7Y813D02*
X14Y813D01*
X7Y812D02*
X14Y812D01*
X7Y811D02*
X14Y811D01*
X7Y810D02*
X14Y810D01*
X7Y809D02*
X14Y809D01*
X7Y808D02*
X14Y808D01*
X7Y807D02*
X14Y807D01*
X7Y806D02*
X14Y806D01*
X7Y805D02*
X14Y805D01*
X7Y804D02*
X14Y804D01*
X7Y803D02*
X14Y803D01*
X1056Y803D02*
X1082Y803D01*
X1108Y803D02*
X1135Y803D01*
X7Y802D02*
X14Y802D01*
X1056Y802D02*
X1085Y802D01*
X1107Y802D02*
X1137Y802D01*
X7Y801D02*
X14Y801D01*
X1056Y801D02*
X1086Y801D01*
X1107Y801D02*
X1138Y801D01*
X7Y800D02*
X14Y800D01*
X1056Y800D02*
X1087Y800D01*
X1107Y800D02*
X1139Y800D01*
X7Y799D02*
X14Y799D01*
X1056Y799D02*
X1088Y799D01*
X1107Y799D02*
X1140Y799D01*
X7Y798D02*
X14Y798D01*
X1056Y798D02*
X1089Y798D01*
X1107Y798D02*
X1140Y798D01*
X7Y797D02*
X14Y797D01*
X1056Y797D02*
X1089Y797D01*
X1108Y797D02*
X1140Y797D01*
X7Y796D02*
X14Y796D01*
X1056Y796D02*
X1062Y796D01*
X1082Y796D02*
X1090Y796D01*
X1134Y796D02*
X1140Y796D01*
X7Y795D02*
X14Y795D01*
X1056Y795D02*
X1062Y795D01*
X1083Y795D02*
X1090Y795D01*
X1134Y795D02*
X1140Y795D01*
X7Y794D02*
X14Y794D01*
X1056Y794D02*
X1062Y794D01*
X1084Y794D02*
X1090Y794D01*
X1134Y794D02*
X1140Y794D01*
X7Y793D02*
X14Y793D01*
X1056Y793D02*
X1062Y793D01*
X1084Y793D02*
X1090Y793D01*
X1134Y793D02*
X1140Y793D01*
X7Y792D02*
X14Y792D01*
X1056Y792D02*
X1062Y792D01*
X1084Y792D02*
X1090Y792D01*
X1134Y792D02*
X1140Y792D01*
X7Y791D02*
X14Y791D01*
X1056Y791D02*
X1062Y791D01*
X1084Y791D02*
X1090Y791D01*
X1134Y791D02*
X1140Y791D01*
X7Y790D02*
X14Y790D01*
X1056Y790D02*
X1062Y790D01*
X1084Y790D02*
X1090Y790D01*
X1134Y790D02*
X1140Y790D01*
X7Y789D02*
X14Y789D01*
X1056Y789D02*
X1062Y789D01*
X1084Y789D02*
X1090Y789D01*
X1134Y789D02*
X1140Y789D01*
X7Y788D02*
X14Y788D01*
X1056Y788D02*
X1062Y788D01*
X1084Y788D02*
X1090Y788D01*
X1134Y788D02*
X1140Y788D01*
X7Y787D02*
X14Y787D01*
X1056Y787D02*
X1062Y787D01*
X1083Y787D02*
X1090Y787D01*
X1134Y787D02*
X1140Y787D01*
X7Y786D02*
X14Y786D01*
X1056Y786D02*
X1063Y786D01*
X1082Y786D02*
X1089Y786D01*
X1134Y786D02*
X1140Y786D01*
X7Y785D02*
X14Y785D01*
X1056Y785D02*
X1089Y785D01*
X1134Y785D02*
X1140Y785D01*
X7Y784D02*
X14Y784D01*
X1056Y784D02*
X1089Y784D01*
X1134Y784D02*
X1140Y784D01*
X7Y783D02*
X14Y783D01*
X1056Y783D02*
X1088Y783D01*
X1134Y783D02*
X1140Y783D01*
X7Y782D02*
X14Y782D01*
X1056Y782D02*
X1087Y782D01*
X1134Y782D02*
X1140Y782D01*
X7Y781D02*
X14Y781D01*
X1056Y781D02*
X1086Y781D01*
X1134Y781D02*
X1140Y781D01*
X7Y780D02*
X14Y780D01*
X1056Y780D02*
X1084Y780D01*
X1134Y780D02*
X1140Y780D01*
X7Y779D02*
X14Y779D01*
X1056Y779D02*
X1082Y779D01*
X1110Y779D02*
X1140Y779D01*
X7Y778D02*
X14Y778D01*
X1056Y778D02*
X1062Y778D01*
X1069Y778D02*
X1076Y778D01*
X1109Y778D02*
X1140Y778D01*
X7Y777D02*
X14Y777D01*
X1056Y777D02*
X1062Y777D01*
X1069Y777D02*
X1076Y777D01*
X1108Y777D02*
X1140Y777D01*
X7Y776D02*
X14Y776D01*
X1056Y776D02*
X1062Y776D01*
X1070Y776D02*
X1077Y776D01*
X1107Y776D02*
X1139Y776D01*
X7Y775D02*
X14Y775D01*
X1056Y775D02*
X1062Y775D01*
X1070Y775D02*
X1078Y775D01*
X1107Y775D02*
X1138Y775D01*
X7Y774D02*
X14Y774D01*
X1056Y774D02*
X1062Y774D01*
X1071Y774D02*
X1078Y774D01*
X1107Y774D02*
X1137Y774D01*
X7Y773D02*
X14Y773D01*
X1056Y773D02*
X1062Y773D01*
X1072Y773D02*
X1079Y773D01*
X1107Y773D02*
X1135Y773D01*
X7Y772D02*
X14Y772D01*
X1056Y772D02*
X1062Y772D01*
X1072Y772D02*
X1079Y772D01*
X1107Y772D02*
X1113Y772D01*
X7Y771D02*
X14Y771D01*
X1056Y771D02*
X1062Y771D01*
X1073Y771D02*
X1080Y771D01*
X1107Y771D02*
X1113Y771D01*
X7Y770D02*
X14Y770D01*
X1056Y770D02*
X1062Y770D01*
X1073Y770D02*
X1080Y770D01*
X1107Y770D02*
X1113Y770D01*
X7Y769D02*
X14Y769D01*
X1056Y769D02*
X1062Y769D01*
X1074Y769D02*
X1081Y769D01*
X1107Y769D02*
X1113Y769D01*
X7Y768D02*
X14Y768D01*
X1056Y768D02*
X1062Y768D01*
X1074Y768D02*
X1082Y768D01*
X1107Y768D02*
X1113Y768D01*
X7Y767D02*
X14Y767D01*
X1056Y767D02*
X1062Y767D01*
X1075Y767D02*
X1082Y767D01*
X1107Y767D02*
X1113Y767D01*
X7Y766D02*
X14Y766D01*
X1056Y766D02*
X1062Y766D01*
X1076Y766D02*
X1083Y766D01*
X1107Y766D02*
X1113Y766D01*
X7Y765D02*
X14Y765D01*
X1056Y765D02*
X1062Y765D01*
X1076Y765D02*
X1083Y765D01*
X1107Y765D02*
X1113Y765D01*
X7Y764D02*
X14Y764D01*
X1056Y764D02*
X1062Y764D01*
X1077Y764D02*
X1084Y764D01*
X1107Y764D02*
X1113Y764D01*
X7Y763D02*
X14Y763D01*
X1056Y763D02*
X1062Y763D01*
X1077Y763D02*
X1085Y763D01*
X1107Y763D02*
X1113Y763D01*
X7Y762D02*
X14Y762D01*
X1056Y762D02*
X1062Y762D01*
X1078Y762D02*
X1085Y762D01*
X1107Y762D02*
X1113Y762D01*
X7Y761D02*
X14Y761D01*
X1056Y761D02*
X1062Y761D01*
X1079Y761D02*
X1086Y761D01*
X1107Y761D02*
X1113Y761D01*
X7Y760D02*
X14Y760D01*
X1056Y760D02*
X1062Y760D01*
X1079Y760D02*
X1086Y760D01*
X1107Y760D02*
X1113Y760D01*
X7Y759D02*
X14Y759D01*
X1056Y759D02*
X1062Y759D01*
X1080Y759D02*
X1087Y759D01*
X1107Y759D02*
X1113Y759D01*
X7Y758D02*
X14Y758D01*
X1056Y758D02*
X1062Y758D01*
X1080Y758D02*
X1087Y758D01*
X1107Y758D02*
X1113Y758D01*
X7Y757D02*
X14Y757D01*
X1056Y757D02*
X1062Y757D01*
X1081Y757D02*
X1088Y757D01*
X1107Y757D02*
X1113Y757D01*
X7Y756D02*
X14Y756D01*
X1056Y756D02*
X1062Y756D01*
X1081Y756D02*
X1089Y756D01*
X1107Y756D02*
X1138Y756D01*
X7Y755D02*
X14Y755D01*
X1056Y755D02*
X1062Y755D01*
X1082Y755D02*
X1089Y755D01*
X1107Y755D02*
X1139Y755D01*
X7Y754D02*
X14Y754D01*
X1056Y754D02*
X1062Y754D01*
X1083Y754D02*
X1090Y754D01*
X1107Y754D02*
X1140Y754D01*
X7Y753D02*
X14Y753D01*
X1056Y753D02*
X1062Y753D01*
X1083Y753D02*
X1090Y753D01*
X1107Y753D02*
X1140Y753D01*
X7Y752D02*
X14Y752D01*
X1056Y752D02*
X1062Y752D01*
X1084Y752D02*
X1090Y752D01*
X1107Y752D02*
X1140Y752D01*
X7Y751D02*
X14Y751D01*
X1057Y751D02*
X1062Y751D01*
X1084Y751D02*
X1089Y751D01*
X1107Y751D02*
X1140Y751D01*
X7Y750D02*
X14Y750D01*
X1058Y750D02*
X1061Y750D01*
X1085Y750D02*
X1089Y750D01*
X1107Y750D02*
X1139Y750D01*
X7Y749D02*
X14Y749D01*
X7Y748D02*
X14Y748D01*
X7Y747D02*
X14Y747D01*
X7Y746D02*
X14Y746D01*
X7Y745D02*
X14Y745D01*
X7Y744D02*
X14Y744D01*
X7Y743D02*
X14Y743D01*
X7Y742D02*
X14Y742D01*
X7Y741D02*
X14Y741D01*
X7Y740D02*
X14Y740D01*
X7Y739D02*
X14Y739D01*
X7Y738D02*
X14Y738D01*
X7Y737D02*
X14Y737D01*
X7Y736D02*
X14Y736D01*
X7Y735D02*
X14Y735D01*
X7Y734D02*
X14Y734D01*
X7Y733D02*
X14Y733D01*
X7Y732D02*
X14Y732D01*
X7Y731D02*
X14Y731D01*
X7Y730D02*
X14Y730D01*
X7Y729D02*
X14Y729D01*
X7Y728D02*
X14Y728D01*
X7Y727D02*
X14Y727D01*
X7Y726D02*
X14Y726D01*
X7Y725D02*
X14Y725D01*
X7Y724D02*
X14Y724D01*
X7Y723D02*
X14Y723D01*
X7Y722D02*
X14Y722D01*
X7Y721D02*
X14Y721D01*
X7Y720D02*
X14Y720D01*
X7Y719D02*
X14Y719D01*
X7Y718D02*
X14Y718D01*
X7Y717D02*
X14Y717D01*
X7Y716D02*
X14Y716D01*
X7Y715D02*
X14Y715D01*
X7Y714D02*
X14Y714D01*
X7Y713D02*
X14Y713D01*
X7Y712D02*
X14Y712D01*
X7Y711D02*
X14Y711D01*
X7Y710D02*
X14Y710D01*
X7Y709D02*
X14Y709D01*
X7Y708D02*
X14Y708D01*
X7Y707D02*
X14Y707D01*
X7Y706D02*
X14Y706D01*
X7Y705D02*
X14Y705D01*
X7Y704D02*
X14Y704D01*
X7Y703D02*
X14Y703D01*
X7Y702D02*
X14Y702D01*
X7Y701D02*
X14Y701D01*
X7Y700D02*
X14Y700D01*
X7Y699D02*
X14Y699D01*
X7Y698D02*
X14Y698D01*
X7Y697D02*
X14Y697D01*
X7Y696D02*
X14Y696D01*
X7Y695D02*
X14Y695D01*
X7Y694D02*
X14Y694D01*
X7Y693D02*
X14Y693D01*
X7Y692D02*
X14Y692D01*
X7Y691D02*
X14Y691D01*
X7Y690D02*
X14Y690D01*
X7Y689D02*
X14Y689D01*
X7Y688D02*
X14Y688D01*
X7Y687D02*
X14Y687D01*
X7Y686D02*
X14Y686D01*
X7Y685D02*
X14Y685D01*
X653Y685D02*
X701Y685D01*
X902Y685D02*
X968Y685D01*
X7Y684D02*
X14Y684D01*
X653Y684D02*
X701Y684D01*
X902Y684D02*
X968Y684D01*
X7Y683D02*
X14Y683D01*
X653Y683D02*
X701Y683D01*
X902Y683D02*
X968Y683D01*
X7Y682D02*
X14Y682D01*
X654Y682D02*
X701Y682D01*
X902Y682D02*
X968Y682D01*
X7Y681D02*
X14Y681D01*
X654Y681D02*
X701Y681D01*
X902Y681D02*
X968Y681D01*
X7Y680D02*
X14Y680D01*
X654Y680D02*
X701Y680D01*
X902Y680D02*
X968Y680D01*
X7Y679D02*
X14Y679D01*
X654Y679D02*
X701Y679D01*
X902Y679D02*
X968Y679D01*
X7Y678D02*
X14Y678D01*
X653Y678D02*
X701Y678D01*
X902Y678D02*
X968Y678D01*
X7Y677D02*
X14Y677D01*
X653Y677D02*
X701Y677D01*
X902Y677D02*
X968Y677D01*
X7Y676D02*
X14Y676D01*
X653Y676D02*
X701Y676D01*
X902Y676D02*
X968Y676D01*
X7Y675D02*
X14Y675D01*
X7Y674D02*
X14Y674D01*
X7Y673D02*
X14Y673D01*
X7Y672D02*
X14Y672D01*
X7Y671D02*
X14Y671D01*
X7Y670D02*
X14Y670D01*
X7Y669D02*
X14Y669D01*
X7Y668D02*
X14Y668D01*
X7Y667D02*
X14Y667D01*
X7Y666D02*
X14Y666D01*
X7Y665D02*
X14Y665D01*
X7Y664D02*
X14Y664D01*
X7Y663D02*
X14Y663D01*
X7Y662D02*
X14Y662D01*
X7Y661D02*
X14Y661D01*
X7Y660D02*
X14Y660D01*
X7Y659D02*
X14Y659D01*
X7Y658D02*
X14Y658D01*
X7Y657D02*
X14Y657D01*
X7Y656D02*
X14Y656D01*
X7Y655D02*
X14Y655D01*
X7Y654D02*
X14Y654D01*
X7Y653D02*
X14Y653D01*
X7Y652D02*
X14Y652D01*
X7Y651D02*
X14Y651D01*
X7Y650D02*
X14Y650D01*
X7Y649D02*
X14Y649D01*
X7Y648D02*
X14Y648D01*
X7Y647D02*
X14Y647D01*
X7Y646D02*
X14Y646D01*
X7Y645D02*
X14Y645D01*
X7Y644D02*
X14Y644D01*
X7Y643D02*
X14Y643D01*
X7Y642D02*
X14Y642D01*
X7Y641D02*
X14Y641D01*
X7Y640D02*
X14Y640D01*
X7Y639D02*
X14Y639D01*
X7Y638D02*
X14Y638D01*
X7Y637D02*
X14Y637D01*
X7Y636D02*
X14Y636D01*
X7Y635D02*
X14Y635D01*
X7Y634D02*
X14Y634D01*
X7Y633D02*
X14Y633D01*
X7Y632D02*
X14Y632D01*
X7Y631D02*
X14Y631D01*
X7Y630D02*
X14Y630D01*
X7Y629D02*
X14Y629D01*
X7Y628D02*
X14Y628D01*
X7Y627D02*
X14Y627D01*
X7Y626D02*
X14Y626D01*
X7Y625D02*
X14Y625D01*
X7Y624D02*
X14Y624D01*
X7Y623D02*
X14Y623D01*
X7Y622D02*
X14Y622D01*
X7Y621D02*
X14Y621D01*
X7Y620D02*
X14Y620D01*
X7Y619D02*
X14Y619D01*
X7Y618D02*
X14Y618D01*
X7Y617D02*
X14Y617D01*
X7Y616D02*
X14Y616D01*
X7Y615D02*
X14Y615D01*
X7Y614D02*
X14Y614D01*
X7Y613D02*
X14Y613D01*
X7Y612D02*
X14Y612D01*
X7Y611D02*
X14Y611D01*
X7Y610D02*
X14Y610D01*
X7Y609D02*
X14Y609D01*
X7Y608D02*
X14Y608D01*
X7Y607D02*
X14Y607D01*
X7Y606D02*
X14Y606D01*
X7Y605D02*
X14Y605D01*
X7Y604D02*
X14Y604D01*
X7Y603D02*
X14Y603D01*
X7Y602D02*
X14Y602D01*
X7Y601D02*
X14Y601D01*
X7Y600D02*
X14Y600D01*
X7Y599D02*
X14Y599D01*
X7Y598D02*
X14Y598D01*
X7Y597D02*
X14Y597D01*
X7Y596D02*
X14Y596D01*
X7Y595D02*
X14Y595D01*
X7Y594D02*
X14Y594D01*
X7Y593D02*
X14Y593D01*
X7Y592D02*
X14Y592D01*
X7Y591D02*
X14Y591D01*
X7Y590D02*
X14Y590D01*
X7Y589D02*
X14Y589D01*
X7Y588D02*
X14Y588D01*
X7Y587D02*
X14Y587D01*
X7Y586D02*
X14Y586D01*
X7Y585D02*
X14Y585D01*
X7Y584D02*
X14Y584D01*
X7Y583D02*
X14Y583D01*
X7Y582D02*
X14Y582D01*
X7Y581D02*
X14Y581D01*
X7Y580D02*
X14Y580D01*
X7Y579D02*
X14Y579D01*
X7Y578D02*
X14Y578D01*
X7Y577D02*
X14Y577D01*
X7Y576D02*
X14Y576D01*
X7Y575D02*
X14Y575D01*
X7Y574D02*
X14Y574D01*
X7Y573D02*
X14Y573D01*
X7Y572D02*
X14Y572D01*
X7Y571D02*
X14Y571D01*
X7Y570D02*
X14Y570D01*
X7Y569D02*
X14Y569D01*
X7Y568D02*
X14Y568D01*
X7Y567D02*
X14Y567D01*
X7Y566D02*
X14Y566D01*
X7Y565D02*
X14Y565D01*
X7Y564D02*
X14Y564D01*
X7Y563D02*
X14Y563D01*
X7Y562D02*
X14Y562D01*
X7Y561D02*
X14Y561D01*
X7Y560D02*
X14Y560D01*
X7Y559D02*
X14Y559D01*
X7Y558D02*
X14Y558D01*
X7Y557D02*
X14Y557D01*
X7Y556D02*
X14Y556D01*
X7Y555D02*
X14Y555D01*
X7Y554D02*
X14Y554D01*
X7Y553D02*
X14Y553D01*
X7Y552D02*
X14Y552D01*
X7Y551D02*
X14Y551D01*
X7Y550D02*
X14Y550D01*
X7Y549D02*
X14Y549D01*
X7Y548D02*
X14Y548D01*
X7Y547D02*
X14Y547D01*
X7Y546D02*
X14Y546D01*
X7Y545D02*
X14Y545D01*
X7Y544D02*
X14Y544D01*
X7Y543D02*
X14Y543D01*
X7Y542D02*
X14Y542D01*
X7Y541D02*
X14Y541D01*
X7Y540D02*
X14Y540D01*
X7Y539D02*
X14Y539D01*
X7Y538D02*
X14Y538D01*
X7Y537D02*
X14Y537D01*
X7Y536D02*
X14Y536D01*
X7Y535D02*
X14Y535D01*
X7Y534D02*
X14Y534D01*
X7Y533D02*
X14Y533D01*
X7Y532D02*
X14Y532D01*
X7Y531D02*
X14Y531D01*
X7Y530D02*
X14Y530D01*
X7Y529D02*
X14Y529D01*
X7Y528D02*
X14Y528D01*
X7Y527D02*
X14Y527D01*
X7Y526D02*
X14Y526D01*
X7Y525D02*
X14Y525D01*
X7Y524D02*
X14Y524D01*
X7Y523D02*
X14Y523D01*
X7Y522D02*
X14Y522D01*
X7Y521D02*
X14Y521D01*
X7Y520D02*
X14Y520D01*
X7Y519D02*
X14Y519D01*
X7Y518D02*
X14Y518D01*
X7Y517D02*
X14Y517D01*
X7Y516D02*
X14Y516D01*
X7Y515D02*
X14Y515D01*
X7Y514D02*
X14Y514D01*
X7Y513D02*
X14Y513D01*
X7Y512D02*
X14Y512D01*
X7Y511D02*
X14Y511D01*
X7Y510D02*
X14Y510D01*
X7Y509D02*
X14Y509D01*
X7Y508D02*
X14Y508D01*
X7Y507D02*
X14Y507D01*
X7Y506D02*
X14Y506D01*
X7Y505D02*
X14Y505D01*
X7Y504D02*
X14Y504D01*
X7Y503D02*
X14Y503D01*
X7Y502D02*
X14Y502D01*
X7Y501D02*
X14Y501D01*
X7Y500D02*
X14Y500D01*
X7Y499D02*
X14Y499D01*
X7Y498D02*
X14Y498D01*
X7Y497D02*
X14Y497D01*
X7Y496D02*
X14Y496D01*
X7Y495D02*
X14Y495D01*
X7Y494D02*
X14Y494D01*
X7Y493D02*
X14Y493D01*
X7Y492D02*
X14Y492D01*
X7Y491D02*
X14Y491D01*
X7Y490D02*
X14Y490D01*
X7Y489D02*
X14Y489D01*
X7Y488D02*
X14Y488D01*
X7Y487D02*
X14Y487D01*
X7Y486D02*
X14Y486D01*
X7Y485D02*
X14Y485D01*
X7Y484D02*
X14Y484D01*
X7Y483D02*
X14Y483D01*
X7Y482D02*
X14Y482D01*
X7Y481D02*
X14Y481D01*
X7Y480D02*
X14Y480D01*
X7Y479D02*
X14Y479D01*
X7Y478D02*
X14Y478D01*
X7Y477D02*
X14Y477D01*
X7Y476D02*
X14Y476D01*
X7Y475D02*
X14Y475D01*
X7Y474D02*
X14Y474D01*
X7Y473D02*
X14Y473D01*
X7Y472D02*
X14Y472D01*
X7Y471D02*
X14Y471D01*
X7Y470D02*
X14Y470D01*
X7Y469D02*
X14Y469D01*
X7Y468D02*
X14Y468D01*
X7Y467D02*
X14Y467D01*
X7Y466D02*
X14Y466D01*
X7Y465D02*
X14Y465D01*
X7Y464D02*
X14Y464D01*
X7Y463D02*
X14Y463D01*
X7Y462D02*
X14Y462D01*
X7Y461D02*
X14Y461D01*
X7Y460D02*
X14Y460D01*
X7Y459D02*
X14Y459D01*
X7Y458D02*
X14Y458D01*
X7Y457D02*
X14Y457D01*
X7Y456D02*
X14Y456D01*
X7Y455D02*
X14Y455D01*
X7Y454D02*
X14Y454D01*
X7Y453D02*
X14Y453D01*
X7Y452D02*
X14Y452D01*
X7Y451D02*
X14Y451D01*
X7Y450D02*
X14Y450D01*
X7Y449D02*
X14Y449D01*
X7Y448D02*
X14Y448D01*
X7Y447D02*
X14Y447D01*
X7Y446D02*
X14Y446D01*
X7Y445D02*
X14Y445D01*
X7Y444D02*
X14Y444D01*
X7Y443D02*
X14Y443D01*
X7Y442D02*
X14Y442D01*
X7Y441D02*
X14Y441D01*
X7Y440D02*
X14Y440D01*
X7Y439D02*
X14Y439D01*
X7Y438D02*
X14Y438D01*
X7Y437D02*
X14Y437D01*
X7Y436D02*
X14Y436D01*
X7Y435D02*
X14Y435D01*
X7Y434D02*
X14Y434D01*
X7Y433D02*
X14Y433D01*
X7Y432D02*
X14Y432D01*
X7Y431D02*
X14Y431D01*
X7Y430D02*
X14Y430D01*
X7Y429D02*
X14Y429D01*
X7Y428D02*
X14Y428D01*
X7Y427D02*
X14Y427D01*
X7Y426D02*
X14Y426D01*
X7Y425D02*
X14Y425D01*
X7Y424D02*
X14Y424D01*
X7Y423D02*
X14Y423D01*
X7Y422D02*
X14Y422D01*
X7Y421D02*
X14Y421D01*
X7Y420D02*
X14Y420D01*
X7Y419D02*
X14Y419D01*
X7Y418D02*
X14Y418D01*
X7Y417D02*
X14Y417D01*
X7Y416D02*
X14Y416D01*
X7Y415D02*
X14Y415D01*
X7Y414D02*
X14Y414D01*
X7Y413D02*
X14Y413D01*
X7Y412D02*
X14Y412D01*
X7Y411D02*
X14Y411D01*
X7Y410D02*
X14Y410D01*
X7Y409D02*
X14Y409D01*
X7Y408D02*
X14Y408D01*
X7Y407D02*
X14Y407D01*
X7Y406D02*
X14Y406D01*
X7Y405D02*
X14Y405D01*
X7Y404D02*
X14Y404D01*
X7Y403D02*
X14Y403D01*
X7Y402D02*
X14Y402D01*
X7Y401D02*
X14Y401D01*
X7Y400D02*
X14Y400D01*
X7Y399D02*
X14Y399D01*
X7Y398D02*
X14Y398D01*
X7Y397D02*
X14Y397D01*
X7Y396D02*
X14Y396D01*
X7Y395D02*
X14Y395D01*
X7Y394D02*
X14Y394D01*
X7Y393D02*
X14Y393D01*
X7Y392D02*
X14Y392D01*
X7Y391D02*
X14Y391D01*
X7Y390D02*
X14Y390D01*
X7Y389D02*
X14Y389D01*
X7Y388D02*
X14Y388D01*
X7Y387D02*
X14Y387D01*
X7Y386D02*
X14Y386D01*
X7Y385D02*
X14Y385D01*
X7Y384D02*
X14Y384D01*
X7Y383D02*
X14Y383D01*
X7Y382D02*
X14Y382D01*
X7Y381D02*
X14Y381D01*
X7Y380D02*
X14Y380D01*
X7Y379D02*
X14Y379D01*
X7Y378D02*
X14Y378D01*
X7Y377D02*
X14Y377D01*
X7Y376D02*
X14Y376D01*
X7Y375D02*
X14Y375D01*
X7Y374D02*
X14Y374D01*
X7Y373D02*
X14Y373D01*
X7Y372D02*
X14Y372D01*
X7Y371D02*
X14Y371D01*
X7Y370D02*
X14Y370D01*
X7Y369D02*
X14Y369D01*
X7Y368D02*
X14Y368D01*
X7Y367D02*
X14Y367D01*
X7Y366D02*
X14Y366D01*
X7Y365D02*
X14Y365D01*
X7Y364D02*
X14Y364D01*
X7Y363D02*
X14Y363D01*
X7Y362D02*
X14Y362D01*
X7Y361D02*
X14Y361D01*
X7Y360D02*
X14Y360D01*
X7Y359D02*
X14Y359D01*
X7Y358D02*
X14Y358D01*
X7Y357D02*
X14Y357D01*
X7Y356D02*
X14Y356D01*
X7Y355D02*
X14Y355D01*
X7Y354D02*
X14Y354D01*
X7Y353D02*
X14Y353D01*
X7Y352D02*
X14Y352D01*
X7Y351D02*
X14Y351D01*
X7Y350D02*
X14Y350D01*
X7Y349D02*
X14Y349D01*
X7Y348D02*
X14Y348D01*
X7Y347D02*
X14Y347D01*
X7Y346D02*
X14Y346D01*
X7Y345D02*
X14Y345D01*
X7Y344D02*
X14Y344D01*
X7Y343D02*
X14Y343D01*
X7Y342D02*
X14Y342D01*
X7Y341D02*
X14Y341D01*
X7Y340D02*
X14Y340D01*
X7Y339D02*
X14Y339D01*
X7Y338D02*
X14Y338D01*
X7Y337D02*
X14Y337D01*
X7Y336D02*
X14Y336D01*
X7Y335D02*
X14Y335D01*
X7Y334D02*
X14Y334D01*
X7Y333D02*
X14Y333D01*
X7Y332D02*
X14Y332D01*
X7Y331D02*
X14Y331D01*
X7Y330D02*
X14Y330D01*
X7Y329D02*
X14Y329D01*
X7Y328D02*
X14Y328D01*
X7Y327D02*
X14Y327D01*
X7Y326D02*
X14Y326D01*
X7Y325D02*
X14Y325D01*
X7Y324D02*
X14Y324D01*
X7Y323D02*
X14Y323D01*
X7Y322D02*
X14Y322D01*
X7Y321D02*
X14Y321D01*
X7Y320D02*
X14Y320D01*
X7Y319D02*
X14Y319D01*
X7Y318D02*
X14Y318D01*
X7Y317D02*
X14Y317D01*
X7Y316D02*
X14Y316D01*
X7Y315D02*
X14Y315D01*
X7Y314D02*
X14Y314D01*
X7Y313D02*
X14Y313D01*
X7Y312D02*
X14Y312D01*
X7Y311D02*
X14Y311D01*
X7Y310D02*
X14Y310D01*
X7Y309D02*
X14Y309D01*
X7Y308D02*
X14Y308D01*
X7Y307D02*
X14Y307D01*
X7Y306D02*
X14Y306D01*
X7Y305D02*
X14Y305D01*
X7Y304D02*
X14Y304D01*
X7Y303D02*
X14Y303D01*
X7Y302D02*
X14Y302D01*
X7Y301D02*
X14Y301D01*
X7Y300D02*
X14Y300D01*
X7Y299D02*
X14Y299D01*
X7Y298D02*
X14Y298D01*
X7Y297D02*
X14Y297D01*
X7Y296D02*
X14Y296D01*
X7Y295D02*
X14Y295D01*
X7Y294D02*
X14Y294D01*
X7Y293D02*
X14Y293D01*
X7Y292D02*
X14Y292D01*
X7Y291D02*
X14Y291D01*
X7Y290D02*
X14Y290D01*
X7Y289D02*
X14Y289D01*
X7Y288D02*
X14Y288D01*
X7Y287D02*
X14Y287D01*
X7Y286D02*
X14Y286D01*
X7Y285D02*
X14Y285D01*
X7Y284D02*
X14Y284D01*
X7Y283D02*
X14Y283D01*
X7Y282D02*
X14Y282D01*
X7Y281D02*
X14Y281D01*
X7Y280D02*
X14Y280D01*
X7Y279D02*
X14Y279D01*
X7Y278D02*
X14Y278D01*
X7Y277D02*
X14Y277D01*
X7Y276D02*
X14Y276D01*
X7Y275D02*
X14Y275D01*
X7Y274D02*
X14Y274D01*
X7Y273D02*
X14Y273D01*
X7Y272D02*
X14Y272D01*
X7Y271D02*
X14Y271D01*
X7Y270D02*
X14Y270D01*
X7Y269D02*
X14Y269D01*
X7Y268D02*
X14Y268D01*
X7Y267D02*
X14Y267D01*
X7Y266D02*
X14Y266D01*
X7Y265D02*
X14Y265D01*
X7Y264D02*
X14Y264D01*
X7Y263D02*
X14Y263D01*
X7Y262D02*
X14Y262D01*
X7Y261D02*
X14Y261D01*
X7Y260D02*
X14Y260D01*
X7Y259D02*
X14Y259D01*
X7Y258D02*
X14Y258D01*
X7Y257D02*
X14Y257D01*
X7Y256D02*
X14Y256D01*
X7Y255D02*
X14Y255D01*
X7Y254D02*
X14Y254D01*
X7Y253D02*
X14Y253D01*
X7Y252D02*
X14Y252D01*
X7Y251D02*
X14Y251D01*
X7Y250D02*
X14Y250D01*
X7Y249D02*
X14Y249D01*
X7Y248D02*
X14Y248D01*
X7Y247D02*
X14Y247D01*
X7Y246D02*
X14Y246D01*
X7Y245D02*
X14Y245D01*
X7Y244D02*
X14Y244D01*
X7Y243D02*
X14Y243D01*
X7Y242D02*
X14Y242D01*
X7Y241D02*
X14Y241D01*
X7Y240D02*
X14Y240D01*
X7Y239D02*
X14Y239D01*
X7Y238D02*
X14Y238D01*
X7Y237D02*
X14Y237D01*
X7Y236D02*
X14Y236D01*
X7Y235D02*
X14Y235D01*
X7Y234D02*
X14Y234D01*
X7Y233D02*
X14Y233D01*
X7Y232D02*
X14Y232D01*
X7Y231D02*
X14Y231D01*
X7Y230D02*
X14Y230D01*
X7Y229D02*
X14Y229D01*
X7Y228D02*
X14Y228D01*
X7Y227D02*
X14Y227D01*
X7Y226D02*
X14Y226D01*
X7Y225D02*
X14Y225D01*
X7Y224D02*
X14Y224D01*
X7Y223D02*
X14Y223D01*
X7Y222D02*
X14Y222D01*
X7Y221D02*
X14Y221D01*
X7Y220D02*
X14Y220D01*
X7Y219D02*
X14Y219D01*
X7Y218D02*
X14Y218D01*
X7Y217D02*
X14Y217D01*
X7Y216D02*
X14Y216D01*
X7Y215D02*
X14Y215D01*
X7Y214D02*
X14Y214D01*
X7Y213D02*
X14Y213D01*
X7Y212D02*
X14Y212D01*
X7Y211D02*
X14Y211D01*
X7Y210D02*
X14Y210D01*
X7Y209D02*
X14Y209D01*
X7Y208D02*
X14Y208D01*
X7Y207D02*
X14Y207D01*
X7Y206D02*
X14Y206D01*
X7Y205D02*
X14Y205D01*
X7Y204D02*
X14Y204D01*
X7Y203D02*
X14Y203D01*
X7Y202D02*
X14Y202D01*
X7Y201D02*
X14Y201D01*
X7Y200D02*
X14Y200D01*
X7Y199D02*
X14Y199D01*
X7Y198D02*
X14Y198D01*
X7Y197D02*
X14Y197D01*
X7Y196D02*
X14Y196D01*
X7Y195D02*
X14Y195D01*
X7Y194D02*
X14Y194D01*
X7Y193D02*
X14Y193D01*
X7Y192D02*
X14Y192D01*
X7Y191D02*
X14Y191D01*
X7Y190D02*
X14Y190D01*
X7Y189D02*
X14Y189D01*
X7Y188D02*
X14Y188D01*
X7Y187D02*
X14Y187D01*
X7Y186D02*
X14Y186D01*
X7Y185D02*
X14Y185D01*
X7Y184D02*
X14Y184D01*
X7Y183D02*
X14Y183D01*
X7Y182D02*
X14Y182D01*
X7Y181D02*
X14Y181D01*
X7Y180D02*
X14Y180D01*
X7Y179D02*
X14Y179D01*
X7Y178D02*
X14Y178D01*
X7Y177D02*
X14Y177D01*
X7Y176D02*
X14Y176D01*
X7Y175D02*
X14Y175D01*
X7Y174D02*
X14Y174D01*
X7Y173D02*
X14Y173D01*
X7Y172D02*
X14Y172D01*
X7Y171D02*
X14Y171D01*
X7Y170D02*
X14Y170D01*
X7Y169D02*
X14Y169D01*
X7Y168D02*
X14Y168D01*
X7Y167D02*
X14Y167D01*
X7Y166D02*
X14Y166D01*
X7Y165D02*
X14Y165D01*
X7Y164D02*
X14Y164D01*
X7Y163D02*
X14Y163D01*
X7Y162D02*
X14Y162D01*
X7Y161D02*
X14Y161D01*
X7Y160D02*
X14Y160D01*
X7Y159D02*
X14Y159D01*
X7Y158D02*
X14Y158D01*
X7Y157D02*
X14Y157D01*
X7Y156D02*
X14Y156D01*
X7Y155D02*
X14Y155D01*
X7Y154D02*
X14Y154D01*
X7Y153D02*
X14Y153D01*
X7Y152D02*
X14Y152D01*
X7Y151D02*
X14Y151D01*
X7Y150D02*
X14Y150D01*
X7Y149D02*
X14Y149D01*
X7Y148D02*
X14Y148D01*
X7Y147D02*
X14Y147D01*
X7Y146D02*
X14Y146D01*
X7Y145D02*
X14Y145D01*
X7Y144D02*
X14Y144D01*
X7Y143D02*
X14Y143D01*
X7Y142D02*
X14Y142D01*
X7Y141D02*
X14Y141D01*
X7Y140D02*
X14Y140D01*
X7Y139D02*
X14Y139D01*
X7Y138D02*
X14Y138D01*
X7Y137D02*
X14Y137D01*
X7Y136D02*
X14Y136D01*
X7Y135D02*
X14Y135D01*
X7Y134D02*
X14Y134D01*
X7Y133D02*
X14Y133D01*
X7Y132D02*
X14Y132D01*
X7Y131D02*
X14Y131D01*
X7Y130D02*
X14Y130D01*
X7Y129D02*
X14Y129D01*
X7Y128D02*
X14Y128D01*
X7Y127D02*
X14Y127D01*
X7Y126D02*
X14Y126D01*
X7Y125D02*
X14Y125D01*
X7Y124D02*
X14Y124D01*
X7Y123D02*
X14Y123D01*
X7Y122D02*
X14Y122D01*
X7Y121D02*
X14Y121D01*
X7Y120D02*
X14Y120D01*
X7Y119D02*
X14Y119D01*
X7Y118D02*
X14Y118D01*
X7Y117D02*
X14Y117D01*
X7Y116D02*
X14Y116D01*
X7Y115D02*
X14Y115D01*
X145Y115D02*
X154Y115D01*
X289Y115D02*
X299Y115D01*
X7Y114D02*
X14Y114D01*
X144Y114D02*
X155Y114D01*
X288Y114D02*
X300Y114D01*
X7Y113D02*
X14Y113D01*
X143Y113D02*
X156Y113D01*
X288Y113D02*
X301Y113D01*
X7Y112D02*
X14Y112D01*
X143Y112D02*
X156Y112D01*
X287Y112D02*
X301Y112D01*
X7Y111D02*
X14Y111D01*
X142Y111D02*
X157Y111D01*
X242Y111D02*
X246Y111D01*
X287Y111D02*
X301Y111D01*
X7Y110D02*
X14Y110D01*
X142Y110D02*
X157Y110D01*
X241Y110D02*
X247Y110D01*
X287Y110D02*
X301Y110D01*
X7Y109D02*
X14Y109D01*
X142Y109D02*
X157Y109D01*
X240Y109D02*
X248Y109D01*
X287Y109D02*
X301Y109D01*
X7Y108D02*
X14Y108D01*
X142Y108D02*
X157Y108D01*
X240Y108D02*
X249Y108D01*
X287Y108D02*
X301Y108D01*
X7Y107D02*
X14Y107D01*
X142Y107D02*
X157Y107D01*
X240Y107D02*
X249Y107D01*
X287Y107D02*
X301Y107D01*
X502Y107D02*
X505Y107D01*
X719Y107D02*
X722Y107D01*
X7Y106D02*
X14Y106D01*
X143Y106D02*
X157Y106D01*
X240Y106D02*
X249Y106D01*
X287Y106D02*
X301Y106D01*
X500Y106D02*
X507Y106D01*
X717Y106D02*
X723Y106D01*
X7Y105D02*
X14Y105D01*
X143Y105D02*
X156Y105D01*
X240Y105D02*
X249Y105D01*
X287Y105D02*
X301Y105D01*
X500Y105D02*
X507Y105D01*
X717Y105D02*
X724Y105D01*
X7Y104D02*
X14Y104D01*
X143Y104D02*
X156Y104D01*
X240Y104D02*
X249Y104D01*
X288Y104D02*
X300Y104D01*
X499Y104D02*
X508Y104D01*
X716Y104D02*
X725Y104D01*
X7Y103D02*
X14Y103D01*
X144Y103D02*
X155Y103D01*
X240Y103D02*
X249Y103D01*
X289Y103D02*
X300Y103D01*
X499Y103D02*
X508Y103D01*
X716Y103D02*
X725Y103D01*
X7Y102D02*
X14Y102D01*
X146Y102D02*
X153Y102D01*
X240Y102D02*
X249Y102D01*
X290Y102D02*
X298Y102D01*
X499Y102D02*
X508Y102D01*
X716Y102D02*
X725Y102D01*
X7Y101D02*
X14Y101D01*
X240Y101D02*
X249Y101D01*
X499Y101D02*
X508Y101D01*
X716Y101D02*
X725Y101D01*
X7Y100D02*
X14Y100D01*
X240Y100D02*
X249Y100D01*
X499Y100D02*
X508Y100D01*
X716Y100D02*
X725Y100D01*
X7Y99D02*
X14Y99D01*
X240Y99D02*
X249Y99D01*
X499Y99D02*
X508Y99D01*
X716Y99D02*
X725Y99D01*
X7Y98D02*
X14Y98D01*
X240Y98D02*
X249Y98D01*
X499Y98D02*
X508Y98D01*
X716Y98D02*
X725Y98D01*
X7Y97D02*
X14Y97D01*
X240Y97D02*
X249Y97D01*
X499Y97D02*
X508Y97D01*
X716Y97D02*
X725Y97D01*
X7Y96D02*
X14Y96D01*
X240Y96D02*
X249Y96D01*
X499Y96D02*
X508Y96D01*
X716Y96D02*
X725Y96D01*
X7Y95D02*
X14Y95D01*
X240Y95D02*
X249Y95D01*
X499Y95D02*
X508Y95D01*
X716Y95D02*
X725Y95D01*
X7Y94D02*
X14Y94D01*
X240Y94D02*
X249Y94D01*
X499Y94D02*
X508Y94D01*
X716Y94D02*
X725Y94D01*
X7Y93D02*
X14Y93D01*
X240Y93D02*
X249Y93D01*
X499Y93D02*
X508Y93D01*
X716Y93D02*
X725Y93D01*
X7Y92D02*
X14Y92D01*
X240Y92D02*
X249Y92D01*
X499Y92D02*
X508Y92D01*
X716Y92D02*
X725Y92D01*
X7Y91D02*
X14Y91D01*
X240Y91D02*
X249Y91D01*
X499Y91D02*
X508Y91D01*
X716Y91D02*
X725Y91D01*
X7Y90D02*
X14Y90D01*
X57Y90D02*
X61Y90D01*
X70Y90D02*
X76Y90D01*
X90Y90D02*
X94Y90D01*
X135Y90D02*
X154Y90D01*
X215Y90D02*
X229Y90D01*
X240Y90D02*
X249Y90D01*
X280Y90D02*
X298Y90D01*
X347Y90D02*
X350Y90D01*
X359Y90D02*
X365Y90D01*
X380Y90D02*
X383Y90D01*
X420Y90D02*
X424Y90D01*
X459Y90D02*
X463Y90D01*
X492Y90D02*
X530Y90D01*
X574Y90D02*
X598Y90D01*
X637Y90D02*
X640Y90D01*
X658Y90D02*
X671Y90D01*
X709Y90D02*
X747Y90D01*
X7Y89D02*
X14Y89D01*
X56Y89D02*
X62Y89D01*
X67Y89D02*
X78Y89D01*
X87Y89D02*
X97Y89D01*
X134Y89D02*
X155Y89D01*
X212Y89D02*
X232Y89D01*
X240Y89D02*
X249Y89D01*
X279Y89D02*
X300Y89D01*
X345Y89D02*
X351Y89D01*
X356Y89D02*
X367Y89D01*
X377Y89D02*
X386Y89D01*
X419Y89D02*
X425Y89D01*
X458Y89D02*
X464Y89D01*
X491Y89D02*
X531Y89D01*
X573Y89D02*
X601Y89D01*
X635Y89D02*
X641Y89D01*
X655Y89D02*
X673Y89D01*
X707Y89D02*
X748Y89D01*
X7Y88D02*
X14Y88D01*
X55Y88D02*
X63Y88D01*
X66Y88D02*
X79Y88D01*
X86Y88D02*
X99Y88D01*
X133Y88D02*
X156Y88D01*
X210Y88D02*
X233Y88D01*
X240Y88D02*
X249Y88D01*
X278Y88D02*
X300Y88D01*
X344Y88D02*
X352Y88D01*
X355Y88D02*
X369Y88D01*
X375Y88D02*
X388Y88D01*
X418Y88D02*
X426Y88D01*
X457Y88D02*
X465Y88D01*
X490Y88D02*
X532Y88D01*
X572Y88D02*
X603Y88D01*
X634Y88D02*
X642Y88D01*
X653Y88D02*
X675Y88D01*
X707Y88D02*
X749Y88D01*
X7Y87D02*
X14Y87D01*
X55Y87D02*
X81Y87D01*
X84Y87D02*
X100Y87D01*
X133Y87D02*
X156Y87D01*
X209Y87D02*
X235Y87D01*
X240Y87D02*
X249Y87D01*
X277Y87D02*
X301Y87D01*
X344Y87D02*
X370Y87D01*
X373Y87D02*
X389Y87D01*
X418Y87D02*
X426Y87D01*
X457Y87D02*
X465Y87D01*
X490Y87D02*
X533Y87D01*
X572Y87D02*
X604Y87D01*
X634Y87D02*
X643Y87D01*
X652Y87D02*
X676Y87D01*
X707Y87D02*
X749Y87D01*
X7Y86D02*
X14Y86D01*
X55Y86D02*
X101Y86D01*
X133Y86D02*
X157Y86D01*
X208Y86D02*
X236Y86D01*
X240Y86D02*
X249Y86D01*
X277Y86D02*
X301Y86D01*
X344Y86D02*
X390Y86D01*
X418Y86D02*
X426Y86D01*
X457Y86D02*
X466Y86D01*
X490Y86D02*
X533Y86D01*
X571Y86D02*
X605Y86D01*
X634Y86D02*
X643Y86D01*
X650Y86D02*
X678Y86D01*
X707Y86D02*
X750Y86D01*
X7Y85D02*
X14Y85D01*
X55Y85D02*
X102Y85D01*
X133Y85D02*
X157Y85D01*
X207Y85D02*
X237Y85D01*
X240Y85D02*
X249Y85D01*
X277Y85D02*
X301Y85D01*
X344Y85D02*
X391Y85D01*
X418Y85D02*
X426Y85D01*
X457Y85D02*
X466Y85D01*
X490Y85D02*
X533Y85D01*
X571Y85D02*
X606Y85D01*
X634Y85D02*
X643Y85D01*
X649Y85D02*
X678Y85D01*
X707Y85D02*
X750Y85D01*
X7Y84D02*
X14Y84D01*
X55Y84D02*
X103Y84D01*
X133Y84D02*
X157Y84D01*
X205Y84D02*
X249Y84D01*
X277Y84D02*
X301Y84D01*
X344Y84D02*
X392Y84D01*
X418Y84D02*
X426Y84D01*
X457Y84D02*
X466Y84D01*
X490Y84D02*
X533Y84D01*
X572Y84D02*
X607Y84D01*
X634Y84D02*
X643Y84D01*
X647Y84D02*
X679Y84D01*
X707Y84D02*
X750Y84D01*
X7Y83D02*
X14Y83D01*
X55Y83D02*
X103Y83D01*
X133Y83D02*
X157Y83D01*
X204Y83D02*
X249Y83D01*
X278Y83D02*
X301Y83D01*
X344Y83D02*
X392Y83D01*
X418Y83D02*
X426Y83D01*
X457Y83D02*
X466Y83D01*
X490Y83D02*
X532Y83D01*
X572Y83D02*
X608Y83D01*
X634Y83D02*
X643Y83D01*
X645Y83D02*
X680Y83D01*
X707Y83D02*
X749Y83D01*
X7Y82D02*
X14Y82D01*
X55Y82D02*
X104Y82D01*
X134Y82D02*
X157Y82D01*
X204Y82D02*
X249Y82D01*
X279Y82D02*
X301Y82D01*
X344Y82D02*
X393Y82D01*
X418Y82D02*
X426Y82D01*
X457Y82D02*
X466Y82D01*
X491Y82D02*
X531Y82D01*
X573Y82D02*
X608Y82D01*
X634Y82D02*
X680Y82D01*
X707Y82D02*
X748Y82D01*
X7Y81D02*
X14Y81D01*
X55Y81D02*
X104Y81D01*
X135Y81D02*
X157Y81D01*
X203Y81D02*
X249Y81D01*
X280Y81D02*
X301Y81D01*
X344Y81D02*
X393Y81D01*
X418Y81D02*
X426Y81D01*
X457Y81D02*
X466Y81D01*
X492Y81D02*
X530Y81D01*
X574Y81D02*
X609Y81D01*
X634Y81D02*
X681Y81D01*
X709Y81D02*
X747Y81D01*
X7Y80D02*
X14Y80D01*
X55Y80D02*
X71Y80D01*
X74Y80D02*
X91Y80D01*
X94Y80D02*
X104Y80D01*
X148Y80D02*
X157Y80D01*
X202Y80D02*
X216Y80D01*
X228Y80D02*
X249Y80D01*
X292Y80D02*
X301Y80D01*
X344Y80D02*
X360Y80D01*
X364Y80D02*
X380Y80D01*
X383Y80D02*
X393Y80D01*
X418Y80D02*
X426Y80D01*
X457Y80D02*
X466Y80D01*
X499Y80D02*
X508Y80D01*
X597Y80D02*
X609Y80D01*
X634Y80D02*
X658Y80D01*
X670Y80D02*
X681Y80D01*
X716Y80D02*
X725Y80D01*
X7Y79D02*
X14Y79D01*
X55Y79D02*
X70Y79D01*
X75Y79D02*
X89Y79D01*
X95Y79D02*
X104Y79D01*
X148Y79D02*
X157Y79D01*
X201Y79D02*
X214Y79D01*
X229Y79D02*
X249Y79D01*
X292Y79D02*
X301Y79D01*
X344Y79D02*
X359Y79D01*
X364Y79D02*
X379Y79D01*
X384Y79D02*
X393Y79D01*
X418Y79D02*
X426Y79D01*
X457Y79D02*
X466Y79D01*
X499Y79D02*
X508Y79D01*
X598Y79D02*
X609Y79D01*
X634Y79D02*
X657Y79D01*
X671Y79D02*
X681Y79D01*
X716Y79D02*
X725Y79D01*
X7Y78D02*
X14Y78D01*
X55Y78D02*
X68Y78D01*
X75Y78D02*
X88Y78D01*
X95Y78D02*
X104Y78D01*
X148Y78D02*
X157Y78D01*
X201Y78D02*
X213Y78D01*
X231Y78D02*
X249Y78D01*
X292Y78D02*
X301Y78D01*
X344Y78D02*
X358Y78D01*
X364Y78D02*
X377Y78D01*
X384Y78D02*
X393Y78D01*
X418Y78D02*
X426Y78D01*
X457Y78D02*
X466Y78D01*
X499Y78D02*
X508Y78D01*
X599Y78D02*
X609Y78D01*
X634Y78D02*
X655Y78D01*
X672Y78D02*
X682Y78D01*
X716Y78D02*
X725Y78D01*
X7Y77D02*
X14Y77D01*
X55Y77D02*
X67Y77D01*
X75Y77D02*
X87Y77D01*
X95Y77D02*
X104Y77D01*
X148Y77D02*
X157Y77D01*
X201Y77D02*
X212Y77D01*
X232Y77D02*
X249Y77D01*
X292Y77D02*
X301Y77D01*
X344Y77D02*
X356Y77D01*
X364Y77D02*
X376Y77D01*
X384Y77D02*
X393Y77D01*
X418Y77D02*
X426Y77D01*
X457Y77D02*
X466Y77D01*
X499Y77D02*
X508Y77D01*
X599Y77D02*
X609Y77D01*
X634Y77D02*
X654Y77D01*
X672Y77D02*
X682Y77D01*
X716Y77D02*
X725Y77D01*
X7Y76D02*
X14Y76D01*
X55Y76D02*
X66Y76D01*
X75Y76D02*
X86Y76D01*
X95Y76D02*
X104Y76D01*
X148Y76D02*
X157Y76D01*
X200Y76D02*
X211Y76D01*
X233Y76D02*
X249Y76D01*
X292Y76D02*
X301Y76D01*
X344Y76D02*
X355Y76D01*
X364Y76D02*
X375Y76D01*
X384Y76D02*
X393Y76D01*
X418Y76D02*
X426Y76D01*
X457Y76D02*
X466Y76D01*
X499Y76D02*
X508Y76D01*
X600Y76D02*
X609Y76D01*
X634Y76D02*
X652Y76D01*
X673Y76D02*
X682Y76D01*
X716Y76D02*
X725Y76D01*
X7Y75D02*
X14Y75D01*
X55Y75D02*
X65Y75D01*
X75Y75D02*
X85Y75D01*
X95Y75D02*
X104Y75D01*
X148Y75D02*
X157Y75D01*
X200Y75D02*
X210Y75D01*
X234Y75D02*
X249Y75D01*
X292Y75D02*
X301Y75D01*
X344Y75D02*
X354Y75D01*
X364Y75D02*
X374Y75D01*
X384Y75D02*
X393Y75D01*
X418Y75D02*
X426Y75D01*
X457Y75D02*
X466Y75D01*
X499Y75D02*
X508Y75D01*
X600Y75D02*
X609Y75D01*
X634Y75D02*
X651Y75D01*
X673Y75D02*
X682Y75D01*
X716Y75D02*
X725Y75D01*
X7Y74D02*
X14Y74D01*
X55Y74D02*
X64Y74D01*
X75Y74D02*
X84Y74D01*
X95Y74D02*
X104Y74D01*
X148Y74D02*
X157Y74D01*
X200Y74D02*
X209Y74D01*
X235Y74D02*
X249Y74D01*
X292Y74D02*
X301Y74D01*
X344Y74D02*
X353Y74D01*
X364Y74D02*
X373Y74D01*
X384Y74D02*
X393Y74D01*
X418Y74D02*
X426Y74D01*
X457Y74D02*
X466Y74D01*
X499Y74D02*
X508Y74D01*
X600Y74D02*
X609Y74D01*
X634Y74D02*
X649Y74D01*
X673Y74D02*
X682Y74D01*
X716Y74D02*
X725Y74D01*
X7Y73D02*
X14Y73D01*
X55Y73D02*
X64Y73D01*
X75Y73D02*
X84Y73D01*
X95Y73D02*
X104Y73D01*
X148Y73D02*
X157Y73D01*
X200Y73D02*
X209Y73D01*
X236Y73D02*
X249Y73D01*
X292Y73D02*
X301Y73D01*
X344Y73D02*
X353Y73D01*
X364Y73D02*
X373Y73D01*
X384Y73D02*
X393Y73D01*
X418Y73D02*
X426Y73D01*
X457Y73D02*
X466Y73D01*
X499Y73D02*
X508Y73D01*
X600Y73D02*
X609Y73D01*
X634Y73D02*
X648Y73D01*
X673Y73D02*
X682Y73D01*
X716Y73D02*
X725Y73D01*
X7Y72D02*
X14Y72D01*
X55Y72D02*
X64Y72D01*
X75Y72D02*
X84Y72D01*
X95Y72D02*
X104Y72D01*
X148Y72D02*
X157Y72D01*
X200Y72D02*
X209Y72D01*
X238Y72D02*
X249Y72D01*
X292Y72D02*
X301Y72D01*
X344Y72D02*
X353Y72D01*
X364Y72D02*
X373Y72D01*
X384Y72D02*
X393Y72D01*
X418Y72D02*
X426Y72D01*
X457Y72D02*
X466Y72D01*
X499Y72D02*
X508Y72D01*
X600Y72D02*
X609Y72D01*
X634Y72D02*
X646Y72D01*
X673Y72D02*
X682Y72D01*
X716Y72D02*
X725Y72D01*
X7Y71D02*
X14Y71D01*
X55Y71D02*
X64Y71D01*
X75Y71D02*
X84Y71D01*
X95Y71D02*
X104Y71D01*
X148Y71D02*
X157Y71D01*
X200Y71D02*
X209Y71D01*
X239Y71D02*
X249Y71D01*
X292Y71D02*
X301Y71D01*
X344Y71D02*
X353Y71D01*
X364Y71D02*
X373Y71D01*
X384Y71D02*
X393Y71D01*
X418Y71D02*
X426Y71D01*
X457Y71D02*
X466Y71D01*
X499Y71D02*
X508Y71D01*
X600Y71D02*
X609Y71D01*
X634Y71D02*
X645Y71D01*
X673Y71D02*
X682Y71D01*
X716Y71D02*
X725Y71D01*
X7Y70D02*
X14Y70D01*
X55Y70D02*
X64Y70D01*
X75Y70D02*
X84Y70D01*
X95Y70D02*
X104Y70D01*
X148Y70D02*
X157Y70D01*
X200Y70D02*
X209Y70D01*
X239Y70D02*
X249Y70D01*
X292Y70D02*
X301Y70D01*
X344Y70D02*
X353Y70D01*
X364Y70D02*
X373Y70D01*
X384Y70D02*
X393Y70D01*
X418Y70D02*
X426Y70D01*
X457Y70D02*
X466Y70D01*
X499Y70D02*
X508Y70D01*
X600Y70D02*
X609Y70D01*
X634Y70D02*
X643Y70D01*
X673Y70D02*
X682Y70D01*
X716Y70D02*
X725Y70D01*
X7Y69D02*
X14Y69D01*
X55Y69D02*
X64Y69D01*
X75Y69D02*
X84Y69D01*
X95Y69D02*
X104Y69D01*
X148Y69D02*
X157Y69D01*
X200Y69D02*
X209Y69D01*
X240Y69D02*
X249Y69D01*
X292Y69D02*
X301Y69D01*
X344Y69D02*
X353Y69D01*
X364Y69D02*
X373Y69D01*
X384Y69D02*
X393Y69D01*
X418Y69D02*
X426Y69D01*
X457Y69D02*
X466Y69D01*
X499Y69D02*
X508Y69D01*
X573Y69D02*
X598Y69D01*
X600Y69D02*
X609Y69D01*
X634Y69D02*
X643Y69D01*
X673Y69D02*
X682Y69D01*
X716Y69D02*
X725Y69D01*
X7Y68D02*
X14Y68D01*
X55Y68D02*
X64Y68D01*
X75Y68D02*
X84Y68D01*
X95Y68D02*
X104Y68D01*
X148Y68D02*
X157Y68D01*
X200Y68D02*
X209Y68D01*
X240Y68D02*
X249Y68D01*
X292Y68D02*
X301Y68D01*
X344Y68D02*
X353Y68D01*
X364Y68D02*
X373Y68D01*
X384Y68D02*
X393Y68D01*
X418Y68D02*
X426Y68D01*
X457Y68D02*
X466Y68D01*
X499Y68D02*
X508Y68D01*
X570Y68D02*
X609Y68D01*
X634Y68D02*
X643Y68D01*
X673Y68D02*
X682Y68D01*
X716Y68D02*
X725Y68D01*
X7Y67D02*
X14Y67D01*
X55Y67D02*
X64Y67D01*
X75Y67D02*
X84Y67D01*
X95Y67D02*
X104Y67D01*
X148Y67D02*
X157Y67D01*
X200Y67D02*
X209Y67D01*
X240Y67D02*
X249Y67D01*
X292Y67D02*
X301Y67D01*
X344Y67D02*
X353Y67D01*
X364Y67D02*
X373Y67D01*
X384Y67D02*
X393Y67D01*
X418Y67D02*
X426Y67D01*
X457Y67D02*
X466Y67D01*
X499Y67D02*
X508Y67D01*
X568Y67D02*
X609Y67D01*
X634Y67D02*
X643Y67D01*
X673Y67D02*
X682Y67D01*
X716Y67D02*
X725Y67D01*
X7Y66D02*
X14Y66D01*
X55Y66D02*
X64Y66D01*
X75Y66D02*
X84Y66D01*
X95Y66D02*
X104Y66D01*
X148Y66D02*
X157Y66D01*
X200Y66D02*
X209Y66D01*
X240Y66D02*
X249Y66D01*
X292Y66D02*
X301Y66D01*
X344Y66D02*
X353Y66D01*
X364Y66D02*
X373Y66D01*
X384Y66D02*
X393Y66D01*
X418Y66D02*
X426Y66D01*
X457Y66D02*
X466Y66D01*
X499Y66D02*
X508Y66D01*
X567Y66D02*
X609Y66D01*
X634Y66D02*
X643Y66D01*
X673Y66D02*
X682Y66D01*
X716Y66D02*
X725Y66D01*
X7Y65D02*
X14Y65D01*
X55Y65D02*
X64Y65D01*
X75Y65D02*
X84Y65D01*
X95Y65D02*
X104Y65D01*
X148Y65D02*
X157Y65D01*
X200Y65D02*
X209Y65D01*
X240Y65D02*
X249Y65D01*
X292Y65D02*
X301Y65D01*
X344Y65D02*
X353Y65D01*
X364Y65D02*
X373Y65D01*
X384Y65D02*
X393Y65D01*
X418Y65D02*
X426Y65D01*
X457Y65D02*
X466Y65D01*
X499Y65D02*
X508Y65D01*
X566Y65D02*
X609Y65D01*
X634Y65D02*
X643Y65D01*
X673Y65D02*
X682Y65D01*
X716Y65D02*
X725Y65D01*
X7Y64D02*
X14Y64D01*
X55Y64D02*
X64Y64D01*
X75Y64D02*
X84Y64D01*
X95Y64D02*
X104Y64D01*
X148Y64D02*
X157Y64D01*
X200Y64D02*
X209Y64D01*
X240Y64D02*
X249Y64D01*
X292Y64D02*
X301Y64D01*
X344Y64D02*
X353Y64D01*
X364Y64D02*
X373Y64D01*
X384Y64D02*
X393Y64D01*
X418Y64D02*
X426Y64D01*
X457Y64D02*
X466Y64D01*
X499Y64D02*
X508Y64D01*
X565Y64D02*
X609Y64D01*
X634Y64D02*
X643Y64D01*
X673Y64D02*
X682Y64D01*
X716Y64D02*
X725Y64D01*
X7Y63D02*
X14Y63D01*
X55Y63D02*
X64Y63D01*
X75Y63D02*
X84Y63D01*
X95Y63D02*
X104Y63D01*
X148Y63D02*
X157Y63D01*
X200Y63D02*
X209Y63D01*
X240Y63D02*
X249Y63D01*
X292Y63D02*
X301Y63D01*
X344Y63D02*
X353Y63D01*
X364Y63D02*
X373Y63D01*
X384Y63D02*
X393Y63D01*
X418Y63D02*
X426Y63D01*
X457Y63D02*
X466Y63D01*
X499Y63D02*
X508Y63D01*
X564Y63D02*
X609Y63D01*
X634Y63D02*
X643Y63D01*
X673Y63D02*
X682Y63D01*
X716Y63D02*
X725Y63D01*
X7Y62D02*
X14Y62D01*
X55Y62D02*
X64Y62D01*
X75Y62D02*
X84Y62D01*
X95Y62D02*
X104Y62D01*
X148Y62D02*
X157Y62D01*
X200Y62D02*
X209Y62D01*
X240Y62D02*
X249Y62D01*
X292Y62D02*
X301Y62D01*
X344Y62D02*
X353Y62D01*
X364Y62D02*
X373Y62D01*
X384Y62D02*
X393Y62D01*
X418Y62D02*
X426Y62D01*
X457Y62D02*
X466Y62D01*
X499Y62D02*
X508Y62D01*
X563Y62D02*
X609Y62D01*
X634Y62D02*
X643Y62D01*
X673Y62D02*
X682Y62D01*
X716Y62D02*
X725Y62D01*
X7Y61D02*
X14Y61D01*
X55Y61D02*
X64Y61D01*
X75Y61D02*
X84Y61D01*
X95Y61D02*
X104Y61D01*
X148Y61D02*
X157Y61D01*
X200Y61D02*
X209Y61D01*
X240Y61D02*
X249Y61D01*
X292Y61D02*
X301Y61D01*
X344Y61D02*
X353Y61D01*
X364Y61D02*
X373Y61D01*
X384Y61D02*
X393Y61D01*
X418Y61D02*
X426Y61D01*
X457Y61D02*
X466Y61D01*
X499Y61D02*
X508Y61D01*
X563Y61D02*
X609Y61D01*
X634Y61D02*
X643Y61D01*
X673Y61D02*
X682Y61D01*
X716Y61D02*
X725Y61D01*
X7Y60D02*
X14Y60D01*
X55Y60D02*
X64Y60D01*
X75Y60D02*
X84Y60D01*
X95Y60D02*
X104Y60D01*
X148Y60D02*
X157Y60D01*
X200Y60D02*
X209Y60D01*
X240Y60D02*
X249Y60D01*
X292Y60D02*
X301Y60D01*
X344Y60D02*
X353Y60D01*
X364Y60D02*
X373Y60D01*
X384Y60D02*
X393Y60D01*
X418Y60D02*
X426Y60D01*
X457Y60D02*
X466Y60D01*
X499Y60D02*
X508Y60D01*
X562Y60D02*
X609Y60D01*
X634Y60D02*
X643Y60D01*
X673Y60D02*
X682Y60D01*
X716Y60D02*
X725Y60D01*
X7Y59D02*
X14Y59D01*
X55Y59D02*
X64Y59D01*
X75Y59D02*
X84Y59D01*
X95Y59D02*
X104Y59D01*
X148Y59D02*
X157Y59D01*
X200Y59D02*
X209Y59D01*
X240Y59D02*
X249Y59D01*
X292Y59D02*
X301Y59D01*
X344Y59D02*
X353Y59D01*
X364Y59D02*
X373Y59D01*
X384Y59D02*
X393Y59D01*
X418Y59D02*
X426Y59D01*
X457Y59D02*
X466Y59D01*
X499Y59D02*
X508Y59D01*
X562Y59D02*
X574Y59D01*
X597Y59D02*
X609Y59D01*
X634Y59D02*
X643Y59D01*
X673Y59D02*
X682Y59D01*
X716Y59D02*
X725Y59D01*
X7Y58D02*
X14Y58D01*
X55Y58D02*
X64Y58D01*
X75Y58D02*
X84Y58D01*
X95Y58D02*
X104Y58D01*
X148Y58D02*
X157Y58D01*
X200Y58D02*
X209Y58D01*
X240Y58D02*
X249Y58D01*
X292Y58D02*
X301Y58D01*
X344Y58D02*
X353Y58D01*
X364Y58D02*
X373Y58D01*
X384Y58D02*
X393Y58D01*
X418Y58D02*
X426Y58D01*
X457Y58D02*
X466Y58D01*
X499Y58D02*
X508Y58D01*
X562Y58D02*
X572Y58D01*
X599Y58D02*
X609Y58D01*
X634Y58D02*
X643Y58D01*
X673Y58D02*
X682Y58D01*
X716Y58D02*
X725Y58D01*
X7Y57D02*
X14Y57D01*
X55Y57D02*
X64Y57D01*
X75Y57D02*
X84Y57D01*
X95Y57D02*
X104Y57D01*
X148Y57D02*
X157Y57D01*
X200Y57D02*
X209Y57D01*
X240Y57D02*
X249Y57D01*
X292Y57D02*
X301Y57D01*
X344Y57D02*
X353Y57D01*
X364Y57D02*
X373Y57D01*
X384Y57D02*
X393Y57D01*
X418Y57D02*
X426Y57D01*
X457Y57D02*
X466Y57D01*
X499Y57D02*
X508Y57D01*
X562Y57D02*
X571Y57D01*
X600Y57D02*
X609Y57D01*
X634Y57D02*
X643Y57D01*
X673Y57D02*
X682Y57D01*
X716Y57D02*
X725Y57D01*
X7Y56D02*
X14Y56D01*
X55Y56D02*
X64Y56D01*
X75Y56D02*
X84Y56D01*
X95Y56D02*
X104Y56D01*
X148Y56D02*
X157Y56D01*
X200Y56D02*
X209Y56D01*
X240Y56D02*
X249Y56D01*
X292Y56D02*
X301Y56D01*
X344Y56D02*
X353Y56D01*
X364Y56D02*
X373Y56D01*
X384Y56D02*
X393Y56D01*
X418Y56D02*
X426Y56D01*
X457Y56D02*
X466Y56D01*
X499Y56D02*
X508Y56D01*
X561Y56D02*
X571Y56D01*
X600Y56D02*
X609Y56D01*
X634Y56D02*
X643Y56D01*
X673Y56D02*
X682Y56D01*
X716Y56D02*
X725Y56D01*
X7Y55D02*
X14Y55D01*
X55Y55D02*
X64Y55D01*
X75Y55D02*
X84Y55D01*
X95Y55D02*
X104Y55D01*
X148Y55D02*
X157Y55D01*
X200Y55D02*
X209Y55D01*
X240Y55D02*
X249Y55D01*
X292Y55D02*
X301Y55D01*
X344Y55D02*
X353Y55D01*
X364Y55D02*
X373Y55D01*
X384Y55D02*
X393Y55D01*
X418Y55D02*
X426Y55D01*
X457Y55D02*
X466Y55D01*
X499Y55D02*
X508Y55D01*
X561Y55D02*
X571Y55D01*
X600Y55D02*
X609Y55D01*
X634Y55D02*
X643Y55D01*
X673Y55D02*
X682Y55D01*
X716Y55D02*
X725Y55D01*
X7Y54D02*
X14Y54D01*
X55Y54D02*
X64Y54D01*
X75Y54D02*
X84Y54D01*
X95Y54D02*
X104Y54D01*
X148Y54D02*
X157Y54D01*
X200Y54D02*
X209Y54D01*
X239Y54D02*
X249Y54D01*
X292Y54D02*
X301Y54D01*
X344Y54D02*
X353Y54D01*
X364Y54D02*
X373Y54D01*
X384Y54D02*
X393Y54D01*
X418Y54D02*
X426Y54D01*
X456Y54D02*
X466Y54D01*
X499Y54D02*
X508Y54D01*
X561Y54D02*
X571Y54D01*
X601Y54D02*
X609Y54D01*
X634Y54D02*
X643Y54D01*
X673Y54D02*
X682Y54D01*
X716Y54D02*
X725Y54D01*
X7Y53D02*
X14Y53D01*
X55Y53D02*
X64Y53D01*
X75Y53D02*
X84Y53D01*
X95Y53D02*
X104Y53D01*
X148Y53D02*
X157Y53D01*
X200Y53D02*
X209Y53D01*
X238Y53D02*
X249Y53D01*
X292Y53D02*
X301Y53D01*
X344Y53D02*
X353Y53D01*
X364Y53D02*
X373Y53D01*
X384Y53D02*
X393Y53D01*
X418Y53D02*
X426Y53D01*
X455Y53D02*
X466Y53D01*
X499Y53D02*
X508Y53D01*
X561Y53D02*
X571Y53D01*
X601Y53D02*
X609Y53D01*
X634Y53D02*
X643Y53D01*
X673Y53D02*
X682Y53D01*
X716Y53D02*
X725Y53D01*
X7Y52D02*
X14Y52D01*
X55Y52D02*
X64Y52D01*
X75Y52D02*
X84Y52D01*
X95Y52D02*
X104Y52D01*
X148Y52D02*
X157Y52D01*
X200Y52D02*
X209Y52D01*
X237Y52D02*
X249Y52D01*
X292Y52D02*
X301Y52D01*
X344Y52D02*
X353Y52D01*
X364Y52D02*
X373Y52D01*
X384Y52D02*
X393Y52D01*
X418Y52D02*
X426Y52D01*
X453Y52D02*
X466Y52D01*
X499Y52D02*
X508Y52D01*
X532Y52D02*
X535Y52D01*
X561Y52D02*
X571Y52D01*
X601Y52D02*
X609Y52D01*
X634Y52D02*
X643Y52D01*
X673Y52D02*
X682Y52D01*
X716Y52D02*
X725Y52D01*
X749Y52D02*
X751Y52D01*
X7Y51D02*
X14Y51D01*
X55Y51D02*
X64Y51D01*
X75Y51D02*
X84Y51D01*
X95Y51D02*
X104Y51D01*
X148Y51D02*
X157Y51D01*
X200Y51D02*
X209Y51D01*
X236Y51D02*
X249Y51D01*
X292Y51D02*
X301Y51D01*
X344Y51D02*
X353Y51D01*
X364Y51D02*
X373Y51D01*
X384Y51D02*
X393Y51D01*
X418Y51D02*
X426Y51D01*
X451Y51D02*
X466Y51D01*
X499Y51D02*
X508Y51D01*
X531Y51D02*
X536Y51D01*
X561Y51D02*
X571Y51D01*
X601Y51D02*
X609Y51D01*
X634Y51D02*
X643Y51D01*
X673Y51D02*
X682Y51D01*
X716Y51D02*
X725Y51D01*
X747Y51D02*
X753Y51D01*
X7Y50D02*
X14Y50D01*
X55Y50D02*
X64Y50D01*
X75Y50D02*
X84Y50D01*
X95Y50D02*
X104Y50D01*
X148Y50D02*
X157Y50D01*
X200Y50D02*
X209Y50D01*
X235Y50D02*
X249Y50D01*
X292Y50D02*
X301Y50D01*
X344Y50D02*
X353Y50D01*
X364Y50D02*
X373Y50D01*
X384Y50D02*
X393Y50D01*
X418Y50D02*
X426Y50D01*
X450Y50D02*
X466Y50D01*
X499Y50D02*
X508Y50D01*
X530Y50D02*
X537Y50D01*
X561Y50D02*
X571Y50D01*
X600Y50D02*
X609Y50D01*
X634Y50D02*
X643Y50D01*
X673Y50D02*
X682Y50D01*
X716Y50D02*
X725Y50D01*
X747Y50D02*
X754Y50D01*
X7Y49D02*
X14Y49D01*
X55Y49D02*
X64Y49D01*
X75Y49D02*
X84Y49D01*
X95Y49D02*
X104Y49D01*
X148Y49D02*
X157Y49D01*
X200Y49D02*
X210Y49D01*
X234Y49D02*
X249Y49D01*
X292Y49D02*
X301Y49D01*
X344Y49D02*
X353Y49D01*
X364Y49D02*
X373Y49D01*
X384Y49D02*
X393Y49D01*
X418Y49D02*
X426Y49D01*
X448Y49D02*
X466Y49D01*
X499Y49D02*
X508Y49D01*
X529Y49D02*
X538Y49D01*
X561Y49D02*
X571Y49D01*
X599Y49D02*
X609Y49D01*
X634Y49D02*
X643Y49D01*
X673Y49D02*
X682Y49D01*
X716Y49D02*
X725Y49D01*
X746Y49D02*
X754Y49D01*
X7Y48D02*
X14Y48D01*
X55Y48D02*
X64Y48D01*
X75Y48D02*
X84Y48D01*
X95Y48D02*
X104Y48D01*
X148Y48D02*
X157Y48D01*
X200Y48D02*
X211Y48D01*
X233Y48D02*
X249Y48D01*
X292Y48D02*
X301Y48D01*
X344Y48D02*
X353Y48D01*
X364Y48D02*
X373Y48D01*
X384Y48D02*
X393Y48D01*
X418Y48D02*
X427Y48D01*
X447Y48D02*
X466Y48D01*
X499Y48D02*
X508Y48D01*
X529Y48D02*
X538Y48D01*
X561Y48D02*
X571Y48D01*
X597Y48D02*
X609Y48D01*
X634Y48D02*
X643Y48D01*
X673Y48D02*
X682Y48D01*
X716Y48D02*
X725Y48D01*
X746Y48D02*
X755Y48D01*
X7Y47D02*
X14Y47D01*
X55Y47D02*
X64Y47D01*
X75Y47D02*
X84Y47D01*
X95Y47D02*
X104Y47D01*
X148Y47D02*
X157Y47D01*
X201Y47D02*
X212Y47D01*
X232Y47D02*
X249Y47D01*
X292Y47D02*
X301Y47D01*
X344Y47D02*
X353Y47D01*
X364Y47D02*
X373Y47D01*
X384Y47D02*
X393Y47D01*
X418Y47D02*
X427Y47D01*
X445Y47D02*
X466Y47D01*
X499Y47D02*
X508Y47D01*
X528Y47D02*
X538Y47D01*
X562Y47D02*
X571Y47D01*
X595Y47D02*
X609Y47D01*
X634Y47D02*
X643Y47D01*
X673Y47D02*
X682Y47D01*
X716Y47D02*
X725Y47D01*
X745Y47D02*
X755Y47D01*
X7Y46D02*
X14Y46D01*
X55Y46D02*
X64Y46D01*
X75Y46D02*
X84Y46D01*
X95Y46D02*
X104Y46D01*
X148Y46D02*
X157Y46D01*
X201Y46D02*
X213Y46D01*
X230Y46D02*
X249Y46D01*
X292Y46D02*
X301Y46D01*
X344Y46D02*
X353Y46D01*
X364Y46D02*
X373Y46D01*
X384Y46D02*
X393Y46D01*
X418Y46D02*
X427Y46D01*
X444Y46D02*
X466Y46D01*
X499Y46D02*
X509Y46D01*
X528Y46D02*
X538Y46D01*
X562Y46D02*
X571Y46D01*
X594Y46D02*
X609Y46D01*
X634Y46D02*
X643Y46D01*
X673Y46D02*
X682Y46D01*
X716Y46D02*
X726Y46D01*
X745Y46D02*
X755Y46D01*
X7Y45D02*
X14Y45D01*
X55Y45D02*
X64Y45D01*
X75Y45D02*
X84Y45D01*
X95Y45D02*
X104Y45D01*
X148Y45D02*
X157Y45D01*
X201Y45D02*
X214Y45D01*
X229Y45D02*
X249Y45D01*
X292Y45D02*
X301Y45D01*
X344Y45D02*
X353Y45D01*
X364Y45D02*
X373Y45D01*
X384Y45D02*
X393Y45D01*
X418Y45D02*
X428Y45D01*
X442Y45D02*
X466Y45D01*
X499Y45D02*
X510Y45D01*
X527Y45D02*
X538Y45D01*
X562Y45D02*
X572Y45D01*
X592Y45D02*
X609Y45D01*
X634Y45D02*
X643Y45D01*
X673Y45D02*
X682Y45D01*
X716Y45D02*
X727Y45D01*
X744Y45D02*
X754Y45D01*
X7Y44D02*
X14Y44D01*
X55Y44D02*
X64Y44D01*
X75Y44D02*
X84Y44D01*
X95Y44D02*
X104Y44D01*
X147Y44D02*
X157Y44D01*
X202Y44D02*
X216Y44D01*
X227Y44D02*
X249Y44D01*
X292Y44D02*
X301Y44D01*
X344Y44D02*
X353Y44D01*
X364Y44D02*
X373Y44D01*
X384Y44D02*
X393Y44D01*
X418Y44D02*
X430Y44D01*
X440Y44D02*
X466Y44D01*
X500Y44D02*
X512Y44D01*
X525Y44D02*
X537Y44D01*
X562Y44D02*
X574Y44D01*
X590Y44D02*
X609Y44D01*
X634Y44D02*
X643Y44D01*
X673Y44D02*
X682Y44D01*
X717Y44D02*
X729Y44D01*
X742Y44D02*
X754Y44D01*
X7Y43D02*
X14Y43D01*
X55Y43D02*
X64Y43D01*
X75Y43D02*
X84Y43D01*
X95Y43D02*
X104Y43D01*
X135Y43D02*
X169Y43D01*
X203Y43D02*
X249Y43D01*
X279Y43D02*
X314Y43D01*
X344Y43D02*
X353Y43D01*
X364Y43D02*
X373Y43D01*
X384Y43D02*
X393Y43D01*
X418Y43D02*
X466Y43D01*
X500Y43D02*
X537Y43D01*
X562Y43D02*
X609Y43D01*
X634Y43D02*
X643Y43D01*
X673Y43D02*
X682Y43D01*
X717Y43D02*
X754Y43D01*
X7Y42D02*
X14Y42D01*
X55Y42D02*
X64Y42D01*
X75Y42D02*
X84Y42D01*
X95Y42D02*
X104Y42D01*
X134Y42D02*
X170Y42D01*
X204Y42D02*
X249Y42D01*
X278Y42D02*
X315Y42D01*
X344Y42D02*
X353Y42D01*
X364Y42D02*
X373Y42D01*
X384Y42D02*
X393Y42D01*
X419Y42D02*
X466Y42D01*
X501Y42D02*
X536Y42D01*
X563Y42D02*
X609Y42D01*
X634Y42D02*
X643Y42D01*
X673Y42D02*
X682Y42D01*
X717Y42D02*
X753Y42D01*
X7Y41D02*
X14Y41D01*
X55Y41D02*
X64Y41D01*
X75Y41D02*
X84Y41D01*
X95Y41D02*
X104Y41D01*
X133Y41D02*
X171Y41D01*
X204Y41D02*
X249Y41D01*
X278Y41D02*
X316Y41D01*
X344Y41D02*
X353Y41D01*
X364Y41D02*
X373Y41D01*
X384Y41D02*
X393Y41D01*
X420Y41D02*
X453Y41D01*
X457Y41D02*
X466Y41D01*
X501Y41D02*
X536Y41D01*
X564Y41D02*
X609Y41D01*
X634Y41D02*
X643Y41D01*
X673Y41D02*
X682Y41D01*
X718Y41D02*
X753Y41D01*
X7Y40D02*
X14Y40D01*
X55Y40D02*
X64Y40D01*
X75Y40D02*
X84Y40D01*
X95Y40D02*
X104Y40D01*
X133Y40D02*
X171Y40D01*
X206Y40D02*
X249Y40D01*
X277Y40D02*
X316Y40D01*
X344Y40D02*
X353Y40D01*
X364Y40D02*
X373Y40D01*
X384Y40D02*
X393Y40D01*
X420Y40D02*
X452Y40D01*
X457Y40D02*
X466Y40D01*
X502Y40D02*
X535Y40D01*
X564Y40D02*
X609Y40D01*
X634Y40D02*
X643Y40D01*
X673Y40D02*
X682Y40D01*
X719Y40D02*
X752Y40D01*
X7Y39D02*
X14Y39D01*
X55Y39D02*
X64Y39D01*
X75Y39D02*
X84Y39D01*
X95Y39D02*
X104Y39D01*
X133Y39D02*
X171Y39D01*
X207Y39D02*
X237Y39D01*
X240Y39D02*
X249Y39D01*
X277Y39D02*
X316Y39D01*
X344Y39D02*
X353Y39D01*
X364Y39D02*
X373Y39D01*
X384Y39D02*
X393Y39D01*
X421Y39D02*
X450Y39D01*
X457Y39D02*
X466Y39D01*
X503Y39D02*
X534Y39D01*
X565Y39D02*
X609Y39D01*
X634Y39D02*
X643Y39D01*
X673Y39D02*
X682Y39D01*
X720Y39D02*
X751Y39D01*
X7Y38D02*
X14Y38D01*
X55Y38D02*
X64Y38D01*
X75Y38D02*
X84Y38D01*
X95Y38D02*
X104Y38D01*
X133Y38D02*
X171Y38D01*
X208Y38D02*
X236Y38D01*
X240Y38D02*
X249Y38D01*
X277Y38D02*
X316Y38D01*
X344Y38D02*
X353Y38D01*
X364Y38D02*
X373Y38D01*
X384Y38D02*
X393Y38D01*
X422Y38D02*
X449Y38D01*
X457Y38D02*
X466Y38D01*
X504Y38D02*
X533Y38D01*
X566Y38D02*
X599Y38D01*
X601Y38D02*
X609Y38D01*
X634Y38D02*
X643Y38D01*
X673Y38D02*
X682Y38D01*
X720Y38D02*
X750Y38D01*
X7Y37D02*
X14Y37D01*
X55Y37D02*
X63Y37D01*
X76Y37D02*
X84Y37D01*
X95Y37D02*
X104Y37D01*
X133Y37D02*
X171Y37D01*
X209Y37D02*
X235Y37D01*
X240Y37D02*
X248Y37D01*
X277Y37D02*
X316Y37D01*
X344Y37D02*
X352Y37D01*
X365Y37D02*
X373Y37D01*
X385Y37D02*
X393Y37D01*
X423Y37D02*
X447Y37D01*
X457Y37D02*
X465Y37D01*
X505Y37D02*
X532Y37D01*
X567Y37D02*
X597Y37D01*
X601Y37D02*
X609Y37D01*
X634Y37D02*
X642Y37D01*
X673Y37D02*
X681Y37D01*
X722Y37D02*
X749Y37D01*
X7Y36D02*
X14Y36D01*
X55Y36D02*
X63Y36D01*
X76Y36D02*
X83Y36D01*
X96Y36D02*
X103Y36D01*
X133Y36D02*
X171Y36D01*
X211Y36D02*
X233Y36D01*
X240Y36D02*
X248Y36D01*
X278Y36D02*
X315Y36D01*
X345Y36D02*
X352Y36D01*
X365Y36D02*
X373Y36D01*
X385Y36D02*
X392Y36D01*
X425Y36D02*
X445Y36D01*
X457Y36D02*
X465Y36D01*
X506Y36D02*
X531Y36D01*
X568Y36D02*
X595Y36D01*
X602Y36D02*
X609Y36D01*
X635Y36D02*
X642Y36D01*
X674Y36D02*
X681Y36D01*
X723Y36D02*
X748Y36D01*
X7Y35D02*
X14Y35D01*
X56Y35D02*
X62Y35D01*
X77Y35D02*
X83Y35D01*
X97Y35D02*
X102Y35D01*
X134Y35D02*
X170Y35D01*
X212Y35D02*
X231Y35D01*
X241Y35D02*
X247Y35D01*
X279Y35D02*
X314Y35D01*
X345Y35D02*
X351Y35D01*
X366Y35D02*
X372Y35D01*
X386Y35D02*
X392Y35D01*
X426Y35D02*
X443Y35D01*
X458Y35D02*
X464Y35D01*
X508Y35D02*
X529Y35D01*
X570Y35D02*
X594Y35D01*
X603Y35D02*
X608Y35D01*
X635Y35D02*
X641Y35D01*
X674Y35D02*
X680Y35D01*
X725Y35D02*
X746Y35D01*
X7Y34D02*
X14Y34D01*
X58Y34D02*
X60Y34D01*
X79Y34D02*
X81Y34D01*
X98Y34D02*
X101Y34D01*
X136Y34D02*
X168Y34D01*
X215Y34D02*
X228Y34D01*
X243Y34D02*
X245Y34D01*
X281Y34D02*
X313Y34D01*
X347Y34D02*
X349Y34D01*
X368Y34D02*
X370Y34D01*
X388Y34D02*
X390Y34D01*
X430Y34D02*
X440Y34D01*
X460Y34D02*
X462Y34D01*
X511Y34D02*
X526Y34D01*
X573Y34D02*
X592Y34D01*
X604Y34D02*
X606Y34D01*
X637Y34D02*
X639Y34D01*
X676Y34D02*
X678Y34D01*
X728Y34D02*
X743Y34D01*
X7Y33D02*
X14Y33D01*
X7Y32D02*
X14Y32D01*
X7Y31D02*
X14Y31D01*
X7Y30D02*
X14Y30D01*
X7Y29D02*
X14Y29D01*
X7Y28D02*
X14Y28D01*
X7Y27D02*
X14Y27D01*
X7Y26D02*
X14Y26D01*
X7Y25D02*
X14Y25D01*
X7Y24D02*
X14Y24D01*
X7Y23D02*
X14Y23D01*
X7Y22D02*
X14Y22D01*
X7Y21D02*
X14Y21D01*
X7Y20D02*
X14Y20D01*
X7Y19D02*
X14Y19D01*
X7Y18D02*
X14Y18D01*
X7Y17D02*
X14Y17D01*
X7Y16D02*
X14Y16D01*
X7Y15D02*
X14Y15D01*
X7Y14D02*
X14Y14D01*
X7Y13D02*
X14Y13D01*
X7Y12D02*
X14Y12D01*
X7Y11D02*
X14Y11D01*
X7Y10D02*
X14Y10D01*
X7Y9D02*
X14Y9D01*
X7Y8D02*
X14Y8D01*
X7Y7D02*
X14Y7D01*
X7Y6D02*
X14Y6D01*
X7Y5D02*
X14Y5D01*
X7Y4D02*
X14Y4D01*
X7Y3D02*
X14Y3D01*
D02*
G04 End of Silk1*
M02*